<svg width="43" height="25" viewBox="0 0 43 25" fill="none" xmlns="http://www.w3.org/2000/svg">
<path d="M21.0833 0C11.5 0 3.31583 5.17011 0 12.4681C3.31583 19.7661 11.5 24.9362 21.0833 24.9362C30.6763 24.9362 38.8508 19.7661 42.1667 12.4681C38.8508 5.17011 30.6763 0 21.0833 0ZM21.0833 20.7802C15.7933 20.7802 11.5 17.0564 11.5 12.4681C11.5 7.87985 15.7933 4.15604 21.0833 4.15604C26.3733 4.15604 30.6667 7.87985 30.6667 12.4681C30.6667 17.0564 26.3733 20.7802 21.0833 20.7802ZM21.0833 7.48087C17.9113 7.48087 15.3333 9.71681 15.3333 12.4681C15.3333 15.2194 17.9113 17.4554 21.0833 17.4554C24.2554 17.4554 26.8333 15.2194 26.8333 12.4681C26.8333 9.71681 24.2554 7.48087 21.0833 7.48087Z" fill="#CBCBCB"/>
</svg>
