<svg width="33" height="33" viewBox="0 0 33 33" fill="none" xmlns="http://www.w3.org/2000/svg">
<path d="M2.12071 2.25761C-0.426806 4.90373 0.0945843 7.71465 0.0945843 16.2541C0.0945843 23.3455 -1.1427 30.4545 5.3328 32.1281C7.35487 32.6482 25.2712 32.6482 27.2906 32.1254C29.9867 31.4298 32.1803 29.2429 32.4802 25.4297C32.5221 24.8976 32.5221 7.6201 32.4788 7.07709C32.1601 3.01538 29.6598 0.674533 26.3653 0.20042C25.6103 0.0910088 25.459 0.0585908 21.585 0.0518371C7.84384 0.0585908 4.83167 -0.5533 2.12071 2.25761Z" fill="url(#paint0_linear_1_193)"/>
<path d="M16.3009 4.29134C11.3964 4.29134 6.73898 3.85504 4.96004 8.42058C4.22523 10.3062 4.33194 12.7551 4.33194 16.2617C4.33194 19.3387 4.23334 22.2307 4.96004 24.1015C6.73493 28.6697 11.4301 28.232 16.2982 28.232C20.9948 28.232 25.8373 28.721 27.6378 24.1015C28.374 22.1969 28.2659 19.7845 28.2659 16.2617C28.2659 11.5854 28.5239 8.56646 26.256 6.2999C23.9597 4.00363 20.8543 4.29134 16.2955 4.29134H16.3009ZM15.2285 6.44849C25.459 6.43228 26.7612 5.29495 26.0426 21.0947C25.7873 26.6827 21.5324 26.0695 16.3023 26.0695C6.766 26.0695 6.49179 25.7966 6.49179 16.2563C6.49179 6.60517 7.24822 6.45389 15.2285 6.44579V6.44849ZM22.69 8.43544C22.3092 8.43544 21.944 8.58672 21.6747 8.85599C21.4054 9.12527 21.2542 9.49048 21.2542 9.87129C21.2542 10.2521 21.4054 10.6173 21.6747 10.8866C21.944 11.1559 22.3092 11.3071 22.69 11.3071C23.0708 11.3071 23.436 11.1559 23.7053 10.8866C23.9746 10.6173 24.1258 10.2521 24.1258 9.87129C24.1258 9.49048 23.9746 9.12527 23.7053 8.85599C23.436 8.58672 23.0708 8.43544 22.69 8.43544ZM16.3009 10.1144C15.4938 10.1145 14.6945 10.2736 13.9488 10.5826C13.2031 10.8915 12.5256 11.3444 11.9548 11.9152C10.8023 13.068 10.1549 14.6315 10.155 16.2617C10.1552 17.8919 10.803 19.4552 11.9558 20.6078C13.1086 21.7604 14.6721 22.4078 16.3023 22.4076C17.9325 22.4074 19.4958 21.7597 20.6484 20.6068C21.801 19.454 22.4484 17.8905 22.4482 16.2603C22.448 14.6302 21.8003 13.0668 20.6474 11.9142C19.4946 10.7617 17.9311 10.1142 16.3009 10.1144ZM16.3009 12.2716C21.5756 12.2716 21.5824 20.2518 16.3009 20.2518C11.0276 20.2518 11.0195 12.2716 16.3009 12.2716Z" fill="white"/>
<defs>
<linearGradient id="paint0_linear_1_193" x1="2.18287" y1="30.3993" x2="32.312" y2="4.32288" gradientUnits="userSpaceOnUse">
<stop stop-color="#FFDD55"/>
<stop offset="0.5" stop-color="#FF543E"/>
<stop offset="1" stop-color="#C837AB"/>
</linearGradient>
</defs>
</svg>
