<svg width="28" height="37" viewBox="0 0 28 37" fill="none" xmlns="http://www.w3.org/2000/svg">
<path d="M14.2422 2.62626C14.9801 2.62626 15.5757 3.22457 15.5757 3.95683C15.5757 4.69802 14.9801 5.29633 14.2422 5.29633C13.5132 5.29633 12.9175 4.69802 12.9175 3.95683C12.9175 3.22457 13.5132 2.62626 14.2422 2.62626ZM25.2306 17.6555C25.1683 17.593 23.6659 22.7991 23.6659 22.7991L24.8216 22.2098C24.5549 24.3798 22.4212 27.4785 20.1542 27.9339C16.847 28.5858 16.0558 24.728 15.8958 22.308C15.7624 20.3166 15.0423 10.4668 18.5718 11.2437L18.8385 11.7081L20.2431 11.5831L20.172 8.31467C20.172 8.31467 19.1852 8.63615 18.7407 8.67187C18.874 9.37735 18.5806 9.52022 17.7894 9.3952C17.1849 9.29697 16.6159 9.20767 16.0914 8.88619C15.638 8.51114 15.3624 7.49311 15.2557 6.99303C16.5181 6.56439 17.4249 5.36777 17.4249 3.95683C17.4249 2.19762 16.0025 0.759888 14.2422 0.759888C12.4908 0.759888 11.0684 2.19762 11.0684 3.95683C11.0684 5.36777 11.9752 6.56439 13.2376 6.99303C13.1309 7.49311 12.8553 8.51114 12.4019 8.88619C11.8774 9.20767 11.3084 9.29697 10.7039 9.3952C9.91263 9.52022 9.61036 9.37735 9.7526 8.67187C9.30809 8.63615 8.32127 8.31467 8.32127 8.31467L8.24126 11.5831L9.65481 11.7081L9.92152 11.2437C13.4421 10.4668 12.7308 20.3166 12.5975 22.308C12.4286 24.728 11.6373 28.5858 8.33905 27.9339C6.07203 27.4785 3.93837 24.3798 3.67166 22.2098L4.82739 22.7991C4.82739 22.7991 3.32494 17.593 3.26271 17.6555L0.666748 22.7991L2.10697 22.2723C2.00918 26.0497 3.59165 30.8808 6.94328 32.8008C8.50797 33.6938 10.3305 34.0152 11.8863 34.8993C12.4641 35.2208 14.2422 36.6496 14.2422 36.6496C14.2422 36.6496 16.0291 35.2208 16.607 34.8993C18.1628 34.0152 19.9853 33.6938 21.5411 32.8008C24.9016 30.8808 26.4841 26.0497 26.3863 22.2723L27.8265 22.7991L25.2306 17.6555Z" fill="#5BA3D4"/>
</svg>
