<svg width="28" height="38" viewBox="0 0 28 38" fill="none" xmlns="http://www.w3.org/2000/svg">
<path d="M24.5 14H23.3333V9.33333C23.3333 4.186 19.1473 0 14 0C8.85267 0 4.66667 4.186 4.66667 9.33333V14H3.5C2.57212 14.0012 1.6826 14.3704 1.02649 15.0265C0.37038 15.6826 0.0012347 16.5721 0 17.5V33.8333C0 35.7638 1.57111 37.3333 3.5 37.3333H24.5C26.4289 37.3333 28 35.7638 28 33.8333V17.5C28 15.5696 26.4289 14 24.5 14ZM7.77778 9.33333C7.77778 5.90178 10.5684 3.11111 14 3.11111C17.4316 3.11111 20.2222 5.90178 20.2222 9.33333V14H7.77778V9.33333ZM15.5556 26.012V29.5556C15.5556 29.9681 15.3917 30.3638 15.0999 30.6555C14.8082 30.9472 14.4126 31.1111 14 31.1111C13.5874 31.1111 13.1918 30.9472 12.9001 30.6555C12.6083 30.3638 12.4444 29.9681 12.4444 29.5556V26.012C11.5189 25.4722 10.8889 24.4798 10.8889 23.3333C10.8889 21.6176 12.2842 20.2222 14 20.2222C15.7158 20.2222 17.1111 21.6176 17.1111 23.3333C17.1111 24.4798 16.4811 25.4722 15.5556 26.012Z" fill="#5BA3D4"/>
</svg>
