<svg width="13" height="13" viewBox="0 0 13 13" fill="none" xmlns="http://www.w3.org/2000/svg">
<path d="M1.72693 9.36312C1.04094 8.20671 0.800703 6.83964 1.05133 5.51863C1.30195 4.19763 2.02619 3.01354 3.08806 2.18873C4.14993 1.36392 5.47638 0.955126 6.81833 1.0391C8.16028 1.12308 9.42541 1.69405 10.3762 2.6448C11.3269 3.59556 11.8979 4.86069 11.9819 6.20264C12.0659 7.54459 11.6571 8.87104 10.8323 9.93291C10.0075 10.9948 8.82339 11.719 7.50238 11.9697C6.18138 12.2203 4.81431 11.9801 3.65789 11.2941L3.65791 11.294L1.75094 11.8389C1.67204 11.8614 1.58855 11.8624 1.50912 11.8419C1.42969 11.8213 1.35721 11.7798 1.29919 11.7218C1.24116 11.6638 1.19971 11.5913 1.17913 11.5119C1.15855 11.4324 1.15958 11.3489 1.18213 11.2701L1.72693 9.36312Z" stroke="#001F5D" stroke-width="1.07525" stroke-linecap="round" stroke-linejoin="round"/>
</svg>
