<svg width="46" height="28" viewBox="0 0 46 28" fill="none" xmlns="http://www.w3.org/2000/svg">
<path d="M2.07814 2.26406C3.28127 2.89844 19.9938 12.0094 20.6172 12.3375C21.2407 12.6656 21.875 12.8188 22.8594 12.8188C23.8438 12.8188 24.4782 12.6656 25.1016 12.3375C25.725 12.0094 42.4375 2.89844 43.6407 2.26406C44.0891 2.03438 44.8438 1.61875 45.0079 1.14844C45.2922 0.317188 44.986 0 43.7719 0H1.94689C0.732826 0 0.426576 0.328125 0.710951 1.14844C0.875014 1.62969 1.6297 2.03438 2.07814 2.26406Z" fill="#5BA3D4"/>
<path d="M44.5922 2.75611C43.6953 3.21548 35.6453 8.94674 30.3188 12.3921L39.3094 22.5092C39.5281 22.728 39.6266 22.9905 39.5063 23.1217C39.375 23.2421 39.0906 23.1764 38.861 22.9686L28.0766 13.8686C26.4469 14.9186 25.2985 15.6405 25.1016 15.7499C24.2594 16.1764 23.6688 16.2311 22.8594 16.2311C22.05 16.2311 21.4594 16.1764 20.6172 15.7499C20.4094 15.6405 19.2719 14.9186 17.6422 13.8686L6.85782 22.9686C6.63907 23.1874 6.34375 23.253 6.2125 23.1217C6.08125 23.0014 6.17969 22.728 6.39844 22.5092L15.3781 12.3921C10.0516 8.94674 1.91406 3.21548 1.01719 2.75611C0.0546874 2.26392 0 2.84361 0 3.29205V25.7139C0 26.7311 1.49844 27.9999 2.57031 27.9999H43.1485C44.2203 27.9999 45.5 26.7202 45.5 25.7139V3.29205C45.5 2.83267 45.5657 2.26392 44.5922 2.75611Z" fill="#5BA3D4"/>
</svg>
