<svg width="18" height="27" viewBox="0 0 18 27" fill="none" xmlns="http://www.w3.org/2000/svg">
<path d="M6.80241 18.1643C6.66875 17.99 6.49818 17.8475 6.30292 17.7469C6.10193 17.6422 5.86244 17.5896 5.58447 17.5896C5.37657 17.5873 5.17081 17.6317 4.98235 17.7196C4.79974 17.8064 4.64921 17.9454 4.53075 18.1374H4.51707V17.6853H3.59335V22.4617H4.56539V20.7849H4.57908C4.69754 20.9585 4.84935 21.0898 5.03409 21.1788C5.21884 21.2673 5.42069 21.3122 5.63964 21.3122C5.89965 21.3122 6.12673 21.2622 6.32045 21.1617C6.51418 21.0612 6.67625 20.9265 6.80626 20.758C6.93887 20.5841 7.03752 20.3868 7.09706 20.1764C7.16134 19.954 7.1936 19.7236 7.19285 19.4921C7.19285 19.2411 7.16078 19.0008 7.09706 18.7703C7.03844 18.5513 6.93842 18.3456 6.80241 18.1643ZM6.17976 19.8817C6.15239 20.0182 6.10535 20.1383 6.03949 20.241C5.9732 20.3436 5.88682 20.427 5.77948 20.4907C5.67214 20.5544 5.53872 20.5865 5.3792 20.5865C5.22397 20.5865 5.09183 20.5548 4.98235 20.4907C4.87577 20.4298 4.78542 20.3441 4.71892 20.241C4.64971 20.1309 4.60103 20.0092 4.57523 19.8817C4.5454 19.7445 4.53049 19.6044 4.53075 19.4639C4.53075 19.3181 4.54444 19.1765 4.57181 19.0401C4.59918 18.9033 4.64579 18.7823 4.71208 18.6771C4.77793 18.5723 4.86475 18.4868 4.97208 18.4205C5.079 18.3546 5.21242 18.3213 5.37236 18.3213C5.5276 18.3213 5.65846 18.3546 5.7658 18.4205C5.87313 18.4863 5.9608 18.5731 6.02923 18.68C6.09765 18.7874 6.1464 18.9093 6.17634 19.0461C6.20584 19.183 6.22081 19.3219 6.22081 19.4635C6.22081 19.6059 6.20713 19.7449 6.17976 19.8817ZM8.50615 17.7435C8.30986 17.8457 8.14693 17.9821 8.01692 18.1506C7.8837 18.3257 7.78395 18.5239 7.7227 18.7352C7.65626 18.9584 7.62283 19.19 7.62349 19.4229C7.62349 19.6692 7.65642 19.9065 7.7227 20.1345C7.78856 20.3624 7.88692 20.5647 8.01692 20.74C8.14693 20.9158 8.312 21.0548 8.51299 21.1574C8.71356 21.26 8.94663 21.3114 9.21091 21.3114C9.42629 21.3148 9.63988 21.2717 9.83699 21.1848C10.0217 21.1005 10.171 20.962 10.2852 20.7708H10.2988V21.2228H11.2226V16.3374H10.2509V18.1164H10.2373C10.1292 17.9445 9.97351 17.8078 9.78909 17.723C9.60192 17.6346 9.39739 17.589 9.19039 17.5896C8.93038 17.5896 8.70244 17.6409 8.50615 17.7435ZM9.84725 18.4175C9.95202 18.4812 10.0376 18.5646 10.1038 18.6672C10.1697 18.7694 10.2167 18.8883 10.2441 19.023C10.2715 19.1573 10.2852 19.298 10.2852 19.4434C10.2852 19.5897 10.2715 19.7308 10.2441 19.8676C10.2196 19.9965 10.1733 20.1203 10.1073 20.2337C10.0431 20.3406 9.95801 20.4261 9.85067 20.4903C9.74333 20.554 9.60991 20.5861 9.45039 20.5861C9.29986 20.5861 9.17071 20.5531 9.0638 20.4873C8.95663 20.4215 8.86547 20.3327 8.79695 20.2273C8.72416 20.1154 8.67201 19.9915 8.643 19.8612C8.61129 19.7267 8.59522 19.5889 8.5951 19.4507C8.5951 19.3044 8.60964 19.1641 8.63958 19.0299C8.66909 18.8952 8.71698 18.7754 8.78327 18.6706C8.84913 18.5659 8.93722 18.4816 9.0467 18.4175C9.15617 18.3538 9.29088 18.3213 9.45039 18.3213C9.60991 18.3217 9.74205 18.3538 9.84725 18.4175ZM12.1668 21.2228H13.1384V18.3354H13.809V17.6849H13.1384V17.4732C13.1384 17.327 13.1671 17.2235 13.2239 17.1615C13.2808 17.1003 13.3753 17.0691 13.5079 17.0691C13.6311 17.0691 13.7495 17.0759 13.8637 17.0896V16.3648C13.7816 16.3605 13.6969 16.3549 13.6105 16.3477C13.524 16.341 13.4373 16.3377 13.3505 16.3378C12.9537 16.3378 12.6569 16.4379 12.461 16.6389C12.2652 16.8395 12.1668 17.0969 12.1668 17.4121V17.6858H11.5852V18.3362H12.1668V21.2228Z" fill="white"/>
<path d="M10.2544 0.696045H-0.00915527V26.3548H17.0967V7.53838L10.2544 0.696045ZM16.2414 25.4995H0.846137V1.55134H9.39906V8.39368H16.2414V25.4995Z" fill="white"/>
</svg>
