<svg width="19" height="19" viewBox="0 0 19 19" fill="none" xmlns="http://www.w3.org/2000/svg">
<g clip-path="url(#clip0_16_2549)">
<path d="M15.6774 0.711952C14.7248 -0.238945 13.1822 -0.238945 12.2296 0.711952L11.3666 1.57975L2.17936 10.7621L2.15984 10.7817C2.15515 10.7865 2.15515 10.7915 2.15008 10.7915C2.14031 10.8061 2.12567 10.8206 2.1161 10.8353C2.1161 10.8402 2.11103 10.8402 2.11103 10.845C2.10127 10.8597 2.09658 10.8695 2.08662 10.8841C2.08194 10.889 2.08194 10.8937 2.07702 10.8987C2.07213 10.9134 2.06725 10.9231 2.06222 10.9378C2.06222 10.9425 2.05753 10.9425 2.05753 10.9475L0.0191021 17.0771C-0.0102112 17.1626 -0.014782 17.2546 0.00591581 17.3426C0.0266137 17.4306 0.0717385 17.5109 0.136095 17.5744C0.228289 17.6654 0.352765 17.7163 0.482347 17.7159C0.535299 17.715 0.587781 17.7068 0.638389 17.6915L6.76324 15.6483C6.76796 15.6483 6.76796 15.6483 6.773 15.6436C6.78842 15.639 6.80315 15.6324 6.81678 15.6239C6.8205 15.6234 6.82398 15.6218 6.82669 15.6192C6.84118 15.6094 6.86071 15.5994 6.87535 15.5897C6.88984 15.5801 6.90464 15.5655 6.91928 15.5557C6.92416 15.5506 6.92889 15.5506 6.92889 15.546C6.93396 15.541 6.94373 15.5363 6.94857 15.5264L16.9988 5.47616C17.9497 4.52358 17.9497 2.98097 16.9988 2.02851L15.6774 0.711952ZM6.60724 14.5023L3.21328 11.1085L11.7079 2.61382L15.1019 6.00762L6.60724 14.5023ZM2.73524 12.0106L5.70027 14.9754L1.24799 16.4578L2.73524 12.0106ZM16.3114 4.79341L15.7944 5.31523L12.4003 1.92116L12.9223 1.39946C13.4932 0.828983 14.4187 0.828983 14.9898 1.39946L16.3161 2.72582C16.8828 3.29934 16.8806 4.22263 16.3114 4.79341Z" fill="#6D6D6D"/>
</g>
<defs>
<clipPath id="clip0_16_2549">
<rect width="18.9" height="18.9" fill="white" transform="translate(-0.00683594)"/>
</clipPath>
</defs>
</svg>
