<svg width="16" height="20" viewBox="0 0 16 20" fill="none" xmlns="http://www.w3.org/2000/svg">
<path d="M8.12098 9.23797C6.85189 9.23797 5.75292 8.78276 4.85498 7.88467C3.95704 6.98677 3.50187 5.8881 3.50187 4.61885C3.50187 3.34998 3.95704 2.2512 4.85513 1.35296C5.75322 0.455169 6.85204 0 8.12098 0C9.39026 0 10.489 0.455169 11.3869 1.35311C12.2848 2.25105 12.7401 3.34987 12.7401 4.61885C12.7401 5.8881 12.2848 6.98692 11.3867 7.88486C10.4886 8.78265 9.38981 9.23797 8.12098 9.23797ZM0.0387669 14.7467C0.0646868 14.373 0.11705 13.9653 0.194173 13.5349C0.272007 13.1012 0.372203 12.6913 0.492212 12.3165C0.616118 11.9292 0.784672 11.5468 0.993004 11.1803C1.20928 10.7999 1.46327 10.4686 1.74831 10.196C2.04635 9.91087 2.41125 9.6816 2.83323 9.51432C3.25372 9.34801 3.71975 9.26374 4.21822 9.26374C4.414 9.26374 4.60331 9.34404 4.96896 9.58212C5.22887 9.75136 5.48956 9.91942 5.75101 10.0863C6.00223 10.2464 6.34256 10.3963 6.76293 10.5321C7.17304 10.6648 7.58944 10.7321 8.00045 10.7321C8.41142 10.7321 8.82771 10.6648 9.23827 10.5321C9.65815 10.3965 9.99848 10.2465 10.2494 10.0864C10.5405 9.90046 10.8038 9.73074 11.0322 9.58193C11.3974 9.34389 11.5869 9.26355 11.7826 9.26355C12.2813 9.26355 12.7471 9.34798 13.1675 9.51451C13.5892 9.68145 13.9542 9.91072 14.2526 10.1962C14.5374 10.4689 14.7916 10.8 15.0076 11.1803C15.2157 11.5468 15.3843 11.9291 15.5084 12.3167C15.6282 12.6914 15.7284 13.1012 15.8063 13.5349C15.8834 13.9648 15.9358 14.3726 15.9617 14.7471C15.9875 15.1241 16.0002 15.5018 16 15.8796C16 16.8807 15.6818 17.6911 15.0542 18.2888C14.4344 18.8786 13.6144 19.1778 12.6171 19.1778H3.38291C2.38563 19.1778 1.56586 18.8787 0.945921 18.2888C0.318228 17.6915 0 16.881 0 15.8794C0.000148773 15.493 0.0131464 15.1119 0.0387669 14.7467Z" fill="#001F5D"/>
</svg>
