<svg width="34" height="35" viewBox="0 0 34 35" fill="none" xmlns="http://www.w3.org/2000/svg">
<path d="M30.6687 23.3771L25.8612 22.8301C24.7067 22.6981 23.571 23.0942 22.7572 23.9053L19.2746 27.3762C13.9183 24.6599 9.52723 20.3024 6.80174 14.9452L10.3032 11.4555C11.1171 10.6444 11.5146 9.51258 11.3821 8.36191L10.8332 3.60835C10.6061 1.70315 8.99727 0.269531 7.06672 0.269531H3.79235C1.6536 0.269531 -0.125536 2.04269 0.00695278 4.17425C1.01008 20.2836 13.9372 33.1484 30.0819 34.1481C32.2207 34.2802 33.9998 32.507 33.9998 30.3754V27.1121C34.0187 25.2069 32.5803 23.6035 30.6687 23.3771Z" fill="#5BA3D4"/>
</svg>
