<svg width="36" height="44" viewBox="0 0 36 44" fill="none" xmlns="http://www.w3.org/2000/svg">
<path d="M18.2722 21.399C15.4167 21.399 12.9441 20.3783 10.9237 18.3644C8.90333 16.3509 7.8792 13.8872 7.8792 11.041C7.8792 8.19567 8.90333 5.73174 10.924 3.7175C12.9447 1.70428 15.4171 0.683594 18.2722 0.683594C21.1281 0.683594 23.6002 1.70428 25.6205 3.71784C27.6407 5.7314 28.6653 8.19542 28.6653 11.041C28.6653 13.8872 27.6408 16.3512 25.6201 18.3648C23.5994 20.378 21.1271 21.399 18.2722 21.399ZM0.0872269 33.7519C0.145546 32.914 0.263367 31.9998 0.43689 31.0346C0.612019 30.0621 0.83746 29.1428 1.10748 28.3025C1.38627 27.434 1.76551 26.5764 2.23426 25.7545C2.72087 24.9015 3.29235 24.1586 3.9337 23.5474C4.60429 22.908 5.42532 22.3939 6.37478 22.0187C7.32087 21.6458 8.36944 21.4568 9.491 21.4568C9.93151 21.4568 10.3574 21.6369 11.1802 22.1708C11.765 22.5503 12.3515 22.9271 12.9398 23.3013C13.505 23.6603 14.2708 23.9966 15.2166 24.3011C16.1393 24.5987 17.0762 24.7496 18.001 24.7496C18.9257 24.7496 19.8623 24.5987 20.7861 24.3011C21.7308 23.9969 22.4966 23.6606 23.0612 23.3016C23.7161 22.8846 24.3085 22.504 24.8225 22.1703C25.6442 21.6366 26.0705 21.4564 26.5109 21.4564C27.6329 21.4564 28.6811 21.6457 29.6269 22.0192C30.5757 22.3935 31.397 22.9076 32.0683 23.5477C32.7092 24.1593 33.2811 24.9017 33.767 25.7545C34.2354 26.5764 34.6147 27.4337 34.8939 28.3028C35.1635 29.1431 35.389 30.0621 35.5641 31.0346C35.7376 31.9985 35.8555 32.913 35.9138 33.7529C35.9718 34.5981 36.0005 35.4451 36 36.2923C36 38.5372 35.284 40.3545 33.872 41.6948C32.4775 43.0174 30.6323 43.6883 28.3885 43.6883H7.61154C5.36767 43.6883 3.52319 43.0177 2.12833 41.6949C0.716015 40.3555 0 38.5379 0 36.292C0.000339508 35.4255 0.029583 34.5708 0.0872269 33.7519Z" fill="#5BA3D4"/>
</svg>
