<svg width="17" height="11" viewBox="0 0 17 11" fill="none" xmlns="http://www.w3.org/2000/svg">
<path d="M8.48117 10.3933C12.8767 10.3933 16.3551 6.06623 16.5008 5.88212L16.6663 5.67273L16.5008 5.46334C16.3551 5.27924 12.8767 0.952148 8.48117 0.952148C4.08564 0.952148 0.607242 5.27924 0.461578 5.46334L0.296021 5.67273L0.461578 5.88212C0.607242 6.06623 4.08564 10.3933 8.48117 10.3933ZM8.48117 1.62652C12.0196 1.62652 15.0462 4.81628 15.7947 5.67273C15.0472 6.52985 12.0246 9.71894 8.48117 9.71894C4.94276 9.71894 1.91619 6.52918 1.16764 5.67273C1.91518 4.81561 4.9377 1.62652 8.48117 1.62652Z" fill="#001F5D"/>
<path d="M8.48072 8.7075C10.1542 8.7075 11.5154 7.34595 11.5154 5.67284C11.5154 3.99973 10.1542 2.63818 8.48072 2.63818C6.80727 2.63818 5.44606 3.99973 5.44606 5.67284C5.44606 7.34595 6.80727 8.7075 8.48072 8.7075ZM8.48072 3.31255C9.78192 3.31255 10.841 4.37131 10.841 5.67284C10.841 6.97438 9.78192 8.03313 8.48072 8.03313C7.17953 8.03313 6.12043 6.97438 6.12043 5.67284C6.12043 4.37131 7.17953 3.31255 8.48072 3.31255Z" fill="#001F5D"/>
</svg>
