<svg width="33" height="33" viewBox="0 0 33 33" fill="none" xmlns="http://www.w3.org/2000/svg">
<path d="M27.1052 0H5.40479C2.41981 0 0 2.4198 0 5.40479V27.1052C0 30.0902 2.41981 32.51 5.40479 32.51H27.1052C30.0902 32.51 32.51 30.0902 32.51 27.1052V5.40479C32.51 2.4198 30.0902 0 27.1052 0Z" fill="black"/>
<path d="M26.3881 13.595V9.25977C20.7212 9.02049 20.5389 3.87093 20.5389 3.38705V3.35059H16.1589V20.2349C16.1584 20.9646 15.9279 21.6755 15.5 22.2665C15.0722 22.8575 14.4689 23.2986 13.7759 23.5269C13.083 23.7553 12.3356 23.7593 11.6403 23.5384C10.9449 23.3174 10.3369 22.8829 9.90274 22.2965C9.46861 21.7101 9.23045 21.0017 9.22215 20.2721C9.21385 19.5425 9.43584 18.8289 9.85652 18.2328C10.2772 17.6367 10.8752 17.1884 11.5653 16.9517C12.2555 16.7151 13.0027 16.7021 13.7007 16.9146V12.4434C13.3652 12.4003 13.0272 12.3788 12.6889 12.3788C11.1351 12.3788 9.61619 12.8396 8.32426 13.7028C7.03233 14.5661 6.02539 15.793 5.43078 17.2285C4.83617 18.6641 4.68059 20.2437 4.98372 21.7676C5.28685 23.2915 6.03507 24.6914 7.13377 25.7901C8.23247 26.8888 9.6323 27.637 11.1562 27.9401C12.6802 28.2432 14.2598 28.0877 15.6953 27.4931C17.1308 26.8984 18.3578 25.8915 19.221 24.5996C20.0843 23.3076 20.545 21.7887 20.545 20.2349C20.545 20.1248 20.545 20.0154 20.5374 19.9068V11.5926C22.5542 13.4377 26.3881 13.595 26.3881 13.595Z" fill="#00F6EF"/>
<path d="M27.678 14.6647V10.3272C22.0104 10.0879 21.8288 4.93832 21.8288 4.45443V4.41797H17.4488V21.3023C17.4485 22.032 17.2181 22.7429 16.7903 23.3341C16.3626 23.9252 15.7593 24.3664 15.0664 24.5949C14.3734 24.8233 13.6261 24.8275 12.9306 24.6066C12.2352 24.3858 11.6271 23.9513 11.1929 23.3649C10.7587 22.7785 10.5204 22.0701 10.5121 21.3405C10.5037 20.6109 10.7257 19.8973 11.1463 19.3011C11.567 18.7049 12.165 18.2566 12.8552 18.0199C13.5454 17.7832 14.2926 17.7702 14.9906 17.9827V13.5108C14.6543 13.4686 14.3155 13.4481 13.9765 13.4492C12.4227 13.4497 10.9039 13.9109 9.6122 14.7746C8.32051 15.6382 7.31392 16.8655 6.71975 18.3012C6.12558 19.737 5.9705 21.3167 6.27414 22.8405C6.57777 24.3644 7.32648 25.764 8.42557 26.8624C9.52466 27.9607 10.9248 28.7085 12.4489 29.0111C13.9729 29.3137 15.5525 29.1575 16.9878 28.5624C18.4232 27.9672 19.6498 26.9598 20.5126 25.6675C21.3753 24.3753 21.8355 22.8561 21.8349 21.3023C21.8349 21.1922 21.8349 21.0828 21.8273 20.9742V12.66C23.8442 14.5051 27.678 14.6647 27.678 14.6647Z" fill="white"/>
<path d="M20.6475 4.41797C20.8587 5.56805 21.4755 7.3661 23.2736 8.41819C21.8994 6.81765 21.8303 4.75221 21.8303 4.45443V4.41797H20.6475ZM27.6779 14.6647V10.3272C27.2441 10.3113 26.8123 10.2604 26.3866 10.1752V13.5898C26.3866 13.5898 22.5527 13.4325 20.5374 11.5874V19.8993C20.542 20.0079 20.545 20.1173 20.545 20.2274C20.5448 21.6488 20.159 23.0435 19.4288 24.2629C18.6986 25.4824 17.6512 26.4809 16.3983 27.1521C15.1454 27.8233 13.7339 28.142 12.3141 28.0744C10.8944 28.0067 9.51958 27.5552 8.33618 26.7679C9.4245 27.8918 10.8237 28.6652 12.3543 28.9889C13.885 29.3126 15.4774 29.1718 16.9276 28.5846C18.3778 27.9975 19.6196 26.9907 20.4938 25.6932C21.3681 24.3958 21.8351 22.8668 21.8349 21.3023C21.8349 21.1922 21.8349 21.0828 21.8273 20.9742V12.66C23.8441 14.5051 27.6779 14.6647 27.6779 14.6647Z" fill="#FF004F"/>
<path d="M13.7007 16.9079C12.8643 16.6528 11.9625 16.7228 11.1755 17.1039C10.3886 17.485 9.77441 18.149 9.45589 18.9633C9.13737 19.7776 9.13793 20.6822 9.45747 21.4961C9.77702 22.31 10.392 22.9733 11.1794 23.3534C10.7491 22.7656 10.5147 22.0573 10.5093 21.3288C10.5039 20.6003 10.7278 19.8886 11.1494 19.2945C11.571 18.7005 12.1688 18.2541 12.8582 18.0186C13.5476 17.7832 14.2936 17.7706 14.9905 17.9828V13.5108C14.6541 13.4687 14.3154 13.4481 13.9764 13.4493C13.883 13.4493 13.7911 13.4493 13.6984 13.4546L13.7007 16.9079Z" fill="#FF004F"/>
</svg>
