<svg width="14" height="13" viewBox="0 0 14 13" fill="none" xmlns="http://www.w3.org/2000/svg">
<path fill-rule="evenodd" clip-rule="evenodd" d="M7.2464 0C3.69085 0 0.791992 2.89475 0.791992 6.44972C0.791992 10.0047 3.69143 12.9029 7.2464 12.9029C10.8014 12.9029 13.6949 10.0047 13.6949 6.44972C13.6949 2.89475 10.8014 0 7.2464 0ZM7.2464 1.17268C7.93966 1.17152 8.62633 1.30723 9.26703 1.57203C9.90772 1.83683 10.4898 2.22551 10.98 2.71577C11.4702 3.20604 11.8587 3.78824 12.1234 4.429C12.388 5.06975 12.5236 5.75645 12.5223 6.44972C12.5237 7.14316 12.3882 7.83007 12.1236 8.47106C11.859 9.11204 11.4705 9.69451 10.9804 10.1851C10.4903 10.6756 9.90814 11.0646 9.26738 11.3298C8.62663 11.595 7.93985 11.731 7.2464 11.7303C6.55265 11.7311 5.86555 11.5951 5.22443 11.3301C4.58332 11.065 4.00078 10.6761 3.51017 10.1856C3.01957 9.6951 2.63052 9.11265 2.36532 8.47159C2.10012 7.83053 1.96397 7.14346 1.96467 6.44972C1.96467 3.52858 4.32526 1.17268 7.2464 1.17268ZM7.23702 2.33714C7.15952 2.3379 7.08293 2.35402 7.0117 2.38456C6.94047 2.4151 6.876 2.45947 6.82202 2.51508C6.76804 2.5707 6.72562 2.63646 6.69722 2.70858C6.66881 2.78069 6.65499 2.85772 6.65654 2.93521V6.44972C6.65687 6.52687 6.67242 6.60321 6.7023 6.67434C6.73218 6.74548 6.77581 6.81001 6.83068 6.86426L9.17604 9.21078C9.23029 9.26661 9.29511 9.31107 9.36673 9.34158C9.43834 9.37209 9.51532 9.38804 9.59316 9.38848C9.67101 9.38893 9.74816 9.37387 9.82012 9.34419C9.89209 9.3145 9.95742 9.27078 10.0123 9.21558C10.0672 9.16038 10.1105 9.09481 10.1398 9.02268C10.1691 8.95055 10.1837 8.87331 10.1828 8.79547C10.1819 8.71763 10.1656 8.64075 10.1347 8.5693C10.1037 8.49786 10.0589 8.43329 10.0028 8.37935L7.83039 6.20697V2.93521C7.83197 2.85663 7.81773 2.77854 7.78853 2.70557C7.75933 2.63261 7.71576 2.56626 7.6604 2.51047C7.60505 2.45468 7.53904 2.41058 7.46631 2.38081C7.39358 2.35103 7.3156 2.33618 7.23702 2.33714Z" fill="#001F5D"/>
</svg>
