<svg width="34" height="34" viewBox="0 0 34 34" fill="none" xmlns="http://www.w3.org/2000/svg">
<path d="M29.021 4.97944C22.3816 -1.65981 11.6189 -1.65981 4.97952 4.97944C-1.65984 11.6187 -1.65984 22.3813 4.97952 29.0206C11.6189 35.6598 22.3816 35.6598 29.021 29.0206C35.6604 22.3813 35.659 11.6187 29.021 4.97944ZM26.2521 12.7964L15.9218 23.1279C15.6668 23.3829 15.3209 23.5261 14.9603 23.5261C14.5997 23.5261 14.2538 23.3829 13.9988 23.1279L7.74841 16.8762C7.62214 16.75 7.52198 16.6001 7.45365 16.4351C7.38531 16.2701 7.35014 16.0933 7.35014 15.9148C7.35014 15.5541 7.4934 15.2083 7.74841 14.9533C8.00341 14.6983 8.34927 14.555 8.7099 14.555C9.07053 14.555 9.41639 14.6983 9.6714 14.9533L14.9603 20.2421L24.3291 10.8721C24.4555 10.7458 24.6055 10.6457 24.7705 10.5774C24.9356 10.5091 25.1125 10.474 25.2911 10.474C25.4697 10.4741 25.6466 10.5093 25.8116 10.5778C25.9766 10.6462 26.1265 10.7464 26.2528 10.8728C26.379 10.9991 26.4792 11.1491 26.5475 11.3142C26.6158 11.4792 26.6509 11.6561 26.6508 11.8347C26.6508 12.0134 26.6155 12.1902 26.5471 12.3552C26.4787 12.5202 26.3785 12.6701 26.2521 12.7964Z" fill="#47D316"/>
<path d="M26.2521 12.7964L15.9218 23.1279C15.6668 23.3829 15.3209 23.5261 14.9603 23.5261C14.5997 23.5261 14.2538 23.3829 13.9988 23.1279L7.74841 16.8762C7.62214 16.75 7.52198 16.6001 7.45365 16.4351C7.38531 16.2701 7.35014 16.0933 7.35014 15.9148C7.35014 15.5541 7.4934 15.2083 7.74841 14.9533C8.00341 14.6983 8.34927 14.555 8.7099 14.555C9.07053 14.555 9.41639 14.6983 9.6714 14.9533L14.9603 20.2421L24.3291 10.8721C24.4555 10.7458 24.6055 10.6457 24.7705 10.5774C24.9356 10.5091 25.1125 10.474 25.2911 10.474C25.4697 10.4741 25.6466 10.5093 25.8116 10.5778C25.9766 10.6462 26.1265 10.7464 26.2528 10.8728C26.379 10.9991 26.4792 11.1491 26.5475 11.3142C26.6158 11.4792 26.6509 11.6561 26.6508 11.8347C26.6508 12.0134 26.6155 12.1902 26.5471 12.3552C26.4787 12.5202 26.3785 12.6701 26.2521 12.7964Z" fill="white"/>
</svg>
