<svg width="31" height="31" viewBox="0 0 31 31" fill="none" xmlns="http://www.w3.org/2000/svg">
<path d="M22.9321 0H7.98004C3.57279 0 0 3.57279 0 7.98004V22.9321C0 27.3393 3.57279 30.9121 7.98004 30.9121H22.9321C27.3393 30.9121 30.9121 27.3393 30.9121 22.9321V7.98004C30.9121 3.57279 27.3393 0 22.9321 0Z" fill="url(#paint0_linear_1_186)"/>
<path d="M15.4561 4.22754C13.5254 4.22786 11.6289 4.73666 9.95728 5.70273C8.2857 6.6688 6.89803 8.05807 5.93388 9.73076C4.96974 11.4035 4.46313 13.3006 4.46503 15.2312C4.46693 17.1619 4.97727 19.058 5.9447 20.7288L4.45056 26.4484L10.2644 24.9084C11.7375 25.6974 13.3711 26.1401 15.0411 26.2029C16.711 26.2657 18.3732 25.9469 19.9014 25.2707C21.4296 24.5946 22.7835 23.5789 23.8601 22.3008C24.9368 21.0228 25.7079 19.5161 26.1147 17.8953C26.5216 16.2745 26.5536 14.5823 26.2082 12.9473C25.8628 11.3123 25.1492 9.77757 24.1215 8.45981C23.0939 7.14206 21.7793 6.07596 20.2777 5.34258C18.7762 4.60921 17.1272 4.22786 15.4561 4.22754ZM21.9201 21.6838C20.4442 23.1588 18.5083 24.085 16.4337 24.3085C14.3591 24.5321 12.2704 24.0397 10.5141 22.9129L7.13669 23.8088L7.99998 20.5097C6.99147 19.0884 6.41019 17.4086 6.32463 15.668C6.23907 13.9274 6.65278 12.1986 7.51704 10.6853C8.38129 9.17197 9.66007 7.93721 11.2027 7.12649C12.7453 6.31576 14.4876 5.96283 16.2241 6.1093C17.9606 6.25576 19.6191 6.89551 21.0042 7.95317C22.3892 9.01083 23.4431 10.4423 24.0417 12.079C24.6403 13.7157 24.7586 15.4894 24.3827 17.191C24.0068 18.8927 23.1524 20.4515 21.9201 21.6838Z" fill="white"/>
<path d="M20.5077 17.656C20.5083 17.8368 20.4929 18.0172 20.4619 18.1953C20.4327 18.3758 20.3883 18.5535 20.3291 18.7265C20.1929 19.111 19.4492 19.5818 19.4492 19.5818C18.9207 19.9336 18.2891 20.0974 17.6562 20.0467C17.5078 20.0315 17.3604 20.008 17.2146 19.9763C16.9676 19.9212 16.8474 19.886 16.8474 19.886C16.7279 19.8508 16.4177 19.7532 16.4177 19.7532C16.1076 19.6562 16.0379 19.6376 16.0379 19.6376C15.5669 19.496 15.1104 19.3099 14.6746 19.0818C13.6699 18.5359 12.5755 17.5578 12.5755 17.5578C11.9275 16.9817 11.3417 16.3394 10.8277 15.6413C10.5542 15.2326 10.3186 14.7998 10.1238 14.3483C10.0972 14.2819 9.96638 13.9838 9.96638 13.9838C9.83356 13.6863 9.78708 13.5714 9.78708 13.5714C9.73927 13.4558 9.65427 13.2168 9.65427 13.2168C9.60577 13.0757 9.56607 12.9318 9.5354 12.7858C9.51096 12.6541 9.49455 12.5211 9.48626 12.3874C9.44774 11.6888 9.79505 10.9537 9.79505 10.9537C10.1769 10.1634 10.5474 9.9828 10.5474 9.9828C10.7132 9.908 10.884 9.8452 11.0588 9.79487C11.2317 9.74123 11.4097 9.70563 11.59 9.68862C11.644 9.68333 11.6985 9.68806 11.7507 9.70257C11.8902 9.74042 12.1857 10.2571 12.1857 10.2571C12.2773 10.3965 12.436 10.6555 12.436 10.6555C12.5954 10.9132 12.7289 11.1203 12.7289 11.1203C12.8617 11.3295 12.9865 11.5128 12.9865 11.5128C13.0111 11.542 13.13 11.6954 13.13 11.6954C13.1953 11.7779 13.2547 11.8649 13.3079 11.9557C13.3444 12.0215 13.367 12.094 13.3743 12.1689C13.3823 12.321 13.1791 12.5607 13.1791 12.5607C13.0411 12.7194 12.8915 12.8677 12.7315 13.0043C12.5737 13.1382 12.424 13.2814 12.2833 13.4333C12.0788 13.6577 12.0841 13.7945 12.0841 13.7945C12.0921 13.8526 12.1079 13.9094 12.1312 13.9632C12.175 14.0635 12.2049 14.1153 12.2049 14.1153C12.2341 14.1664 12.3211 14.2912 12.3211 14.2912C12.4081 14.4161 12.4161 14.4307 12.4161 14.4307C12.817 15.0573 13.2941 15.6316 13.8365 16.1407C14.6221 16.8432 15.6959 17.3619 15.6959 17.3619C15.7118 17.3685 15.8453 17.4409 15.8453 17.4409C15.9781 17.5139 16.0333 17.5372 16.0333 17.5372C16.0877 17.5611 16.1926 17.593 16.1926 17.593C16.2482 17.6119 16.3066 17.6215 16.3653 17.6215C16.5021 17.6142 16.7026 17.3858 16.7026 17.3858C16.8375 17.2288 16.963 17.0641 17.0785 16.8924C17.1967 16.7186 17.3274 16.5537 17.4696 16.399C17.6854 16.1699 17.8375 16.1612 17.8375 16.1612C17.9125 16.1606 17.987 16.1746 18.0566 16.2024C18.1522 16.2462 18.2452 16.2957 18.3349 16.3505C18.5009 16.4514 18.5341 16.4727 18.5341 16.4727C18.7333 16.5763 18.9538 16.6852 18.9538 16.6852C19.1769 16.7948 19.4505 16.9242 19.4505 16.9242C19.7241 17.0537 19.8729 17.1288 19.8729 17.1288C20.4194 17.3652 20.4705 17.4993 20.4705 17.4993C20.4905 17.5495 20.503 17.6023 20.5077 17.656Z" fill="white"/>
<defs>
<linearGradient id="paint0_linear_1_186" x1="15.4561" y1="30.9121" x2="15.4561" y2="0" gradientUnits="userSpaceOnUse">
<stop stop-color="#00D02D"/>
<stop offset="0.25" stop-color="#10D93A"/>
<stop offset="0.75" stop-color="#3AF15D"/>
<stop offset="1" stop-color="#51FE71"/>
</linearGradient>
</defs>
</svg>
