<svg width="28" height="29" viewBox="0 0 28 29" fill="none" xmlns="http://www.w3.org/2000/svg">
<path d="M14.0127 0C11.5545 0.000412379 9.13976 0.648232 7.01142 1.87828C4.88308 3.10833 3.11623 4.87721 1.88863 7.00697C0.661039 9.13673 0.0160014 11.5522 0.0184202 14.0105C0.020839 16.4687 0.670628 18.8829 1.90241 21.0102L0 28.2927L7.4025 26.3319C9.27812 27.3365 11.3581 27.9002 13.4843 27.9801C15.6105 28.06 17.727 27.6541 19.6727 26.7932C21.6185 25.9323 23.3423 24.639 24.7132 23.0118C26.084 21.3846 27.0658 19.4662 27.5839 17.4025C28.1019 15.3388 28.1426 13.1842 27.7029 11.1024C27.2631 9.02066 26.3544 7.06657 25.046 5.38874C23.7376 3.7109 22.0638 2.3535 20.1519 1.41973C18.2401 0.485957 16.1405 0.000408759 14.0127 0ZM22.243 22.2261C20.3638 24.1042 17.899 25.2834 15.2575 25.5681C12.616 25.8528 9.95658 25.2258 7.72041 23.7911L3.42011 24.9317L4.51929 20.7312C3.23521 18.9216 2.4951 16.7827 2.38615 14.5665C2.27721 12.3503 2.80397 10.1491 3.90438 8.22229C5.00479 6.29548 6.63299 4.72334 8.59715 3.69108C10.5613 2.65882 12.7796 2.20946 14.9906 2.39595C17.2017 2.58243 19.3134 3.39699 21.0769 4.74366C22.8404 6.09032 24.1823 7.91297 24.9444 9.99687C25.7065 12.0808 25.8572 14.3391 25.3786 16.5057C24.8999 18.6724 23.812 20.6571 22.243 22.2261Z" fill="white"/>
<path d="M20.4447 17.0979C20.4454 17.328 20.4259 17.5577 20.3864 17.7844C20.3492 18.0143 20.2927 18.2405 20.2173 18.4608C20.044 18.9504 19.097 19.5499 19.097 19.5499C18.424 19.9978 17.6199 20.2063 16.8141 20.1417C16.6251 20.1224 16.4374 20.0925 16.2518 20.0521C15.9373 19.9819 15.7842 19.9371 15.7842 19.9371C15.6321 19.8923 15.2372 19.768 15.2372 19.768C14.8423 19.6446 14.7536 19.6209 14.7536 19.6209C14.1538 19.4406 13.5726 19.2036 13.0177 18.9132C11.7384 18.2182 10.345 16.9727 10.345 16.9727C9.52004 16.2393 8.77417 15.4214 8.11964 14.5326C7.77148 14.0122 7.47149 13.4612 7.22339 12.8863C7.18957 12.8018 7.023 12.4222 7.023 12.4222C6.8539 12.0434 6.79471 11.8971 6.79471 11.8971C6.73384 11.75 6.62561 11.4456 6.62561 11.4456C6.56387 11.266 6.51332 11.0827 6.47426 10.8968C6.44315 10.7292 6.42226 10.5597 6.41169 10.3895C6.36265 9.50005 6.80486 8.56406 6.80486 8.56406C7.29103 7.5579 7.76283 7.32792 7.76283 7.32792C7.97384 7.23268 8.19142 7.15272 8.41388 7.08864C8.63408 7.02034 8.86076 6.97501 9.09029 6.95336C9.15901 6.94662 9.22838 6.95264 9.29491 6.97111C9.47246 7.0193 9.84872 7.67712 9.84872 7.67712C9.9654 7.85468 10.1675 8.18443 10.1675 8.18443C10.3704 8.51249 10.5404 8.77629 10.5404 8.77629C10.7095 9.04263 10.8684 9.27599 10.8684 9.27599C10.8997 9.31319 11.051 9.50851 11.051 9.50851C11.1342 9.61359 11.2099 9.72433 11.2776 9.83995C11.3241 9.92367 11.3529 10.0161 11.3622 10.1114C11.3723 10.305 11.1136 10.6102 11.1136 10.6102C10.9378 10.8123 10.7474 11.0011 10.5437 11.175C10.3427 11.3455 10.1521 11.5279 9.97301 11.7212C9.71259 12.007 9.71935 12.1812 9.71935 12.1812C9.72954 12.2552 9.74973 12.3274 9.77939 12.3959C9.83519 12.5236 9.87324 12.5896 9.87324 12.5896C9.91044 12.6547 10.0212 12.8136 10.0212 12.8136C10.132 12.9726 10.1421 12.9912 10.1421 12.9912C10.6526 13.789 11.2601 14.5203 11.9507 15.1684C12.9509 16.0629 14.3181 16.7233 14.3181 16.7233C14.3384 16.7318 14.5084 16.8239 14.5084 16.8239C14.6775 16.9169 14.7476 16.9465 14.7476 16.9465C14.817 16.977 14.9506 17.0175 14.9506 17.0175C15.0214 17.0416 15.0956 17.0539 15.1704 17.0539C15.3446 17.0446 15.5999 16.7537 15.5999 16.7537C15.7717 16.5539 15.9314 16.3441 16.0785 16.1255C16.229 15.9043 16.3954 15.6943 16.5765 15.4973C16.8513 15.2056 17.0449 15.1946 17.0449 15.1946C17.1404 15.1938 17.2352 15.2116 17.3239 15.247C17.4456 15.3028 17.5639 15.3658 17.6782 15.4356C17.8896 15.5641 17.9319 15.5912 17.9319 15.5912C18.1855 15.7231 18.4662 15.8617 18.4662 15.8617C18.7503 16.0012 19.0987 16.1661 19.0987 16.1661C19.447 16.331 19.6364 16.4265 19.6364 16.4265C20.3323 16.7275 20.3974 16.8983 20.3974 16.8983C20.4229 16.9622 20.4388 17.0294 20.4447 17.0979Z" fill="white"/>
</svg>
