<svg width="33" height="33" viewBox="0 0 33 33" fill="none" xmlns="http://www.w3.org/2000/svg">
<path d="M2.12062 2.25707C-0.426787 4.90256 0.0945801 7.71279 0.0945801 16.2502C0.0945801 23.3399 -1.14265 30.4472 5.33256 32.1204C7.35455 32.6403 25.2701 32.6403 27.2894 32.1177C29.9854 31.4222 32.1789 29.2359 32.4788 25.4236C32.5206 24.8916 32.5206 7.61826 32.4774 7.07539C32.1586 3.01466 29.6585 0.674371 26.3642 0.200372C25.6091 0.090987 25.4579 0.0585767 21.5841 0.0518246C7.8435 0.0585767 4.83146 -0.553167 2.12062 2.25707Z" fill="#FF0000"/>
<path d="M24.0566 14.3126C25.3648 15.0678 25.3648 16.956 24.0566 17.7113L13.4262 23.8487C12.1181 24.604 10.4828 23.6599 10.4828 22.1494L10.4828 9.87452C10.4828 8.36395 12.1181 7.41985 13.4262 8.17513L24.0566 14.3126Z" fill="#F1F1F1"/>
</svg>
