<svg width="130" height="17" viewBox="0 0 130 17" fill="none" xmlns="http://www.w3.org/2000/svg">
<path d="M0 1.47366V12.2707C0.0108256 14.7125 2.03955 16.6765 4.51321 16.667H20.5276C20.9833 16.667 21.3492 16.3073 21.3492 15.8701V5.07196C21.3395 2.63124 19.3108 0.666115 16.836 0.675691H0.821665C0.366989 0.675691 0 1.03531 0 1.47366ZM22.369 5.6848L28.9802 0.938488C29.554 0.471412 30 0.588447 30 1.43429V15.9084C30 16.8712 29.4555 16.7553 28.9802 16.4052L22.369 11.6674V5.6848Z" fill="white"/>
<path fill-rule="evenodd" clip-rule="evenodd" d="M84.8846 2.4375C83.2421 0.812499 81.0943 0 78.9255 0C76.7777 0 74.6088 0.812499 72.9663 2.4375C69.6815 5.6875 69.6815 10.9583 72.9663 14.2292C76.2512 17.4792 81.5786 17.4792 84.8846 14.2292C88.1695 10.9792 88.1695 5.6875 84.8846 2.4375ZM82.5051 11.875C80.5258 13.8333 77.3251 13.8333 75.3668 11.875C73.3875 9.91667 73.3875 6.75 75.3668 4.8125C77.3462 2.85417 80.5468 2.85417 82.5051 4.8125C84.4634 6.75 84.4634 9.91667 82.5051 11.875Z" fill="white"/>
<path fill-rule="evenodd" clip-rule="evenodd" d="M102.572 2.4375C100.93 0.812499 98.782 0 96.6132 0C94.4654 0 92.2965 0.812499 90.654 2.4375C87.3692 5.6875 87.3692 10.9583 90.654 14.2292C93.9389 17.4792 99.2663 17.4792 102.572 14.2292C105.857 10.9792 105.857 5.6875 102.572 2.4375ZM100.193 11.875C98.2135 13.8333 95.0128 13.8333 93.0545 11.875C91.0752 9.91667 91.0752 6.75 93.0545 4.8125C95.0339 2.85417 98.2345 2.85417 100.193 4.8125C102.151 6.75 102.151 9.91667 100.193 11.875ZM57.8684 16.625L58.7107 16.6667H71.3448L71.3027 15.8333C71.1974 14.4583 70.2078 13.4583 68.818 13.375L67.9757 13.3333H60.3952L70.5025 3.33333L70.4604 2.5C70.3973 1.125 69.3655 0.104166 67.9757 0.041666L67.1334 0H54.4993L54.5414 0.833333C54.6467 2.1875 55.6574 3.20833 57.0261 3.29167L57.8684 3.33333H65.4489L55.3415 13.3333L55.3837 14.1667C55.4679 15.5417 56.4786 16.5417 57.8684 16.625ZM115.522 5C115.817 5.5 115.901 6.04167 115.943 6.66667L115.986 7.5V13.3333L116.028 14.1667C116.112 15.5208 117.123 16.5417 118.512 16.625L119.355 16.6667V7.5L119.397 6.66667C119.439 6.04167 119.523 5.47917 119.818 4.97917C120.408 3.97917 121.481 3.33333 122.724 3.33333C123.966 3.33333 125.061 4 125.651 5C125.945 5.5 126.03 6.0625 126.051 6.66667L126.093 7.5V13.3333L126.135 14.1667C126.219 15.5417 127.23 16.5417 128.62 16.625L129.462 16.6667V7.5V6.66667C129.462 2.97917 126.451 0 122.724 0C120.702 0 118.912 0.875001 117.67 2.25C116.428 0.875001 114.638 0 112.616 0C111.227 0 109.921 0.416667 108.847 1.14583C108.194 0.416667 106.72 0 105.878 0V16.6667L106.72 16.625C108.131 16.5417 109.142 15.5417 109.205 14.1667L109.247 13.3333V7.5L109.289 6.66667C109.332 6.04167 109.416 5.47917 109.711 5C110.3 4 111.374 3.33333 112.616 3.33333C113.859 3.33333 114.954 4 115.522 5Z" fill="white"/>
</svg>
