<svg width="485" height="510" viewBox="0 0 485 510" fill="none" xmlns="http://www.w3.org/2000/svg">
<path d="M242.5 499.076C136.937 499.076 51.3617 447.956 51.3617 384.897C51.3617 321.838 136.937 270.718 242.5 270.718C348.063 270.718 433.639 321.838 433.639 384.897C433.639 447.956 348.063 499.076 242.5 499.076Z" fill="#F5F5F5"/>
<path d="M162.96 456.889L305.638 370.26C306.893 369.5 307.935 368.405 308.66 367.086C309.385 365.767 309.767 364.271 309.767 362.748C309.767 361.225 309.385 359.728 308.66 358.409C307.935 357.091 306.893 355.996 305.638 355.235L291.563 345.902C289.133 344.431 286.379 343.656 283.575 343.656C280.771 343.656 278.017 344.431 275.587 345.902L132.89 432.541C131.635 433.302 130.593 434.396 129.868 435.715C129.143 437.034 128.762 438.53 128.762 440.053C128.762 441.577 129.143 443.073 129.868 444.392C130.593 445.711 131.635 446.805 132.89 447.566L146.965 456.889C149.396 458.368 152.154 459.147 154.963 459.147C157.771 459.147 160.53 458.368 162.96 456.889Z" fill="#E0E0E0"/>
<path d="M379.901 377.91C362.801 377.91 348.938 369.539 348.938 359.213C348.938 348.888 362.801 340.517 379.901 340.517C397.001 340.517 410.863 348.888 410.863 359.213C410.863 369.539 397.001 377.91 379.901 377.91Z" fill="#E6E6E6"/>
<path d="M112.365 382.194L98.7851 390.405C98.7851 390.405 105.721 367.486 102.025 344.383C100.628 335.651 97.6309 331.316 96.5833 328.981C95.5357 326.645 87.4167 312.212 94.6433 305.602C101.87 298.993 118.68 312.283 117.768 347.851C117.354 359.492 115.538 371.032 112.365 382.194Z" fill="#5BA3D4"/>
<path opacity="0.5" d="M112.365 382.194L98.7851 390.405C98.7851 390.405 105.721 367.486 102.025 344.383C100.628 335.651 97.6309 331.316 96.5833 328.981C95.5357 326.645 87.4167 312.212 94.6433 305.602C101.87 298.993 118.68 312.283 117.768 347.851C117.354 359.492 115.538 371.032 112.365 382.194Z" fill="black"/>
<path d="M106.05 386.519C106.149 386.521 106.246 386.491 106.328 386.432C106.409 386.374 106.472 386.29 106.506 386.192C106.555 386.039 111.744 371.127 111.579 347.157C111.414 323.187 99.4348 310.172 99.3184 310.049C99.2733 310.002 99.2196 309.964 99.1605 309.938C99.1014 309.912 99.038 309.899 98.974 309.899C98.91 309.899 98.8466 309.912 98.7875 309.938C98.7284 309.964 98.6747 310.002 98.6297 310.049C98.5842 310.097 98.5481 310.153 98.5235 310.215C98.4989 310.278 98.4862 310.344 98.4862 310.412C98.4862 310.479 98.4989 310.546 98.5235 310.608C98.5481 310.67 98.5842 310.726 98.6297 310.774C98.7461 310.896 110.444 323.524 110.609 347.167C110.774 370.811 105.652 385.703 105.594 385.846C105.551 385.973 105.557 386.113 105.611 386.235C105.666 386.358 105.764 386.452 105.885 386.498C105.939 386.516 105.994 386.523 106.05 386.519Z" fill="white"/>
<path d="M106.7 385.703L88.1346 396.923C86.2001 398.125 83.9057 398.517 81.7088 398.02C79.512 397.523 77.574 396.173 76.2812 394.24C75.0523 392.229 74.5339 389.829 74.8165 387.457C75.7089 377.318 79.8993 374.983 74.768 370.464C69.6367 365.945 68.2981 365.629 68.5891 361.284C68.8801 356.939 71.7028 355.042 73.0414 353.328C74.38 351.614 78.0854 348.024 75.5634 342.72C73.0414 337.416 69.5979 332.285 74.8165 329.939C77.9302 328.532 83.1197 330.409 86.5341 334.305C89.9485 338.201 92.7615 341.006 96.0304 341.945C99.2993 342.883 106.109 343.036 105.818 348.962C105.527 354.889 104.033 356.918 105.371 359.56C107.893 364.497 118.864 367.302 106.7 385.703Z" fill="#5BA3D4"/>
<path d="M97.5246 391.741C97.6455 391.737 97.761 391.688 97.85 391.601C97.9391 391.515 97.9957 391.398 98.0096 391.272C98.0096 390.925 100.861 355.919 77.9694 332.622C77.875 332.54 77.7546 332.499 77.6324 332.506C77.5102 332.514 77.3952 332.57 77.3105 332.663C77.2258 332.755 77.1777 332.879 77.1758 333.007C77.1738 333.136 77.2182 333.261 77.3001 333.356C99.8623 356.317 97.0687 390.833 97.0396 391.18C97.0288 391.314 97.0685 391.447 97.1502 391.55C97.232 391.653 97.349 391.718 97.4761 391.731L97.5246 391.741Z" fill="white"/>
<path d="M93.848 361.61C93.9701 361.611 94.088 361.563 94.1779 361.476C94.2678 361.389 94.3232 361.269 94.333 361.141C94.5361 358.428 95.2627 355.787 96.4684 353.38C97.6742 350.972 99.3338 348.848 101.346 347.137C101.399 347.098 101.443 347.049 101.477 346.992C101.512 346.935 101.535 346.871 101.546 346.805C101.557 346.739 101.555 346.671 101.54 346.605C101.526 346.539 101.5 346.477 101.462 346.423C101.427 346.368 101.381 346.321 101.327 346.285C101.274 346.249 101.215 346.225 101.152 346.213C101.09 346.202 101.026 346.204 100.964 346.219C100.903 346.234 100.845 346.261 100.793 346.3C98.6488 348.088 96.8811 350.325 95.6021 352.87C94.323 355.414 93.5605 358.21 93.363 361.08C93.3522 361.216 93.393 361.352 93.4765 361.457C93.56 361.562 93.6795 361.628 93.8091 361.641L93.848 361.61Z" fill="white"/>
<path d="M95.4285 367.618C95.5458 367.619 95.6595 367.576 95.7486 367.496C95.8448 367.406 95.9038 367.279 95.9128 367.144C95.9219 367.009 95.8804 366.875 95.7971 366.772C95.5643 366.486 89.8316 359.836 76.3971 361.6C76.2698 361.618 76.1545 361.688 76.0763 361.795C75.9981 361.902 75.9634 362.038 75.98 362.171C75.997 362.306 76.0633 362.428 76.1647 362.512C76.2662 362.596 76.3949 362.635 76.5232 362.62C89.4242 360.917 95.0211 367.384 95.0793 367.445C95.1234 367.497 95.1772 367.539 95.2371 367.569C95.2971 367.599 95.3622 367.615 95.4285 367.618Z" fill="white"/>
<path d="M167.306 446.536L292.785 370.352C301.641 364.976 308.819 350.554 308.819 338.14V55.6002C308.819 43.1868 301.641 37.485 292.785 42.8604L167.306 119.044C158.45 124.42 151.272 138.842 151.272 151.256V433.796C151.272 446.199 158.45 451.911 167.306 446.536Z" fill="#455A64"/>
<path d="M152.853 110.16L278.342 33.9762C282.125 31.6812 285.598 31.416 288.343 32.8236C288.679 33.0006 289.003 33.2016 289.313 33.4254L303.378 42.024C300.546 40.239 296.84 40.3716 292.776 42.84L167.297 119.024C158.441 124.399 151.263 138.822 151.263 151.235V433.775C151.263 440.344 153.27 444.995 156.471 447.199L142.591 438.702C139.05 436.723 136.771 431.878 136.771 424.932V142.392C136.771 129.958 143.997 115.535 152.853 110.16Z" fill="#37474F"/>
<path d="M151.272 151.235V433.775C151.272 440.344 153.279 444.995 156.48 447.199L142.59 438.702C139.05 436.723 136.77 431.878 136.77 424.932V142.392L151.223 151.215L151.272 151.235Z" fill="#263238"/>
<path d="M136.818 164.312L151.271 173.084V179.938L136.818 171.156V164.312Z" fill="#37474F"/>
<path d="M143.154 209.896C144.444 210.681 145.491 209.845 145.491 208.039V193.3C145.478 192.379 145.26 191.474 144.854 190.657C144.448 189.84 143.866 189.135 143.154 188.598C141.863 187.813 140.816 188.598 140.816 190.454V205.193C140.829 206.115 141.047 207.02 141.453 207.837C141.859 208.653 142.442 209.358 143.154 209.896Z" fill="#37474F"/>
<path d="M145.5 208.08V193.3C145.487 192.379 145.269 191.474 144.863 190.657C144.457 189.84 143.874 189.135 143.162 188.598C142.95 188.441 142.702 188.346 142.443 188.321C142.185 188.296 141.924 188.342 141.688 188.455L143.444 187.507C143.684 187.385 143.95 187.332 144.216 187.354C144.482 187.375 144.737 187.47 144.957 187.629C145.67 188.166 146.253 188.871 146.661 189.688C147.068 190.504 147.289 191.409 147.304 192.331V207.06C147.341 207.432 147.287 207.808 147.148 208.152C147.009 208.496 146.789 208.798 146.509 209.029L144.676 210.049C144.968 209.828 145.198 209.528 145.343 209.182C145.488 208.836 145.542 208.456 145.5 208.08Z" fill="#455A64"/>
<path d="M143.154 245.565C144.444 246.35 145.491 245.565 145.491 243.709V228.97C145.477 228.048 145.259 227.143 144.853 226.327C144.447 225.51 143.865 224.805 143.154 224.267C141.863 223.482 140.816 224.267 140.816 226.134V240.863C140.827 241.784 141.045 242.69 141.451 243.507C141.857 244.324 142.44 245.029 143.154 245.565Z" fill="#37474F"/>
<path d="M145.501 243.709V228.97C145.487 228.048 145.268 227.143 144.862 226.327C144.456 225.51 143.874 224.805 143.163 224.267C142.949 224.114 142.701 224.02 142.443 223.995C142.185 223.97 141.926 224.015 141.689 224.125L143.444 223.166C143.683 223.039 143.95 222.983 144.217 223.005C144.484 223.026 144.74 223.124 144.957 223.288C145.672 223.824 146.256 224.528 146.664 225.345C147.072 226.162 147.291 227.068 147.305 227.99V242.76C147.342 243.132 147.289 243.508 147.15 243.853C147.01 244.197 146.79 244.498 146.509 244.729L144.676 245.749C144.98 245.522 145.218 245.212 145.363 244.851C145.509 244.491 145.557 244.096 145.501 243.709Z" fill="#455A64"/>
<path d="M171.69 126.97L294.996 52.0812C295.511 51.7699 296.094 51.6055 296.688 51.6043C297.282 51.6032 297.865 51.7653 298.381 52.0746C298.897 52.3839 299.327 52.8296 299.628 53.3676C299.929 53.9055 300.091 54.5169 300.099 55.1412V338.14C300.099 347.585 293.726 359.183 285.946 363.905L165.666 436.968C165.096 437.313 164.449 437.494 163.791 437.494C163.133 437.493 162.487 437.311 161.917 436.965C161.347 436.619 160.873 436.121 160.544 435.522C160.215 434.923 160.041 434.243 160.04 433.551V148.216C159.992 140.423 165.249 130.866 171.69 126.97Z" fill="#5BA3D4"/>
<path opacity="0.9" d="M171.69 126.97L294.996 52.0812C295.511 51.7699 296.094 51.6055 296.688 51.6043C297.282 51.6032 297.865 51.7653 298.381 52.0746C298.897 52.3839 299.327 52.8296 299.628 53.3676C299.929 53.9055 300.091 54.5169 300.099 55.1412V338.14C300.099 347.585 293.726 359.183 285.946 363.905L165.666 436.968C165.096 437.313 164.449 437.494 163.791 437.494C163.133 437.493 162.487 437.311 161.917 436.965C161.347 436.619 160.873 436.121 160.544 435.522C160.215 434.923 160.041 434.243 160.04 433.551V148.216C159.992 140.423 165.249 130.866 171.69 126.97Z" fill="white"/>
<path d="M258.117 71.6346L256.206 80.0904L215.33 104.876L208.269 100.919L258.117 71.6346Z" fill="#455A64"/>
<path d="M246.099 79.8048C246.099 81.2124 247.069 81.7734 248.195 81.0798C248.799 80.6581 249.3 80.0933 249.659 79.4308C250.018 78.7682 250.224 78.0265 250.261 77.265C250.261 75.8676 249.291 75.2964 248.166 76.0002C247.562 76.4197 247.06 76.9826 246.701 77.6435C246.342 78.3044 246.136 79.0447 246.099 79.8048Z" fill="#263238"/>
<path d="M218.561 97.7058C218.784 97.7039 219.004 97.6444 219.201 97.5324L240.075 85.2924C240.37 85.1104 240.585 84.8144 240.675 84.4677C240.765 84.121 240.723 83.751 240.557 83.4367C240.391 83.1225 240.115 82.8889 239.788 82.7858C239.46 82.6828 239.107 82.7184 238.805 82.8852L217.921 95.1252C217.667 95.2736 217.467 95.5065 217.353 95.7873C217.238 96.0681 217.216 96.3809 217.29 96.6764C217.363 96.9719 217.528 97.2334 217.758 97.4198C217.988 97.6061 218.27 97.7067 218.561 97.7058Z" fill="#263238"/>
<path d="M291.882 174.359C287.947 169.276 285.966 162.826 286.33 156.283C286.694 149.739 289.378 143.577 293.85 139.011C298.323 134.446 304.261 131.809 310.492 131.621C316.723 131.433 322.794 133.707 327.509 137.996C332.223 142.284 335.238 148.274 335.959 154.785C336.679 161.296 335.053 167.854 331.401 173.166C327.749 178.478 322.336 182.158 316.231 183.48C310.125 184.801 303.771 183.669 298.42 180.305L286.276 185.854L291.882 174.359Z" fill="#5BA3D4"/>
<path opacity="0.4" d="M291.882 174.359C287.947 169.276 285.966 162.826 286.33 156.283C286.694 149.739 289.378 143.577 293.85 139.011C298.323 134.446 304.261 131.809 310.492 131.621C316.723 131.433 322.794 133.707 327.509 137.996C332.223 142.284 335.238 148.274 335.959 154.785C336.679 161.296 335.053 167.854 331.401 173.166C327.749 178.478 322.336 182.158 316.231 183.48C310.125 184.801 303.771 183.669 298.42 180.305L286.276 185.854L291.882 174.359Z" fill="black"/>
<path d="M178.053 253.531V380.266C178.051 381.7 178.408 383.108 179.089 384.35C179.769 385.593 180.748 386.624 181.928 387.342C183.108 388.06 184.447 388.438 185.81 388.438C187.173 388.439 188.513 388.062 189.693 387.345L254.606 347.932L266.11 340.955C270.071 338.547 273.362 335.087 275.653 330.922C277.944 326.757 279.156 322.032 279.166 317.22V190.475C279.168 189.041 278.811 187.633 278.131 186.391C277.45 185.148 276.471 184.117 275.291 183.399C274.111 182.681 272.772 182.303 271.409 182.303C270.046 182.302 268.707 182.679 267.526 183.396L191.09 229.796C187.127 232.201 183.836 235.66 181.547 239.827C179.259 243.993 178.054 248.72 178.053 253.531Z" fill="#5BA3D4"/>
<path opacity="0.5" d="M178.053 253.531V380.266C178.051 381.7 178.408 383.108 179.089 384.35C179.769 385.593 180.748 386.624 181.928 387.342C183.108 388.06 184.447 388.438 185.81 388.438C187.173 388.439 188.513 388.062 189.693 387.345L254.606 347.932L266.11 340.955C270.071 338.547 273.362 335.087 275.653 330.922C277.944 326.757 279.156 322.032 279.166 317.22V190.475C279.168 189.041 278.811 187.633 278.131 186.391C277.45 185.148 276.471 184.117 275.291 183.399C274.111 182.681 272.772 182.303 271.409 182.303C270.046 182.302 268.707 182.679 267.526 183.396L191.09 229.796C187.127 232.201 183.836 235.66 181.547 239.827C179.259 243.993 178.054 248.72 178.053 253.531Z" fill="white"/>
<path d="M215.447 328.522C215.447 328.522 203.293 349.717 212.071 373.616L254.635 347.932L215.447 328.522Z" fill="#263238"/>
<path d="M196.063 233.292C195.143 225.436 200.453 218.284 207.924 217.317C215.394 216.349 222.196 221.933 223.116 229.789C224.036 237.644 218.725 244.796 211.255 245.764C203.785 246.731 196.983 241.147 196.063 233.292Z" fill="#263238"/>
<path d="M209.52 191.342C209.52 191.342 205.339 184.202 204.058 184.722C202.778 185.242 204.893 192.046 204.893 192.046C204.893 192.046 198.568 193.433 199.742 195.106C200.916 196.778 208.647 196.381 208.647 196.381L209.52 191.342Z" fill="#263238"/>
<path d="M206.61 209.743C209.52 232.733 227.95 232.733 227.95 232.733L266.556 214.863C266.556 214.863 269.466 212.18 270.358 206.02C270.701 203.496 270.701 200.934 270.358 198.41C270.358 198.41 270.358 198.359 270.358 198.339C269.127 188.669 262.249 178.276 247.272 175.083C243.99 174.386 240.649 174.044 237.301 174.063C235.681 174.057 234.062 174.142 232.451 174.318C220.811 175.522 212.653 181.234 208.763 190.118C207.889 192.123 207.238 194.228 206.823 196.391C206.034 200.797 205.962 205.311 206.61 209.743Z" fill="#263238"/>
<path d="M299.293 254.215C299.293 254.215 313 253.715 318.276 267.76C318.276 267.76 312.456 271.891 304.822 267.76C297.189 263.629 299.293 254.215 299.293 254.215Z" fill="#5BA3D4"/>
<path opacity="0.5" d="M299.293 254.215C299.293 254.215 313 253.715 318.276 267.76C318.276 267.76 312.456 271.891 304.822 267.76C297.189 263.629 299.293 254.215 299.293 254.215Z" fill="black"/>
<path d="M299.681 260.977C299.681 260.977 303.561 243.25 305.608 243.035C307.655 242.821 308.052 248.441 307.887 251.614L312.737 240.638C312.891 240.297 313.11 239.993 313.38 239.744C313.65 239.496 313.965 239.307 314.307 239.192C314.649 239.076 315.009 239.035 315.367 239.072C315.724 239.108 316.07 239.222 316.385 239.404C321.235 242.209 329.742 250.736 311.806 271.82L299.681 260.977Z" fill="#FFA9A9"/>
<path d="M250.017 248.717L252.927 248.319C255.859 247.91 258.843 248.33 261.57 249.534C264.298 250.739 266.671 252.685 268.447 255.173L285.761 279.409L299.341 254.215C299.341 254.215 300.971 271.351 318.324 267.76L299.691 300.737C298.511 302.824 296.87 304.582 294.906 305.859C292.942 307.136 290.714 307.896 288.411 308.073C286.108 308.25 283.798 307.84 281.679 306.877C279.559 305.914 277.692 304.427 276.236 302.542L260.289 281.928L250.017 248.717Z" fill="#5BA3D4"/>
<path d="M213.061 305.276C216.941 315.619 217.367 317.638 215.001 322.81C213.352 326.629 212.053 330.604 211.121 334.682C211.121 334.682 229.104 355.878 254.703 347.942L266.207 340.966C268.599 339.515 270.754 337.669 272.59 335.498L269.088 308.04C268.912 306.595 269.051 305.126 269.495 303.746L273.172 292.414C274.966 286.879 275.233 280.923 273.942 275.235C272.651 269.547 269.855 264.36 265.877 260.273L253.519 247.574L221.063 251.94L216.213 253.399C213.038 254.364 210.301 256.502 208.505 259.42C206.708 262.337 205.974 265.838 206.436 269.28C208.026 281.316 210.626 298.778 213.061 305.276Z" fill="#5BA3D4"/>
<path opacity="0.5" d="M213.061 305.276C216.941 315.619 217.367 317.638 215.001 322.81C213.352 326.629 212.053 330.604 211.121 334.682C211.121 334.682 229.104 355.878 254.703 347.942L266.207 340.966C268.599 339.515 270.754 337.669 272.59 335.498L269.088 308.04C268.912 306.595 269.051 305.126 269.495 303.746L273.172 292.414C274.966 286.879 275.233 280.923 273.942 275.235C272.651 269.547 269.855 264.36 265.877 260.273L253.519 247.574L221.063 251.94L216.213 253.399C213.038 254.364 210.301 256.502 208.505 259.42C206.708 262.337 205.974 265.838 206.436 269.28C208.026 281.316 210.626 298.778 213.061 305.276Z" fill="black"/>
<path d="M232.634 274.38L239.133 268.556C239.822 267.937 240.652 267.517 241.541 267.338C242.431 267.159 243.35 267.227 244.207 267.536L252.064 270.382L253.121 265.751C253.286 265.03 253.588 264.352 254.009 263.758C254.43 263.164 254.961 262.665 255.57 262.293C256.179 261.92 256.854 261.681 257.553 261.59C258.252 261.499 258.962 261.557 259.639 261.763L263.044 262.783L257.282 251.175C255.401 247.395 252.503 244.28 248.95 242.219L246.69 240.914L228.017 241.934C228.017 241.934 221.062 244.994 221.062 251.879L232.634 274.319" fill="#5BA3D4"/>
<path d="M227.94 250.634L246.661 265.975V217.127H227.94V250.634Z" fill="#FFA9A9"/>
<path d="M246.37 246.605L252.063 270.422L228.017 250.634L246.37 246.605Z" fill="#FFA9A9"/>
<path d="M246.661 243.066C242.498 241.441 238.693 238.942 235.477 235.723C232.26 232.504 229.699 228.631 227.95 224.339V217.127H246.671L246.661 243.066Z" fill="#FF6767"/>
<path d="M242.626 180.928C249.726 180.928 264.82 185.089 266.566 204.632C268.312 224.176 266.624 239.312 257.04 240.781C247.457 242.25 225.185 234.937 222.198 209.641C219.21 184.345 235.71 180.928 242.626 180.928Z" fill="#FFA9A9"/>
<path d="M253.8 212.905V224.42L260.222 222.35L253.8 212.905Z" fill="#FF6767"/>
<path d="M246.661 217.24C245.428 217.24 244.43 216.189 244.43 214.894C244.43 213.598 245.428 212.548 246.661 212.548C247.893 212.548 248.892 213.598 248.892 214.894C248.892 216.189 247.893 217.24 246.661 217.24Z" fill="#263238"/>
<path d="M259.116 213.262C259.118 213.725 259.251 214.178 259.497 214.562C259.743 214.947 260.092 215.246 260.5 215.422C260.908 215.598 261.356 215.643 261.788 215.551C262.22 215.459 262.617 215.235 262.928 214.907C263.239 214.578 263.451 214.16 263.536 213.705C263.621 213.251 263.577 212.779 263.407 212.351C263.238 211.923 262.952 211.557 262.586 211.3C262.219 211.043 261.788 210.905 261.347 210.905C261.053 210.905 260.762 210.966 260.491 211.085C260.22 211.204 259.973 211.377 259.766 211.596C259.559 211.815 259.395 212.075 259.283 212.361C259.172 212.647 259.115 212.953 259.116 213.262Z" fill="#263238"/>
<path d="M264.073 208.366L259.708 205.642C259.708 205.642 261.376 203.816 263.044 204.908C264.713 205.999 264.073 208.366 264.073 208.366Z" fill="#263238"/>
<path d="M256.817 229.092C254.692 229.255 252.576 228.659 250.813 227.399C250.813 227.399 250.396 230.734 253.054 231.367C255.712 231.999 256.817 229.092 256.817 229.092Z" fill="#FF6767"/>
<path d="M260.629 187.578C260.629 187.578 257.961 214.557 223.071 215.404C223.071 215.404 212.527 188.588 233.362 179.877C254.198 171.166 260.629 187.578 260.629 187.578Z" fill="#263238"/>
<path d="M212.799 211.364L217.086 208.753C218.716 207.733 220.966 207.876 223.459 209.386C228.406 212.384 232.422 219.698 232.422 225.706C232.422 228.715 231.452 230.806 229.784 231.826L225.574 234.376L225.331 234.518L225.186 234.61C223.595 235.426 221.471 235.232 219.133 233.815C214.186 230.755 210.17 223.502 210.17 217.495C210.199 214.455 211.198 212.354 212.799 211.364Z" fill="#5BA3D4"/>
<path d="M212.832 226.728C209.334 220.356 209.334 213.47 212.832 211.346C216.33 209.222 222.002 212.665 225.5 219.037C228.998 225.408 228.998 232.295 225.5 234.419C222.002 236.543 216.33 233.099 212.832 226.728Z" fill="#5BA3D4"/>
<path opacity="0.5" d="M212.832 226.728C209.334 220.356 209.334 213.47 212.832 211.346C216.33 209.222 222.002 212.665 225.5 219.037C228.998 225.408 228.998 232.295 225.5 234.419C222.002 236.543 216.33 233.099 212.832 226.728Z" fill="black"/>
<path d="M211.082 217.025L213.992 215.24C215.098 214.547 216.64 214.639 218.347 215.669C220.13 216.894 221.615 218.544 222.68 220.484C223.745 222.424 224.36 224.601 224.478 226.838C224.478 228.878 223.789 230.336 222.673 231.01L219.763 232.754C219.712 232.793 219.656 232.828 219.598 232.856L219.501 232.917C218.819 233.189 218.084 233.281 217.36 233.185C216.637 233.089 215.946 232.808 215.35 232.366C213.568 231.142 212.084 229.494 211.019 227.555C209.955 225.617 209.338 223.442 209.219 221.207C209.297 219.137 209.976 217.699 211.082 217.025Z" fill="#5BA3D4"/>
<path d="M209.297 221.187C209.415 223.422 210.032 225.597 211.097 227.535C212.162 229.473 213.645 231.121 215.427 232.346C218.822 234.386 221.567 232.733 221.567 228.623C221.452 226.386 220.836 224.209 219.769 222.27C218.702 220.33 217.214 218.684 215.427 217.464C212.042 215.404 209.297 217.066 209.297 221.187Z" fill="#5BA3D4"/>
<path opacity="0.3" d="M209.297 221.187C209.415 223.422 210.032 225.597 211.097 227.535C212.162 229.473 213.645 231.121 215.427 232.346C218.822 234.386 221.567 232.733 221.567 228.623C221.452 226.386 220.836 224.209 219.769 222.27C218.702 220.33 217.214 218.684 215.427 217.464C212.042 215.404 209.297 217.066 209.297 221.187Z" fill="black"/>
<path d="M226.117 175.664C228.898 173.406 232.303 172.163 235.817 172.125H236.68C240.238 172.085 243.79 172.426 247.282 173.145C246.642 173.145 246.002 173.145 245.342 173.145H247.282V175.042H245.478C239.26 175.265 233.368 178.021 229.047 182.728C224.726 187.435 222.316 193.725 222.324 200.267V208.294C222.324 208.612 222.261 208.925 222.139 209.215C222.016 209.505 221.837 209.765 221.613 209.978C221.389 210.19 221.125 210.351 220.838 210.449C220.551 210.547 220.248 210.581 219.948 210.548H219.725L217.785 209.916C217.914 209.959 218.047 209.986 218.182 209.998C217.604 209.915 217.075 209.612 216.695 209.145C216.316 208.679 216.113 208.082 216.126 207.468V200.022C216.145 186.548 221.684 179.306 226.117 175.664Z" fill="#5BA3D4"/>
<path d="M238.329 240.22C239.129 240.22 239.92 240.039 240.647 239.69L246.71 236.742C246.805 236.706 246.891 236.65 246.965 236.578C247.038 236.505 247.096 236.417 247.135 236.319C247.174 236.222 247.194 236.117 247.192 236.011C247.191 235.905 247.169 235.801 247.127 235.704C247.085 235.608 247.025 235.522 246.95 235.451C246.875 235.381 246.786 235.327 246.691 235.294C246.595 235.262 246.494 235.25 246.393 235.26C246.293 235.271 246.196 235.303 246.108 235.355L240.046 238.303C239.273 238.681 238.407 238.796 237.568 238.631C236.73 238.466 235.962 238.031 235.37 237.385L229.55 231.061C229.414 230.917 229.229 230.837 229.036 230.837C228.844 230.837 228.659 230.917 228.522 231.061C228.388 231.205 228.313 231.399 228.313 231.601C228.313 231.803 228.388 231.997 228.522 232.142L234.342 238.466C234.86 239.025 235.481 239.469 236.166 239.77C236.851 240.072 237.586 240.225 238.329 240.22Z" fill="#5BA3D4"/>
<path opacity="0.5" d="M238.329 240.22C239.129 240.22 239.92 240.039 240.647 239.69L246.71 236.742C246.805 236.706 246.891 236.65 246.965 236.578C247.038 236.505 247.096 236.417 247.135 236.319C247.174 236.222 247.194 236.117 247.192 236.011C247.191 235.905 247.169 235.801 247.127 235.704C247.085 235.608 247.025 235.522 246.95 235.451C246.875 235.381 246.786 235.327 246.691 235.294C246.595 235.262 246.494 235.25 246.393 235.26C246.293 235.271 246.196 235.303 246.108 235.355L240.046 238.303C239.273 238.681 238.407 238.796 237.568 238.631C236.73 238.466 235.962 238.031 235.37 237.385L229.55 231.061C229.414 230.917 229.229 230.837 229.036 230.837C228.844 230.837 228.659 230.917 228.522 231.061C228.388 231.205 228.313 231.399 228.313 231.601C228.313 231.803 228.388 231.997 228.522 232.142L234.342 238.466C234.86 239.025 235.481 239.469 236.166 239.77C236.851 240.072 237.586 240.225 238.329 240.22Z" fill="black"/>
<path d="M245.118 234.6C245.118 235.189 245.285 235.765 245.596 236.255C245.907 236.745 246.349 237.126 246.867 237.352C247.384 237.577 247.954 237.636 248.503 237.521C249.053 237.406 249.557 237.123 249.954 236.706C250.35 236.29 250.619 235.759 250.729 235.181C250.838 234.603 250.782 234.004 250.568 233.46C250.353 232.916 249.99 232.451 249.524 232.124C249.059 231.796 248.511 231.622 247.951 231.622C247.2 231.622 246.479 231.935 245.948 232.494C245.417 233.053 245.118 233.81 245.118 234.6Z" fill="#5BA3D4"/>
<path opacity="0.5" d="M245.118 234.6C245.118 235.189 245.285 235.765 245.596 236.255C245.907 236.745 246.349 237.126 246.867 237.352C247.384 237.577 247.954 237.636 248.503 237.521C249.053 237.406 249.557 237.123 249.954 236.706C250.35 236.29 250.619 235.759 250.729 235.181C250.838 234.603 250.782 234.004 250.568 233.46C250.353 232.916 249.99 232.451 249.524 232.124C249.059 231.796 248.511 231.622 247.951 231.622C247.2 231.622 246.479 231.935 245.948 232.494C245.417 233.053 245.118 233.81 245.118 234.6Z" fill="black"/>
<path d="M216.145 200.022V207.468C216.133 208.082 216.335 208.679 216.715 209.145C217.094 209.612 217.623 209.915 218.202 209.998C218.521 210.033 218.844 209.998 219.15 209.894C219.456 209.79 219.737 209.619 219.976 209.393C220.215 209.167 220.405 208.89 220.536 208.582C220.666 208.273 220.734 207.939 220.733 207.601V200.022C220.728 196.405 221.418 192.824 222.763 189.495C224.108 186.166 226.079 183.158 228.559 180.65C231.038 178.143 233.974 176.19 237.19 174.907C240.406 173.624 243.836 173.039 247.272 173.186C243.781 172.467 240.228 172.126 236.67 172.166H235.826C232.313 172.204 228.907 173.447 226.126 175.705C221.684 179.306 216.145 186.548 216.145 200.022Z" fill="#5BA3D4"/>
<path opacity="0.5" d="M216.145 200.022V207.468C216.133 208.082 216.335 208.679 216.715 209.145C217.094 209.612 217.623 209.915 218.202 209.998C218.521 210.033 218.844 209.998 219.15 209.894C219.456 209.79 219.737 209.619 219.976 209.393C220.215 209.167 220.405 208.89 220.536 208.582C220.666 208.273 220.734 207.939 220.733 207.601V200.022C220.728 196.405 221.418 192.824 222.763 189.495C224.108 186.166 226.079 183.158 228.559 180.65C231.038 178.143 233.974 176.19 237.19 174.907C240.406 173.624 243.836 173.039 247.272 173.186C243.781 172.467 240.228 172.126 236.67 172.166H235.826C232.313 172.204 228.907 173.447 226.126 175.705C221.684 179.306 216.145 186.548 216.145 200.022Z" fill="black"/>
<path d="M227.048 340.343C227.048 340.343 231.743 353.94 214.962 360.06C214.962 360.06 209.481 351.594 214.962 344.668C220.442 337.742 227.048 340.343 227.048 340.343Z" fill="#5BA3D4"/>
<path opacity="0.7" d="M227.048 340.343C227.048 340.343 231.743 353.94 214.962 360.06C214.962 360.06 209.481 351.594 214.962 344.668C220.442 337.742 227.048 340.343 227.048 340.343Z" fill="black"/>
<path d="M221.16 340.966C221.16 340.966 237.553 347.279 237.465 349.727C237.378 352.175 230.501 350.503 230.501 350.503L233.013 352.237C235.659 354.052 237.708 356.68 238.881 359.764C239.137 360.444 239.146 361.2 238.907 361.886C238.667 362.573 238.195 363.143 237.582 363.487L231.354 366.955C231.003 367.151 230.617 367.271 230.221 367.308C229.824 367.345 229.424 367.298 229.046 367.169C228.667 367.041 228.316 366.834 228.014 366.561C227.713 366.288 227.467 365.953 227.29 365.578C226.943 364.857 226.463 364.215 225.879 363.69C225.294 363.165 224.617 362.767 223.885 362.518C220.5 361.335 214.185 357.928 211.654 348.605L221.16 340.966Z" fill="#FFA9A9"/>
<path d="M216.242 253.378C216.242 253.378 224.972 258.478 220.335 273.962C215.699 289.445 206.998 313.466 206.998 313.466L227.048 340.343C224.906 340.615 222.842 341.359 220.992 342.526C219.142 343.693 217.546 345.257 216.31 347.116C215.126 349.007 214.386 351.167 214.151 353.417C213.917 355.668 214.194 357.945 214.962 360.06L190.071 326.4C187.77 323.289 186.241 319.625 185.625 315.737C185.008 311.849 185.323 307.861 186.541 304.133L197.211 271.371C198.515 267.369 200.682 263.739 203.543 260.764C206.404 257.789 209.88 255.551 213.701 254.225L216.242 253.378Z" fill="#5BA3D4"/>
<path d="M363.605 161.915L402.182 138.455C402.626 138.131 403.139 137.929 403.676 137.867C404.213 137.804 404.756 137.884 405.257 138.098C405.362 138.149 405.463 138.21 405.557 138.281L413.948 143.453H413.89C414.947 144.085 415.616 145.554 415.616 147.655V192.78C415.616 196.595 413.414 201.032 410.689 202.684L372.112 226.144C371.622 226.516 371.04 226.729 370.436 226.757C369.833 226.784 369.235 226.624 368.717 226.297C368.743 226.308 368.766 226.326 368.785 226.348L360.452 221.248C359.366 220.636 358.677 219.147 358.677 217.015V171.819C358.677 168.004 360.84 163.567 363.605 161.915Z" fill="#5BA3D4"/>
<path d="M360.055 166.189C360.836 164.443 362.065 162.963 363.605 161.915L402.182 138.455C402.626 138.131 403.14 137.929 403.677 137.867C404.213 137.804 404.757 137.884 405.257 138.098C405.363 138.149 405.463 138.21 405.558 138.281L413.948 143.453C413.435 143.177 412.859 143.055 412.285 143.1C411.71 143.145 411.158 143.355 410.689 143.708L372.112 167.168C370.52 168.262 369.258 169.812 368.475 171.635L360.055 166.189Z" fill="#5BA3D4"/>
<path d="M367.184 222.176C367.184 224.216 367.804 225.634 368.784 226.256L360.452 221.156C359.365 220.544 358.677 219.055 358.677 216.923V171.819C358.718 169.856 359.189 167.929 360.054 166.189L368.474 171.635C367.665 173.324 367.225 175.182 367.184 177.072V222.176Z" fill="#5BA3D4"/>
<path opacity="0.3" d="M360.055 166.189C360.836 164.443 362.065 162.963 363.605 161.915L402.182 138.455C402.626 138.131 403.14 137.929 403.677 137.867C404.213 137.804 404.757 137.884 405.257 138.098C405.363 138.149 405.463 138.21 405.558 138.281L413.948 143.453C413.435 143.177 412.859 143.055 412.285 143.1C411.71 143.145 411.158 143.355 410.689 143.708L372.112 167.168C370.52 168.262 369.258 169.812 368.475 171.635L360.055 166.189Z" fill="black"/>
<path opacity="0.6" d="M367.184 222.176C367.184 224.216 367.804 225.634 368.784 226.256L360.452 221.156C359.365 220.544 358.677 219.055 358.677 216.923V171.819C358.718 169.856 359.189 167.929 360.054 166.189L368.474 171.635C367.665 173.324 367.225 175.182 367.184 177.072V222.176Z" fill="black"/>
<path d="M378.494 189.995C378.494 195.84 380.696 197.829 383.994 195.82C384.904 195.275 385.699 194.542 386.333 193.666C386.966 192.789 387.425 191.787 387.68 190.72C388.65 191.974 390.154 192.056 392.268 190.771C395.741 188.659 398.476 183.631 398.476 178.745C398.476 173.859 395.77 172.176 392.268 174.298C390.491 175.399 389.056 177.018 388.136 178.959V177.031L384.479 179.255V189.822C384.534 190.378 384.442 190.939 384.215 191.445C383.987 191.95 383.633 192.38 383.189 192.688C381.957 193.443 381.201 192.168 381.201 188.384C381.201 181.764 385.236 174.746 391.201 171.125C397.167 167.504 401.192 170.024 401.192 176.837C401.114 180.453 400.167 183.989 398.438 187.115C396.71 190.242 394.257 192.857 391.308 194.718C389.707 195.755 387.888 196.365 386.012 196.493L385.148 200.012C387.334 199.826 389.445 199.096 391.308 197.88C399.068 193.157 404.199 183.651 404.199 175.042C404.199 166.433 399.019 163.312 391.201 168.065C383.645 172.645 378.494 181.815 378.494 189.995ZM388.078 185.089C388.059 183.796 388.359 182.519 388.949 181.384C389.539 180.249 390.398 179.294 391.444 178.612C393.384 177.419 394.771 178.255 394.771 181.03C394.796 182.325 394.503 183.606 393.92 184.747C393.337 185.889 392.484 186.853 391.444 187.547C389.504 188.7 388.078 187.955 388.078 185.089Z" fill="#5BA3D4"/>
<g opacity="0.9">
<path d="M378.494 189.995C378.494 195.84 380.696 197.829 383.994 195.82C384.904 195.275 385.699 194.542 386.333 193.666C386.966 192.789 387.425 191.787 387.68 190.72C388.65 191.974 390.154 192.056 392.268 190.771C395.741 188.659 398.476 183.631 398.476 178.745C398.476 173.859 395.77 172.176 392.268 174.298C390.491 175.399 389.056 177.018 388.136 178.959V177.031L384.479 179.255V189.822C384.534 190.378 384.442 190.939 384.215 191.445C383.987 191.95 383.633 192.38 383.189 192.688C381.957 193.443 381.201 192.168 381.201 188.384C381.201 181.764 385.236 174.746 391.201 171.125C397.167 167.504 401.192 170.024 401.192 176.837C401.114 180.453 400.167 183.989 398.438 187.115C396.71 190.242 394.257 192.857 391.308 194.718C389.707 195.755 387.888 196.365 386.012 196.493L385.148 200.012C387.334 199.826 389.445 199.096 391.308 197.88C399.068 193.157 404.199 183.651 404.199 175.042C404.199 166.433 399.019 163.312 391.201 168.065C383.645 172.645 378.494 181.815 378.494 189.995ZM388.078 185.089C388.059 183.796 388.359 182.519 388.949 181.384C389.539 180.249 390.398 179.294 391.444 178.612C393.384 177.419 394.771 178.255 394.771 181.03C394.796 182.325 394.503 183.606 393.92 184.747C393.337 185.889 392.484 186.853 391.444 187.547C389.504 188.7 388.078 187.955 388.078 185.089Z" fill="white"/>
</g>
<path d="M363.605 242.27L402.182 218.81C402.625 218.485 403.139 218.283 403.677 218.222C404.214 218.161 404.758 218.245 405.257 218.464C405.362 218.515 405.463 218.576 405.557 218.647L413.948 223.819H413.89C414.947 224.451 415.616 225.92 415.616 228.011V273.115C415.616 276.94 413.414 281.367 410.689 283.019L372.112 306.479C371.623 306.854 371.04 307.069 370.436 307.096C369.832 307.123 369.234 306.962 368.717 306.632L368.785 306.694L360.452 301.543C359.366 300.941 358.677 299.503 358.677 297.31V252.164C358.677 248.35 360.84 243.923 363.605 242.27Z" fill="#5BA3D4"/>
<path d="M360.055 246.544C360.833 244.797 362.063 243.316 363.605 242.27L402.182 218.81C402.625 218.485 403.14 218.283 403.677 218.222C404.215 218.161 404.758 218.245 405.257 218.464C405.363 218.515 405.463 218.576 405.558 218.647L413.948 223.819C413.436 223.54 412.861 223.416 412.286 223.459C411.711 223.502 411.158 223.711 410.689 224.063L372.112 247.523C370.517 248.62 369.255 250.174 368.475 252.001L360.055 246.544Z" fill="#5BA3D4"/>
<path d="M367.184 302.522C367.184 304.562 367.804 305.98 368.784 306.653L360.452 301.502C359.365 300.9 358.677 299.462 358.677 297.269V252.164C358.718 250.204 359.189 248.281 360.054 246.544L368.474 251.991C367.666 253.676 367.225 255.53 367.184 257.417V302.522Z" fill="#5BA3D4"/>
<path opacity="0.3" d="M360.055 246.544C360.833 244.797 362.063 243.316 363.605 242.27L402.182 218.81C402.625 218.485 403.14 218.283 403.677 218.222C404.215 218.161 404.758 218.245 405.257 218.464C405.363 218.515 405.463 218.576 405.558 218.647L413.948 223.819C413.436 223.54 412.861 223.416 412.286 223.459C411.711 223.502 411.158 223.711 410.689 224.063L372.112 247.523C370.517 248.62 369.255 250.174 368.475 252.001L360.055 246.544Z" fill="black"/>
<path opacity="0.6" d="M367.184 302.522C367.184 304.562 367.804 305.98 368.784 306.653L360.452 301.502C359.365 300.9 358.677 299.462 358.677 297.269V252.164C358.718 250.204 359.189 248.281 360.054 246.544L368.474 251.991C367.666 253.676 367.225 255.53 367.184 257.417V302.522Z" fill="black"/>
<path d="M395.711 262.436L405.014 246.544V268.076L395.711 262.436Z" fill="#5BA3D4"/>
<path d="M387.069 267.016L377.786 283.917V262.415L387.069 267.016Z" fill="#5BA3D4"/>
<path d="M403.607 245.82L394.053 262.14C394.012 262.176 393.977 262.217 393.946 262.262C393.938 262.303 393.938 262.344 393.946 262.385L391.104 267.24L388.699 266.047C388.661 266.004 388.619 265.966 388.572 265.934C388.478 265.876 388.371 265.841 388.262 265.832L378.562 261.049L403.607 245.82Z" fill="#5BA3D4"/>
<path d="M388.476 267.709L391.075 268.994C391.176 269.043 391.285 269.068 391.395 269.066C391.529 269.067 391.661 269.033 391.779 268.965C391.896 268.897 391.995 268.798 392.065 268.678L394.907 263.823L404.238 269.494L379.125 284.733L388.476 267.709Z" fill="#5BA3D4"/>
<g opacity="0.9">
<path d="M395.711 262.436L405.014 246.544V268.076L395.711 262.436Z" fill="white"/>
<path d="M387.068 267.016L377.785 283.917V262.415L387.068 267.016Z" fill="white"/>
<path d="M403.607 245.82L394.053 262.14C394.012 262.176 393.977 262.217 393.946 262.262C393.938 262.303 393.938 262.344 393.946 262.385L391.104 267.24L388.699 266.047C388.661 266.004 388.619 265.966 388.572 265.934C388.478 265.876 388.371 265.841 388.262 265.832L378.562 261.049L403.607 245.82Z" fill="white"/>
<path d="M388.475 267.709L391.074 268.994C391.175 269.043 391.284 269.068 391.395 269.066C391.528 269.067 391.66 269.033 391.778 268.965C391.895 268.897 391.994 268.798 392.064 268.678L394.906 263.823L404.237 269.494L379.124 284.733L388.475 267.709Z" fill="white"/>
</g>
<path d="M363.605 81.6L402.182 58.14C402.625 57.8146 403.139 57.6123 403.677 57.5516C404.214 57.491 404.758 57.5741 405.257 57.7932C405.362 57.8444 405.463 57.9059 405.557 57.9768L413.948 63.1482H413.89C414.947 63.7704 415.616 65.2494 415.616 67.3404V112.445C415.616 116.26 413.414 120.697 410.689 122.349L372.112 145.809C371.623 146.184 371.04 146.398 370.436 146.425C369.832 146.453 369.234 146.291 368.717 145.962L368.785 146.013L360.452 140.913C359.366 140.311 358.677 138.873 358.677 136.68V91.4634C358.677 87.6486 360.84 83.2116 363.605 81.6Z" fill="#5BA3D4"/>
<path d="M360.055 85.8432C360.833 84.0932 362.063 82.6086 363.605 81.5592L402.182 58.14C402.625 57.8146 403.14 57.6123 403.677 57.5516C404.215 57.491 404.758 57.5741 405.257 57.7932C405.363 57.8444 405.463 57.9059 405.558 57.9768L413.948 63.1482C413.436 62.8697 412.861 62.7453 412.286 62.7884C411.711 62.8316 411.158 63.0408 410.689 63.393L372.112 86.853C370.517 87.9491 369.255 89.5031 368.475 91.3308L360.055 85.8432Z" fill="#5BA3D4"/>
<path d="M367.184 141.78C367.184 143.82 367.804 145.238 368.784 145.86L360.452 140.76C359.365 140.158 358.677 138.72 358.677 136.527V91.4634C358.718 89.5034 359.189 87.5799 360.054 85.8432L368.474 91.29C367.666 92.9755 367.225 94.8293 367.184 96.7164V141.78Z" fill="#5BA3D4"/>
<path opacity="0.3" d="M360.055 85.8432C360.833 84.0932 362.063 82.6086 363.605 81.5592L402.182 58.14C402.625 57.8146 403.14 57.6123 403.677 57.5516C404.215 57.491 404.758 57.5741 405.257 57.7932C405.363 57.8444 405.463 57.9059 405.558 57.9768L413.948 63.1482C413.436 62.8697 412.861 62.7453 412.286 62.7884C411.711 62.8316 411.158 63.0408 410.689 63.393L372.112 86.853C370.517 87.9491 369.255 89.5031 368.475 91.3308L360.055 85.8432Z" fill="black"/>
<path opacity="0.6" d="M367.184 141.78C367.184 143.82 367.804 145.238 368.784 145.86L360.452 140.76C359.365 140.158 358.677 138.72 358.677 136.527V91.4634C358.718 89.5034 359.189 87.5799 360.054 85.8432L368.474 91.29C367.666 92.9755 367.225 94.8293 367.184 96.7164V141.78Z" fill="black"/>
<path d="M379.804 122.4C381.288 119.83 382.782 117.3 384.266 114.709C384.502 114.218 384.831 113.784 385.233 113.433C385.635 113.082 386.102 112.822 386.604 112.669C387.322 112.516 388.04 112.343 388.777 112.118C389.039 112.003 389.26 111.803 389.407 111.547C391.836 107.177 393.766 102.521 395.159 97.6752C395.189 97.5716 395.197 97.4626 395.184 97.3553C395.171 97.2481 395.136 97.145 395.082 97.053C394.626 96.5736 394.112 96.135 393.646 95.7066C393.181 95.2782 392.938 94.2888 393.278 93.0036C393.995 90.2802 394.684 87.5568 395.402 84.8436C395.541 84.0727 395.87 83.3538 396.357 82.7594C396.844 82.1649 397.472 81.7158 398.176 81.4572C399.74 80.9999 401.401 81.064 402.929 81.6408C403.521 81.8754 403.831 82.4364 403.841 83.4054C403.589 85.272 403.424 87.1182 403.084 89.0154C400.692 102.697 394.936 115.277 385.818 126.755C385.58 127.136 385.26 127.452 384.885 127.679C384.509 127.906 384.088 128.037 383.655 128.061C382.146 128.023 380.695 127.436 379.552 126.398C378.689 125.582 378.776 124.134 379.804 122.4Z" fill="#5BA3D4"/>
<path d="M379.921 108.497C380.124 105.564 380.893 102.704 382.181 100.093C383.143 98.0527 384.366 96.1616 385.818 94.4724C386.197 94.0236 386.517 93.8808 386.711 94.2174C386.905 94.554 386.711 95.0334 386.342 95.472L385.964 95.931C383.283 99.1854 381.593 103.211 381.114 107.488C381.118 107.799 381.089 108.111 381.026 108.416C380.905 108.767 380.709 109.084 380.454 109.344C380.25 109.497 380.018 109.344 379.853 109.344C379.911 108.926 379.901 108.712 379.921 108.497Z" fill="#5BA3D4"/>
<path d="M388.708 100.123C387.49 101.532 386.75 103.325 386.603 105.223C386.539 105.512 386.438 105.79 386.302 106.049C385.711 106.559 385.42 106.386 385.42 105.743C385.627 103.31 386.584 101.014 388.145 99.2052C388.514 98.8074 388.815 98.685 388.989 99.0216C389.052 99.2138 389.059 99.4213 389.009 99.6176C388.959 99.8139 388.854 99.9899 388.708 100.123Z" fill="#5BA3D4"/>
<g opacity="0.9">
<path d="M379.804 122.4C381.288 119.83 382.782 117.3 384.266 114.709C384.502 114.218 384.831 113.784 385.233 113.433C385.635 113.082 386.102 112.822 386.604 112.669C387.322 112.516 388.04 112.343 388.777 112.118C389.039 112.003 389.26 111.803 389.407 111.547C391.836 107.177 393.766 102.521 395.159 97.6752C395.189 97.5716 395.197 97.4626 395.184 97.3553C395.171 97.2481 395.136 97.145 395.082 97.053C394.626 96.5736 394.112 96.135 393.646 95.7066C393.181 95.2782 392.938 94.2888 393.278 93.0036C393.995 90.2802 394.684 87.5568 395.402 84.8436C395.541 84.0727 395.87 83.3538 396.357 82.7594C396.844 82.1649 397.472 81.7158 398.176 81.4572C399.74 80.9999 401.401 81.064 402.929 81.6408C403.521 81.8754 403.831 82.4364 403.841 83.4054C403.589 85.272 403.424 87.1182 403.084 89.0154C400.692 102.697 394.936 115.277 385.818 126.755C385.58 127.136 385.26 127.452 384.885 127.679C384.509 127.906 384.088 128.037 383.655 128.061C382.146 128.023 380.695 127.436 379.552 126.398C378.689 125.582 378.776 124.134 379.804 122.4Z" fill="white"/>
<path d="M379.921 108.497C380.124 105.563 380.893 102.704 382.181 100.093C383.143 98.0527 384.366 96.1616 385.818 94.4724C386.197 94.0236 386.517 93.8808 386.711 94.2174C386.905 94.554 386.711 95.0334 386.342 95.472L385.964 95.931C383.283 99.1853 381.593 103.211 381.114 107.488C381.118 107.799 381.089 108.111 381.026 108.416C380.905 108.767 380.709 109.084 380.454 109.344C380.25 109.497 380.018 109.344 379.853 109.344C379.911 108.926 379.901 108.712 379.921 108.497Z" fill="white"/>
<path d="M388.709 100.123C387.491 101.532 386.751 103.325 386.604 105.223C386.54 105.512 386.439 105.79 386.303 106.049C385.712 106.559 385.421 106.386 385.421 105.743C385.628 103.31 386.585 101.014 388.146 99.2052C388.515 98.8074 388.816 98.685 388.99 99.0216C389.053 99.2138 389.06 99.4213 389.01 99.6176C388.96 99.8139 388.855 99.9899 388.709 100.123Z" fill="white"/>
</g>
<path d="M165.676 54.5496L156.587 59.9862V56.5998C156.587 56.3652 156.587 56.1204 156.587 55.8858C156.587 55.6512 156.587 55.4268 156.587 55.2024V55.08C156.257 50.6022 153.027 48.8784 149.089 51.2754C147.306 52.4285 145.778 53.9692 144.608 55.794C143.725 49.674 139.001 47.5116 133.288 50.9694C126.944 54.825 121.803 64.2294 121.803 71.8998V79.1418C121.812 79.7211 121.676 80.2927 121.409 80.7994C121.141 81.306 120.752 81.7298 120.28 82.0284L114.926 85.323C113.77 86.0434 112.812 87.067 112.146 88.2935C111.479 89.5201 111.127 90.9075 111.123 92.3202C111.123 92.9063 111.27 93.482 111.548 93.9895C111.827 94.497 112.228 94.9183 112.711 95.211C113.194 95.5036 113.742 95.6573 114.299 95.6566C114.856 95.6559 115.404 95.5007 115.886 95.2068L165.54 65.025C166.857 64.2205 167.952 63.0677 168.714 61.6809C169.476 60.2942 169.88 58.7218 169.886 57.12C169.886 56.6015 169.757 56.092 169.511 55.6425C169.265 55.1931 168.912 54.8195 168.485 54.5591C168.059 54.2988 167.575 54.1608 167.082 54.1592C166.589 54.1575 166.104 54.2921 165.676 54.5496Z" fill="#E6E6E6"/>
<path d="M96.3888 53.1318L89.7831 57.12V54.6312C89.7831 54.4578 89.7831 54.2844 89.7831 54.111C89.7831 53.9376 89.7831 53.7744 89.7831 53.6112V53.55C89.5406 50.2962 87.1932 49.0416 84.3317 50.7858C83.036 51.6207 81.9248 52.737 81.0725 54.06C80.4226 49.6332 76.9888 48.0318 72.8372 50.5512C68.22 53.3562 64.4856 60.1698 64.4856 65.7696V71.043C64.4821 71.4564 64.3765 71.8617 64.1793 72.2193C63.982 72.5769 63.6999 72.8745 63.3604 73.083L59.4804 75.48C58.6361 76.0021 57.9366 76.7477 57.4515 77.6425C56.9665 78.5373 56.7129 79.55 56.7158 80.58C56.7165 81.0018 56.8216 81.4162 57.0209 81.7823C57.2202 82.1484 57.5068 82.4536 57.8524 82.6677C58.1981 82.8819 58.5908 82.9976 58.9919 83.0036C59.393 83.0095 59.7887 82.9054 60.1399 82.7016L96.2918 60.7512C97.2498 60.1684 98.0453 59.3312 98.5985 58.3233C99.1518 57.3154 99.4435 56.1723 99.4443 55.0086C99.445 54.6319 99.3517 54.2617 99.1737 53.9348C98.9957 53.608 98.7392 53.336 98.43 53.146C98.1207 52.956 97.7694 52.8547 97.4112 52.8522C97.053 52.8498 96.7005 52.9461 96.3888 53.1318Z" fill="#E6E6E6"/>
</svg>
