<svg width="37" height="26" viewBox="0 0 37 26" fill="none" xmlns="http://www.w3.org/2000/svg">
<path d="M33.5872 0.924805H3.09762C1.65155 0.924805 0.475098 2.10126 0.475098 3.54732V22.4761C0.475098 23.9222 1.65155 25.0987 3.09762 25.0987H33.5872C35.0333 25.0987 36.2097 23.9222 36.2097 22.4761V3.54732C36.2097 2.10126 35.0333 0.924805 33.5872 0.924805ZM11.4674 16.6647H15.0098C15.4349 16.6647 15.7793 17.0092 15.7793 17.4342C15.7793 17.8592 15.4348 18.2037 15.0098 18.2037H11.4674C11.0424 18.2037 10.6979 17.8592 10.6979 17.4342C10.6979 17.0092 11.0424 16.6647 11.4674 16.6647ZM3.80289 8.94639C3.80289 8.52135 4.14739 8.17691 4.57237 8.17691H9.18214C9.60718 8.17691 9.95162 8.52142 9.95162 8.94639V12.2793C9.95162 12.7043 9.60711 13.0488 9.18214 13.0488H4.57237C4.14732 13.0488 3.80289 12.7043 3.80289 12.2793V8.94639ZM4.57237 16.6647H8.11477C8.53982 16.6647 8.88425 17.0092 8.88425 17.4342C8.88425 17.8592 8.53975 18.2037 8.11477 18.2037H4.57237C4.14732 18.2037 3.80289 17.8592 3.80289 17.4342C3.80289 17.0092 4.14746 16.6647 4.57237 16.6647ZM17.2187 21.6255H4.57237C4.14732 21.6255 3.80289 21.281 3.80289 20.856C3.80289 20.431 4.14739 20.0865 4.57237 20.0865H17.2187C17.6438 20.0865 17.9882 20.431 17.9882 20.856C17.9882 21.281 17.6438 21.6255 17.2187 21.6255ZM21.9049 18.2037H18.3624C17.9374 18.2037 17.593 17.8592 17.593 17.4342C17.593 17.0092 17.9375 16.6647 18.3624 16.6647H21.9049C22.3299 16.6647 22.6743 17.0092 22.6743 17.4342C22.6743 17.8592 22.3299 18.2037 21.9049 18.2037ZM28.7999 18.2037H25.2575C24.8324 18.2037 24.488 17.8592 24.488 17.4342C24.488 17.0092 24.8325 16.6647 25.2575 16.6647H28.7999C29.2249 16.6647 29.5694 17.0092 29.5694 17.4342C29.5694 17.8592 29.2248 18.2037 28.7999 18.2037ZM32.1125 6.96291H23.7575C23.3324 6.96291 22.988 6.61841 22.988 6.19343C22.988 5.76845 23.3325 5.42395 23.7575 5.42395H32.1125C32.5375 5.42395 32.882 5.76845 32.882 6.19343C32.882 6.61841 32.5374 6.96291 32.1125 6.96291Z" fill="black"/>
</svg>
