<svg width="92" height="92" viewBox="0 0 92 92" fill="none" xmlns="http://www.w3.org/2000/svg">
<g clip-path="url(#clip0_2_5142)">
<path d="M91.0837 46.3183C91.0837 61.1647 79.0924 73.2988 64.1032 73.2988C49.2569 73.2988 37.1228 61.1647 37.1228 46.3183C37.1228 31.4719 49.1141 19.3379 63.9605 19.3379C79.0924 19.3379 91.0837 31.4719 91.0837 46.3183Z" fill="#FFB600"/>
<path d="M64.1032 19.3379C78.9496 19.3379 91.0837 31.4719 91.0837 46.3183C91.0837 61.1647 79.0924 73.2988 64.1032 73.2988C49.2569 73.2988 37.1228 61.1647 37.1228 46.3183" fill="#F7981D"/>
<path d="M64.103 19.3379C78.9494 19.3379 91.0835 31.4719 91.0835 46.3183C91.0835 61.1647 79.0922 73.2988 64.103 73.2988" fill="#FF8500"/>
<path d="M27.8435 19.3379C13.1399 19.4806 1.14856 31.4719 1.14856 46.3183C1.14856 61.1647 13.1399 73.2988 28.129 73.2988C35.1239 73.2988 41.4051 70.5864 46.2587 66.3038C47.258 65.4473 48.1145 64.448 48.971 63.4488H43.4036C42.6899 62.5922 41.9761 61.593 41.4051 60.7364H50.9696C51.5406 59.8799 52.1116 58.8806 52.5399 57.8814H39.8348C39.4065 57.0248 38.9783 56.0256 38.6928 55.0263H53.5391C54.3957 52.314 54.9667 49.4589 54.9667 46.4611C54.9667 44.4625 54.6812 42.6067 54.3957 40.7509H37.8362C37.979 39.7517 38.2645 38.8951 38.55 37.8959H53.3964C53.1109 36.8966 52.6826 35.8973 52.2544 35.0408H39.692C40.1203 34.0415 40.6913 33.185 41.2623 32.1857H50.8268C50.2558 31.1864 49.542 30.1872 48.6855 29.3306H43.4036C44.2602 28.3314 45.1167 27.4748 46.1159 26.6183C41.4051 22.193 34.9812 19.6234 27.9862 19.6234C27.9862 19.3379 27.9862 19.3379 27.8435 19.3379Z" fill="#FF5050"/>
<path d="M1.14856 46.3186C1.14856 61.165 13.1399 73.299 28.129 73.299C35.1239 73.299 41.4051 70.5867 46.2587 66.3041C47.258 65.4476 48.1145 64.4483 48.971 63.449H43.4036C42.6899 62.5925 41.9761 61.5932 41.4051 60.7367H50.9696C51.5406 59.8802 52.1116 58.8809 52.5399 57.8816H39.8348C39.4065 57.0251 38.9783 56.0258 38.6928 55.0266H53.5391C54.3957 52.3142 54.9667 49.4592 54.9667 46.4613C54.9667 44.4628 54.6812 42.607 54.3957 40.7512H37.8362C37.979 39.7519 38.2645 38.8954 38.55 37.8961H53.3964C53.1109 36.8968 52.6826 35.8976 52.2544 35.041H39.692C40.1203 34.0418 40.6913 33.1853 41.2623 32.186H50.8268C50.2558 31.1867 49.542 30.1874 48.6855 29.3309H43.4036C44.2602 28.3316 45.1167 27.4751 46.1159 26.6186C41.4051 22.1932 34.9812 19.6237 27.9862 19.6237H27.8435" fill="#E52836"/>
<path d="M28.1293 73.299C35.1242 73.299 41.4053 70.5867 46.259 66.3041C47.2582 65.4476 48.1148 64.4483 48.9713 63.449H43.4039C42.6901 62.5925 41.9764 61.5932 41.4053 60.7367H50.9698C51.5409 59.8802 52.1119 58.8809 52.5401 57.8816H39.8351C39.4068 57.0251 38.9785 56.0258 38.693 55.0266H53.5394C54.3959 52.3142 54.9669 49.4592 54.9669 46.4613C54.9669 44.4628 54.6814 42.607 54.3959 40.7512H37.8365C37.9793 39.7519 38.2648 38.8954 38.5503 37.8961H53.3966C53.1111 36.8968 52.6829 35.8976 52.2546 35.041H39.6923C40.1206 34.0418 40.6916 33.1853 41.2626 32.186H50.8271C50.2561 31.1867 49.5423 30.1874 48.6858 29.3309H43.4039C44.2604 28.3316 45.1169 27.4751 46.1162 26.6186C41.4053 22.1932 34.9814 19.6237 27.9865 19.6237H27.8438" fill="#CB2026"/>
<path d="M37.6933 53.1705L38.1215 50.7437C37.9788 50.7437 37.6933 50.8864 37.4078 50.8864C36.4085 50.8864 36.2657 50.3154 36.4085 50.0299L37.265 45.0335H38.8353L39.2635 42.3212H37.836L38.1215 40.6081H35.2664C35.2664 40.6081 33.5534 50.0299 33.5534 51.1719C33.5534 52.885 34.5527 53.5987 35.8375 53.5987C36.694 53.5987 37.4078 53.3132 37.6933 53.1705ZM38.6925 48.6023C38.6925 52.5994 41.4049 53.5987 43.6889 53.5987C45.8302 53.5987 46.6867 53.1705 46.6867 53.1705L47.2578 50.4581C47.2578 50.4581 45.6875 51.1719 44.2599 51.1719C41.1193 51.1719 41.6904 48.8879 41.6904 48.8879H47.5433C47.5433 48.8879 47.9715 47.0321 47.9715 46.3183C47.9715 44.4625 46.9722 42.1784 43.8317 42.1784C40.8338 41.8929 38.6925 45.0335 38.6925 48.6023ZM43.6889 44.4625C45.2592 44.4625 44.9737 46.3183 44.9737 46.461H41.8331C41.8331 46.3183 42.1186 44.4625 43.6889 44.4625ZM61.8186 53.1705L62.3896 50.0299C62.3896 50.0299 60.9621 50.7437 59.9628 50.7437C57.9643 50.7437 57.1078 49.1734 57.1078 47.4603C57.1078 44.0342 58.8208 42.1784 60.8193 42.1784C62.2469 42.1784 63.3889 43.035 63.3889 43.035L63.8172 40.0371C63.8172 40.0371 62.1041 39.3234 60.5338 39.3234C57.2505 39.3234 53.9672 42.1784 53.9672 47.6031C53.9672 51.1719 55.6802 53.5987 59.1063 53.5987C60.2483 53.5987 61.8186 53.1705 61.8186 53.1705ZM21.9904 41.8929C19.9918 41.8929 18.5643 42.4639 18.5643 42.4639L18.136 44.8908C18.136 44.8908 19.4208 44.3197 21.2766 44.3197C22.2759 44.3197 23.1324 44.4625 23.1324 45.319C23.1324 45.89 22.9896 46.0328 22.9896 46.0328H21.7049C19.278 46.0328 16.5657 47.0321 16.5657 50.3154C16.5657 52.885 18.2788 53.456 19.278 53.456C21.2766 53.456 22.1331 52.1712 22.2759 52.1712L22.1331 53.3132H24.7027L25.8447 45.4618C25.8447 42.0357 22.9896 41.8929 21.9904 41.8929ZM22.5614 48.3168C22.5614 48.7451 22.2759 51.0292 20.5628 51.0292C19.7063 51.0292 19.4208 50.3154 19.4208 49.8871C19.4208 49.1734 19.8491 48.1741 21.9904 48.1741C22.4186 48.3168 22.5614 48.3168 22.5614 48.3168ZM28.557 53.456C29.2708 53.456 32.8396 53.5987 32.8396 49.7444C32.8396 46.1755 29.4135 46.8893 29.4135 45.4618C29.4135 44.748 29.9846 44.4625 30.9838 44.4625C31.4121 44.4625 32.9824 44.6052 32.9824 44.6052L33.4107 42.0357C33.4107 42.0357 32.4114 41.7502 30.6983 41.7502C28.557 41.7502 26.4157 42.6067 26.4157 45.4618C26.4157 48.7451 29.9846 48.4596 29.9846 49.7444C29.9846 50.6009 28.9853 50.7437 28.2715 50.7437C26.9867 50.7437 25.702 50.3154 25.702 50.3154L25.2737 52.885C25.4164 53.1705 26.1302 53.456 28.557 53.456ZM85.5157 39.6089L84.9447 43.4632C84.9447 43.4632 83.8027 42.0357 82.2324 42.0357C79.6628 42.0357 77.3788 45.1763 77.3788 48.8879C77.3788 51.1719 78.5208 53.5987 80.9476 53.5987C82.6607 53.5987 83.6599 52.4567 83.6599 52.4567L83.5172 53.456H86.3722L88.5135 39.7516L85.5157 39.6089ZM84.2309 47.1748C84.2309 48.7451 83.5172 50.7437 81.9469 50.7437C80.9476 50.7437 80.3766 49.8871 80.3766 48.4596C80.3766 46.1755 81.3759 44.748 82.6607 44.748C83.6599 44.748 84.2309 45.4618 84.2309 47.1748ZM6.43021 53.3132L8.14326 43.035L8.42877 53.3132H10.4273L14.1389 43.035L12.5686 53.3132H15.5664L17.8505 39.6089H13.1396L10.2846 48.0313L10.1418 39.6089H6.00195L3.7179 53.3132H6.43021ZM50.6838 53.3132C51.5404 48.6024 51.6831 44.748 53.6817 45.4618C53.9672 43.606 54.3954 42.8922 54.6809 42.1784H54.1099C52.8251 42.1784 51.8259 43.8915 51.8259 43.8915L52.1114 42.3212H49.3991L47.5433 53.456H50.6838V53.3132ZM68.3853 41.8929C66.3867 41.8929 64.9592 42.4639 64.9592 42.4639L64.5309 44.8908C64.5309 44.8908 65.8157 44.3197 67.6715 44.3197C68.6708 44.3197 69.5273 44.4625 69.5273 45.319C69.5273 45.89 69.3846 46.0328 69.3846 46.0328H68.0998C65.673 46.0328 62.9607 47.0321 62.9607 50.3154C62.9607 52.885 64.6737 53.456 65.673 53.456C67.6715 53.456 68.528 52.1712 68.6708 52.1712L68.528 53.3132H71.0976L72.2396 45.4618C72.3824 42.0357 69.3846 41.8929 68.3853 41.8929ZM69.0991 48.3168C69.0991 48.7451 68.8136 51.0292 67.1005 51.0292C66.244 51.0292 65.9585 50.3154 65.9585 49.8871C65.9585 49.1734 66.3867 48.1741 68.528 48.1741C68.9563 48.3168 68.9563 48.3168 69.0991 48.3168ZM74.6665 53.3132C75.523 48.6024 75.6657 44.748 77.6643 45.4618C77.9498 43.606 78.378 42.8922 78.6636 42.1784H78.0925C76.8078 42.1784 75.8085 43.8915 75.8085 43.8915L76.094 42.3212H73.3817L71.5259 53.456H74.6665V53.3132Z" fill="white"/>
<path d="M33.2679 51.1719C33.2679 52.885 34.2672 53.5987 35.552 53.5987C36.5512 53.5987 37.4078 53.3132 37.6933 53.1705L38.1215 50.7437C37.9788 50.7437 37.6933 50.8864 37.4078 50.8864C36.4085 50.8864 36.2657 50.3154 36.4085 50.0299L37.265 45.0335H38.8353L39.2635 42.3212H37.836L38.1215 40.6081M40.1201 48.6023C40.1201 52.5994 41.4049 53.5987 43.6889 53.5987C45.8302 53.5987 46.6867 53.1705 46.6867 53.1705L47.2578 50.4581C47.2578 50.4581 45.6875 51.1719 44.2599 51.1719C41.1193 51.1719 41.6904 48.8879 41.6904 48.8879H47.5433C47.5433 48.8879 47.9715 47.0321 47.9715 46.3183C47.9715 44.4625 46.9722 42.1784 43.8317 42.1784C40.8338 41.8929 40.1201 45.0335 40.1201 48.6023ZM43.6889 44.4625C45.2592 44.4625 45.5447 46.3183 45.5447 46.461H41.8331C41.8331 46.3183 42.1186 44.4625 43.6889 44.4625ZM61.8186 53.1705L62.3896 50.0299C62.3896 50.0299 60.9621 50.7437 59.9628 50.7437C57.9643 50.7437 57.1078 49.1734 57.1078 47.4603C57.1078 44.0342 58.8208 42.1784 60.8193 42.1784C62.2469 42.1784 63.3889 43.035 63.3889 43.035L63.8172 40.0371C63.8172 40.0371 62.1041 39.3234 60.5338 39.3234C57.2505 39.3234 55.3947 42.1784 55.3947 47.6031C55.3947 51.1719 55.6802 53.5987 59.1063 53.5987C60.2483 53.5987 61.8186 53.1705 61.8186 53.1705ZM18.136 45.0335C18.136 45.0335 19.4208 44.4625 21.2766 44.4625C22.2759 44.4625 23.1324 44.6052 23.1324 45.4618C23.1324 46.0328 22.9896 46.1755 22.9896 46.1755H21.7049C19.278 46.1755 16.5657 47.1748 16.5657 50.4581C16.5657 53.0277 18.2788 53.5987 19.278 53.5987C21.2766 53.5987 22.1331 52.3139 22.2759 52.3139L22.1331 53.456H24.7027L25.8447 45.6045C25.8447 42.3212 22.9896 42.1784 21.8476 42.1784M23.9889 48.3168C23.9889 48.7451 22.2759 51.0292 20.5628 51.0292C19.7063 51.0292 19.4208 50.3154 19.4208 49.8871C19.4208 49.1734 19.8491 48.1741 21.9904 48.1741C22.4186 48.3168 23.9889 48.3168 23.9889 48.3168ZM25.4164 53.1705C25.4164 53.1705 26.273 53.456 28.6998 53.456C29.4135 53.456 32.9824 53.5987 32.9824 49.7444C32.9824 46.1755 29.5563 46.8893 29.5563 45.4618C29.5563 44.748 30.1273 44.4625 31.1266 44.4625C31.5549 44.4625 33.1251 44.6052 33.1251 44.6052L33.5534 42.0357C33.5534 42.0357 32.5541 41.7502 30.8411 41.7502C28.6998 41.7502 27.986 42.6067 27.986 45.4618C27.986 48.7451 30.1273 48.4596 30.1273 49.7444C30.1273 50.6009 29.128 50.7437 28.4143 50.7437M84.9447 43.4632C84.9447 43.4632 83.8027 42.0357 82.2324 42.0357C79.6628 42.0357 78.8063 45.1763 78.8063 48.8879C78.8063 51.1719 78.5208 53.5987 80.9476 53.5987C82.6607 53.5987 83.6599 52.4567 83.6599 52.4567L83.5172 53.456H86.3722L88.5135 39.7516M84.802 47.1748C84.802 48.7451 83.5172 50.7437 81.9469 50.7437C80.9476 50.7437 80.3766 49.8871 80.3766 48.4596C80.3766 46.1755 81.3759 44.748 82.6607 44.748C83.6599 44.748 84.802 45.4618 84.802 47.1748ZM6.43021 53.3132L8.14326 43.035L8.42877 53.3132H10.4273L14.1389 43.035L12.5686 53.3132H15.5664L17.8505 39.6089H14.2817L10.2846 48.0313L10.1418 39.6089H8.57152L3.7179 53.3132H6.43021ZM47.686 53.3132H50.6838C51.5404 48.6024 51.6831 44.748 53.6817 45.4618C53.9672 43.606 54.3954 42.8922 54.6809 42.1784H54.1099C52.8251 42.1784 51.8259 43.8915 51.8259 43.8915L52.1114 42.3212M64.5309 45.0335C64.5309 45.0335 65.8157 44.4625 67.6715 44.4625C68.6708 44.4625 69.5273 44.6052 69.5273 45.4618C69.5273 46.0328 69.3846 46.1755 69.3846 46.1755H68.0998C65.673 46.1755 62.9607 47.1748 62.9607 50.4581C62.9607 53.0277 64.6737 53.5987 65.673 53.5987C67.6715 53.5987 68.528 52.3139 68.6708 52.3139L68.528 53.456H71.0976L72.2396 45.6045C72.2396 42.3212 69.3846 42.1784 68.2425 42.1784M70.3838 48.3168C70.3838 48.7451 68.6708 51.0292 66.9577 51.0292C66.1012 51.0292 65.8157 50.3154 65.8157 49.8871C65.8157 49.1734 66.244 48.1741 68.3853 48.1741C68.9563 48.3168 70.3838 48.3168 70.3838 48.3168ZM71.6686 53.3132H74.6665C75.523 48.6024 75.6657 44.748 77.6643 45.4618C77.9498 43.606 78.378 42.8922 78.6636 42.1784H78.0925C76.8078 42.1784 75.8085 43.8915 75.8085 43.8915L76.094 42.3212" fill="#DCE5E5"/>
</g>
<defs>
<clipPath id="clip0_2_5142">
<rect width="91.3623" height="91.3623" fill="white" transform="translate(0.43457 0.637695)"/>
</clipPath>
</defs>
</svg>
