<svg width="93" height="92" viewBox="0 0 93 92" fill="none" xmlns="http://www.w3.org/2000/svg">
<path d="M34.5305 59.1667L39.0986 33.4711H46.2363L41.811 59.1667H34.5305Z" fill="#3C58BF"/>
<path d="M34.5305 59.1667L40.3834 33.4711H46.2363L41.811 59.1667H34.5305Z" fill="#293688"/>
<path d="M67.6493 33.757C66.2218 33.186 63.9377 32.615 61.0826 32.615C53.9449 32.615 48.8058 36.1838 48.8058 41.323C48.8058 45.1773 52.3746 47.1759 55.2297 48.4606C58.0848 49.7454 58.9413 50.6019 58.9413 51.744C58.9413 53.457 56.6573 54.3135 54.6587 54.3135C51.8036 54.3135 50.2333 53.8853 47.8065 52.886L46.8073 52.4577L45.808 58.3106C47.521 59.0244 50.6616 59.7382 53.9449 59.7382C61.5109 59.7382 66.5073 56.1693 66.5073 50.7447C66.5073 47.7469 64.6515 45.4628 60.3689 43.607C57.7993 42.3222 56.229 41.6085 56.229 40.3237C56.229 39.1817 57.5138 38.0396 60.3689 38.0396C62.7957 38.0396 64.5087 38.4679 65.7935 39.0389L66.5073 39.3244L67.6493 33.757Z" fill="#3C58BF"/>
<path d="M67.6493 33.757C66.2218 33.186 63.9377 32.615 61.0826 32.615C53.9449 32.615 50.0906 36.1838 50.0906 41.323C50.0906 45.1773 52.3746 47.1759 55.2297 48.4606C58.0848 49.7454 58.9413 50.6019 58.9413 51.744C58.9413 53.457 56.6573 54.3135 54.6587 54.3135C51.8036 54.3135 50.2333 53.8853 47.8065 52.886L46.8073 52.4577L45.808 58.3106C47.521 59.0244 50.6616 59.7382 53.9449 59.7382C61.5109 59.7382 66.5073 56.1693 66.5073 50.7447C66.5073 47.7469 64.6515 45.4628 60.3689 43.607C57.7993 42.3222 56.229 41.6085 56.229 40.3237C56.229 39.1817 57.5138 38.0396 60.3689 38.0396C62.7957 38.0396 64.5087 38.4679 65.7935 39.0389L66.5073 39.3244L67.6493 33.757Z" fill="#293688"/>
<path d="M79.9258 33.4711C78.2128 33.4711 76.928 33.6138 76.2142 35.3269L65.5077 59.1667H73.2164L74.6439 54.8841H83.7802L84.6367 59.1667H91.4889L85.4932 33.4711H79.9258ZM76.6425 50.6015C77.0707 49.3167 79.4975 43.0356 79.4975 43.0356C79.4975 43.0356 80.0686 41.4653 80.4968 40.466L80.9251 42.8928C80.9251 42.8928 82.3526 49.3167 82.6381 50.7443H76.6425V50.6015Z" fill="#3C58BF"/>
<path d="M81.6388 33.4711C79.9258 33.4711 78.641 33.6138 77.9273 35.3269L65.5077 59.1667H73.2164L74.6439 54.8841H83.7802L84.6367 59.1667H91.4889L85.4932 33.4711H81.6388ZM76.6425 50.6015C77.2135 49.174 79.4975 43.0356 79.4975 43.0356C79.4975 43.0356 80.0686 41.4653 80.4968 40.466L80.9251 42.8928C80.9251 42.8928 82.3526 49.3167 82.6381 50.7443H76.6425V50.6015Z" fill="#293688"/>
<path d="M21.397 51.4574L20.6832 47.7458C19.3984 43.4632 15.2585 38.7523 10.6904 36.4682L17.1143 59.3088H24.823L36.3861 33.6132H28.6774L21.397 51.4574Z" fill="#3C58BF"/>
<path d="M21.397 51.4574L20.6832 47.7458C19.3984 43.4632 15.2585 38.7523 10.6904 36.4682L17.1143 59.3088H24.823L36.3861 33.6132H30.1049L21.397 51.4574Z" fill="#293688"/>
<path d="M1.55432 33.4711L2.8391 33.7566C11.9753 35.8979 18.2565 41.3225 20.6833 47.7464L18.1137 35.6124C17.6855 33.8993 16.4007 33.4711 14.8304 33.4711H1.55432Z" fill="#FFBC00"/>
<path d="M1.55432 33.4711C10.6906 35.6124 18.2565 41.1798 20.6833 47.6037L18.2565 37.4682C17.8282 35.7551 16.4007 34.7559 14.8304 34.7559L1.55432 33.4711Z" fill="#F7981D"/>
<path d="M1.55432 33.4711C10.6906 35.6124 18.2565 41.1798 20.6833 47.6037L18.9703 42.0363C18.542 40.3232 17.971 38.6102 15.9724 37.8964L1.55432 33.4711Z" fill="#ED7C00"/>
<path d="M28.5348 50.6014L23.6812 45.7478L21.3971 51.1724L20.8261 47.6036C19.5413 43.321 15.4015 38.6101 10.8334 36.326L17.2573 59.1666H24.966L28.5348 50.6014ZM41.8109 59.1666L35.6725 52.8855L34.5305 59.1666H41.8109ZM58.2276 50.3159C58.7986 50.8869 59.0841 51.3152 58.9413 51.8862C58.9413 53.5992 56.6573 54.4558 54.6587 54.4558C51.8037 54.4558 50.2334 54.0275 47.8066 53.0282L46.8073 52.6L45.808 58.4529C47.5211 59.1666 50.6616 59.8804 53.945 59.8804C58.5131 59.8804 62.2247 58.5956 64.366 56.3116L58.2276 50.3159ZM66.5073 59.1666H73.2167L74.6442 54.884H83.7805L84.637 59.1666H91.4892L89.0624 48.7456L80.4971 40.4659L80.9254 42.75C80.9254 42.75 82.3529 49.1739 82.6384 50.6014H76.6428C77.2138 49.1739 79.4979 43.0355 79.4979 43.0355C79.4979 43.0355 80.0689 41.4652 80.4971 40.4659" fill="#051244"/>
</svg>
