<svg width="36" height="25" viewBox="0 0 36 25" fill="none" xmlns="http://www.w3.org/2000/svg">
<mask id="mask0_1_3520" style="mask-type:luminance" maskUnits="userSpaceOnUse" x="0" y="15" width="36" height="10">
<path d="M0 15.8506H36V24.0431H0V15.8506Z" fill="white"/>
</mask>
<g mask="url(#mask0_1_3520)">
<path fill-rule="evenodd" clip-rule="evenodd" d="M0.0230713 16.0217H35.9751V24.0199H0.0230713V16.0217Z" fill="black" stroke="black" stroke-width="0.262136"/>
</g>
<mask id="mask1_1_3520" style="mask-type:luminance" maskUnits="userSpaceOnUse" x="0" y="7" width="36" height="10">
<path d="M0 7.87964H36V16.024H0V7.87964Z" fill="white"/>
</mask>
<g mask="url(#mask1_1_3520)">
<path fill-rule="evenodd" clip-rule="evenodd" d="M0.0230713 8.02319H35.975V16.0221H0.0230713V8.02319Z" fill="white"/>
</g>
<mask id="mask2_1_3520" style="mask-type:luminance" maskUnits="userSpaceOnUse" x="0" y="7" width="36" height="10">
<path d="M0 7.87964H36V16.1973H0V7.87964Z" fill="white"/>
</mask>
<g mask="url(#mask2_1_3520)">
<path d="M0.0230713 8.02319H35.9751V16.022H0.0230713V8.02319Z" stroke="white" stroke-width="0.262136"/>
</g>
<mask id="mask3_1_3520" style="mask-type:luminance" maskUnits="userSpaceOnUse" x="0" y="0" width="36" height="9">
<path d="M0 0H36V8.05302H0V0Z" fill="white"/>
</mask>
<g mask="url(#mask3_1_3520)">
<path fill-rule="evenodd" clip-rule="evenodd" d="M0.0230713 0.0244141H35.9751V8.02326H0.0230713V0.0244141Z" fill="#CE1126" stroke="#CE1126" stroke-width="0.262136"/>
</g>
<path d="M17.653 15.6751C18.3722 15.6751 19.0598 15.6349 19.4631 15.5545C19.6335 15.5326 19.6335 15.4705 19.6335 15.3901C19.8045 15.3498 19.7165 15.2073 19.8354 15.2073C19.7165 15.2296 19.6905 15.0648 19.5455 15.087C19.5455 14.9445 19.3442 14.9261 19.1732 14.9664C18.8319 15.0468 18.2273 15.0648 17.653 15.0648C17.0794 15.0468 16.4797 15.0468 16.1328 14.9664C15.9624 14.9261 15.7611 14.9445 15.7611 15.087C15.6161 15.0648 15.5901 15.2296 15.4712 15.2073C15.5901 15.2073 15.5022 15.3498 15.6731 15.3901C15.6731 15.4705 15.6731 15.5326 15.8485 15.5545C16.2468 15.6349 16.9344 15.6751 17.653 15.6751Z" fill="white" stroke="#FAC800" stroke-width="0.524323" stroke-linecap="round" stroke-linejoin="round"/>
<path d="M16.1986 14.9478C16.1986 15.1349 16.1986 15.3231 16.1986 15.4172C16.1986 15.5112 16.1986 15.5624 16.1986 15.5624C16.1986 15.6135 16.1986 15.6135 16.1986 15.4172M16.1986 15.4172C16.1986 15.3231 16.1986 15.3231 16.1986 15.4172ZM16.1986 15.4172C16.1986 15.5624 16.1986 15.6135 16.1986 15.6565C16.1986 15.7076 16.1986 15.6565 16.1986 15.4683C16.1986 15.3742 16.1986 15.4172 16.1986 15.4683" stroke="#FAC800" stroke-width="0.280149" stroke-linecap="round" stroke-linejoin="round"/>
<path d="M16.1986 14.9478C16.1986 15.1032 16.1986 15.5197 16.1986 15.6751" stroke="#FAC800" stroke-width="0.280149" stroke-linecap="round" stroke-linejoin="round"/>
<path d="M16.1986 15.5613C16.2742 15.5145 16.3157 15.4121 16.3157 15.3107C16.2742 15.1515 16.2401 15.1983 16.2742 15.3107C16.2742 15.4121 16.3157 15.4588 16.4269 15.4588C16.5033 15.4588 16.5797 15.4121 16.6628 15.3564C16.7392 15.3107 16.7392 15.1515 16.6628 15.0958C16.5449 15.0491 16.4685 15.254 16.5797 15.3564C16.6212 15.4121 16.6628 15.4588 16.7392 15.5145C16.7392 15.5613 16.7392 15.6637 16.8147 15.6637C16.8496 15.7194 16.926 15.5613 16.926 15.4121V14.9478" stroke="#FAC800" stroke-width="0.280149" stroke-linecap="round" stroke-linejoin="round"/>
<path d="M16.926 14.9478C16.926 15.1389 16.926 15.4726 16.926 15.6751" stroke="#FAC800" stroke-width="0.280149" stroke-linecap="round" stroke-linejoin="round"/>
<path d="M16.926 15.675C17.0706 15.675 17.0706 15.675 17.0706 15.675C17.0305 15.675 16.959 15.675 16.9983 15.675C17.0305 15.675 17.0706 15.675 17.142 15.675M17.142 15.675C17.1813 15.675 17.2143 15.675 17.2143 15.675H17.1813C17.1813 15.675 17.2866 15.675 17.3258 15.675C17.3981 15.675 17.5819 15.675 17.6141 15.675C17.6534 15.675 17.6534 15.675 17.6534 15.675H17.6141C17.5819 15.675 17.5419 15.675 17.5026 15.675C17.5026 15.675 17.4303 15.675 17.3981 15.675H17.142Z" stroke="#FAC800" stroke-width="0.280149" stroke-linecap="round" stroke-linejoin="round"/>
<path d="M17.6533 15.675C17.747 15.675 17.9523 15.675 18.0639 15.675M18.0639 15.675C18.1576 15.675 18.3807 15.675 18.3807 15.675C18.3807 15.675 17.8586 15.675 18.0639 15.675Z" stroke="#FAC800" stroke-width="0.280149" stroke-linecap="round" stroke-linejoin="round"/>
<path d="M18.3807 14.9478C18.3807 15.1949 18.3807 15.5092 18.3807 15.6328C18.3807 15.6892 18.3807 15.6892 18.3807 15.6328C18.3807 15.5657 18.3807 15.5092 18.3807 15.5657C18.3807 15.6328 18.3807 15.6892 18.3807 15.6328C18.3807 15.6328 18.3807 15.6328 18.3807 15.3185C18.3807 15.2513 18.3807 15.2513 18.3807 15.3857" stroke="#FAC800" stroke-width="0.280149" stroke-linecap="round" stroke-linejoin="round"/>
<path d="M18.3807 15.6751C18.3807 15.5241 18.3807 15.222 18.3807 15.0709C18.3807 14.9067 18.3807 14.9067 18.3807 15.0709C18.3807 15.1399 18.3807 15.222 18.3807 15.2909" stroke="#FAC800" stroke-width="0.280149" stroke-linecap="round" stroke-linejoin="round"/>
<path d="M19.1082 15.6751C19.1082 15.5784 19.1082 15.4004 19.1082 15.2225C19.1082 15.0445 19.1082 14.9478 19.1082 15.0445C19.1082 15.1412 19.1082 15.3192 19.1082 15.3192C19.1082 15.3192 19.1082 15.2225 19.1082 14.9478" stroke="#FAC800" stroke-width="0.280149" stroke-linecap="round" stroke-linejoin="round"/>
<path d="M19.1082 15.5905C19.1082 15.4616 19.1082 15.3328 19.1082 15.3328C19.1082 15.2628 19.1082 15.3328 19.1082 15.4616C19.1082 15.5905 19.1082 15.7193 19.1082 15.6605C19.1082 15.5317 19.1082 15.204 19.1082 14.9478" stroke="#FAC800" stroke-width="0.280149" stroke-linecap="round" stroke-linejoin="round"/>
<path d="M19.8204 15.0856C19.5888 14.7528 18.9997 15.0856 19.1256 15.4183C19.2515 15.9319 19.9462 15.5992 19.8204 15.0856Z" stroke="#FAC800" stroke-width="0.280149" stroke-linecap="round" stroke-linejoin="round"/>
<path d="M19.1082 14.9478C19.2183 14.9478 19.441 14.9478 19.441 14.9478C19.441 14.9478 19.6032 14.9478 19.8355 14.9478C19.8355 14.9478 19.8355 14.9478 19.7738 14.9478" stroke="#FAC800" stroke-width="0.280149" stroke-linecap="round" stroke-linejoin="round"/>
<path d="M17.6877 12.4194L20.5629 14.9478L20.3579 10.3554C20.3283 9.65961 19.6896 9.81939 19.2256 10.07C18.7558 10.3554 18.2196 10.3554 17.6538 10.1669C17.0872 10.3554 16.551 10.3554 16.0812 10.07C15.6179 9.81939 14.9792 9.65961 14.9489 10.3554L14.7439 14.9478L17.6869 12.4194H17.6877Z" fill="white" stroke="#FAC800" stroke-width="0.280122" stroke-linecap="round" stroke-linejoin="round"/>
<path d="M18.0316 10.3843C18.1629 10.481 18.2983 10.481 18.3808 10.481C18.1095 10.2458 18.0316 9.61291 18.056 9.34736C18.1095 8.8112 18.0026 8.50956 17.7359 8.44317C17.6824 8.44317 17.6534 8.40709 17.5471 8.40709C17.4646 8.37679 17.403 8.47348 17.374 8.53987C17.2915 8.47348 17.2217 8.50956 17.1445 8.44317C17.062 8.40709 16.926 8.44317 16.926 8.67842L16.9789 8.651C17.0033 8.65533 17.048 8.6878 17.1021 8.72533C17.1724 8.79388 17.2752 8.84078 17.3042 9.07603C17.3577 9.57683 17.3042 10.0466 16.926 10.481C17.0085 10.481 17.1445 10.481 17.2752 10.3843C17.2217 10.481 17.1979 10.5171 17.1445 10.5835C17.3042 10.5474 17.4402 10.481 17.518 10.3179C17.5471 10.3843 17.6244 10.481 17.6534 10.5474C17.6824 10.481 17.7603 10.3843 17.7893 10.3179C17.8672 10.481 18.0026 10.5474 18.1629 10.5835C18.1095 10.5171 18.0851 10.481 18.0316 10.3843Z" fill="white" stroke="#FAC800" stroke-width="0.262162" stroke-linecap="square"/>
<path d="M16.926 8.44419C17.0194 8.45284 17.0604 8.49485 17.1863 8.57888C17.274 8.64066 17.4704 8.77658 17.518 9.12874C17.4704 8.95204 17.5581 8.77658 17.6534 8.8396C17.518 8.43678 17.1014 8.33051 16.926 8.44419Z" fill="#FAC800" stroke="#FAC800" stroke-width="0.131135" stroke-linecap="round" stroke-linejoin="round"/>
<path d="M17.8332 12.7656L18.3808 14.7345L18.2015 14.8767L18.0134 14.7669L17.7029 13.0106L17.8332 14.7669L17.6529 14.9477L17.4736 14.7669L17.6039 13.0106L17.2934 14.7669L17.1053 14.8767L16.926 14.7345L17.4736 12.7656H17.8332Z" fill="#FAC800" stroke="#FAC800" stroke-width="0.236791" stroke-linecap="square"/>
<path d="M15.4713 9.8562L15.2011 14.642L14.7439 14.9478L15.0219 10.0274C15.1521 9.96008 15.3812 9.8562 15.4713 9.8562Z" fill="#FAC800"/>
<path d="M16.1986 10.1097L15.9558 13.8903L15.4712 14.2204L15.7659 9.8562C15.8603 9.91975 16.1467 10.0752 16.1986 10.1097Z" fill="#FAC800"/>
<path d="M16.926 10.6789L16.6831 13.2928L16.1986 13.493L16.4415 10.5835C16.5616 10.611 16.8045 10.6789 16.926 10.6789Z" fill="#FAC800"/>
<path d="M19.8354 9.8562L20.1047 14.642L20.5628 14.9478L20.2848 10.0274C20.1546 9.96008 19.9255 9.8562 19.8354 9.8562Z" fill="#FAC800"/>
<path d="M19.1082 10.7789L19.358 14.0094L19.8355 14.2204L19.5323 10.5835C19.4126 10.6486 19.1732 10.7435 19.1082 10.7789Z" fill="#FAC800"/>
<path d="M18.3807 10.5835L18.5708 13.1963L19.1081 13.493L18.9052 10.6165C18.7737 10.6165 18.4393 10.6165 18.3807 10.5835Z" fill="#FAC800"/>
<path d="M16.9397 12.0383L16.1986 14.7848L17.2187 14.9478L17.6534 12.8819L16.9397 12.0383Z" fill="white" stroke="#FAC800" stroke-width="0.262162" stroke-linecap="round" stroke-linejoin="round"/>
<path d="M18.3667 12.0383L19.1081 14.7848L18.0881 14.9478L17.6533 12.8819L18.3667 12.0383Z" fill="white" stroke="#FAC800" stroke-width="0.262162" stroke-linecap="round" stroke-linejoin="round"/>
<path d="M16.926 12.0383L17.0979 13.4931L17.6534 12.8179" stroke="#FAC800" stroke-width="0.280149" stroke-linecap="round" stroke-linejoin="round"/>
<path d="M17.6533 12.7656V13.493" stroke="#FAC800" stroke-width="0.280149" stroke-linecap="round" stroke-linejoin="round"/>
<path d="M17.6534 13.8723L17.2732 14.2203L17.036 13.5318L16.8079 13.9186L16.6132 13.4929L16.1986 13.8335" stroke="#FAC800" stroke-width="0.280149" stroke-linecap="round" stroke-linejoin="round"/>
<path d="M16.1986 13.4929L16.5159 13.9645L16.8802 13.68L17.0846 14.0611L17.4958 13.7433L17.6534 14.2203" stroke="#FAC800" stroke-width="0.280149" stroke-linecap="round" stroke-linejoin="round"/>
<path d="M16.1986 14.6101L16.3584 14.2205L16.4943 14.8525L16.6541 14.3676L16.761 14.9478L16.926 14.7054" stroke="#FAC800" stroke-width="0.280149" stroke-linecap="round" stroke-linejoin="round"/>
<path d="M19.1081 12.7656H18.9312H18.3807" stroke="#FAC800" stroke-width="0.280149" stroke-linecap="round" stroke-linejoin="round"/>
<path d="M18.3807 12.0383V13.4931V12.8179" stroke="#FAC800" stroke-width="0.280149" stroke-linecap="round" stroke-linejoin="round"/>
<path d="M18.3807 12.7656V13.493" stroke="#FAC800" stroke-width="0.280149" stroke-linecap="round" stroke-linejoin="round"/>
<path d="M18.3807 13.8723L18.5668 14.2203L18.66 13.5318L18.7994 13.9186L18.8967 13.4929L19.1081 13.8335" stroke="#FAC800" stroke-width="0.280149" stroke-linecap="round" stroke-linejoin="round"/>
<path d="M19.1081 13.4929L18.9495 13.9645L18.7679 13.68L18.6651 14.0611L18.4601 13.7433L18.3807 14.2203" stroke="#FAC800" stroke-width="0.280149" stroke-linecap="round" stroke-linejoin="round"/>
<path d="M19.1081 14.6101L18.9483 14.2205L18.8124 14.8525L18.6526 14.3676L18.5457 14.9478L18.3807 14.7054" stroke="#FAC800" stroke-width="0.280149" stroke-linecap="round" stroke-linejoin="round"/>
<path d="M18.0168 10.5835C18.3067 10.846 18.6789 10.9773 19.1081 10.9474C19.0766 12.1039 18.7923 12.8965 18.0168 13.493C17.2413 12.8965 16.957 12.1039 16.926 10.9474C17.3553 10.9773 17.7325 10.846 18.0168 10.5835Z" fill="white" stroke="#FAC800" stroke-width="0.196655" stroke-linecap="round" stroke-linejoin="round"/>
<path d="M18.0311 12.7656C18.6979 12.3826 19.074 11.729 19.1081 10.8535C18.6979 10.8535 18.2823 10.7753 18.0311 10.5835C17.7465 10.7753 17.3704 10.8535 16.926 10.8535C16.9888 11.729 17.3704 12.3826 18.0311 12.7656Z" fill="#FAC800" stroke="#FAC800" stroke-width="0.262162" stroke-linecap="round" stroke-linejoin="round"/>
<path d="M16.9181 14.478C17.1301 14.532 17.3663 14.5774 17.55 14.532C17.654 14.532 17.7292 14.8746 17.5218 14.9297C17.3381 14.9741 17.0504 14.9297 16.8943 14.8746C16.7621 14.8303 16.4744 14.7309 16.2906 14.6315C16.1064 14.478 16.2386 14.1797 16.3426 14.2251C16.5026 14.3245 16.7106 14.424 16.9181 14.478Z" fill="white" stroke="#FAC800" stroke-width="0.280149" stroke-linecap="round" stroke-linejoin="round"/>
<path d="M18.7563 14.478C18.4374 14.532 18.0838 14.5774 17.8149 14.532C17.6521 14.532 17.5384 14.8746 17.8497 14.9297C18.1262 14.9741 18.5579 14.9297 18.7911 14.8746C18.9896 14.8303 19.4212 14.7309 19.6977 14.6315C19.9734 14.478 19.7758 14.1797 19.6197 14.2251C19.3788 14.3245 19.0676 14.424 18.7563 14.478Z" fill="white" stroke="#FAC800" stroke-width="0.280149" stroke-linecap="round" stroke-linejoin="round"/>
<path d="M16.1986 14.2285C15.6163 14.1502 15.3415 14.6611 15.5302 14.9478C15.6163 14.8052 16.0099 14.8052 16.0961 14.6611C16.1986 14.4385 16.0099 14.4385 16.1986 14.2285Z" fill="white" stroke="#FAC800" stroke-width="0.280122" stroke-linecap="round" stroke-linejoin="round"/>
<path d="M19.8354 14.2285C19.8354 14.1502 19.8354 14.6611 19.8354 14.9478C19.8354 14.8052 19.8354 14.8052 19.8354 14.6611C19.8354 14.4385 19.8354 14.4385 19.8354 14.2285Z" fill="white" stroke="#FAC800" stroke-width="0.280122" stroke-linecap="round" stroke-linejoin="round"/>
<path d="M18.7839 14.9478H18.3807C18.3807 14.9478 18.4903 14.9478 18.6919 14.9478C18.8934 14.9478 19.095 14.9478 19.095 14.9478C19.1848 14.9478 18.7839 14.9478 18.7839 14.9478Z" fill="white" stroke="#FAC800" stroke-width="0.280149" stroke-linecap="round" stroke-linejoin="round"/>
<path d="M18.1193 14.9478C17.5152 14.9478 17.5746 14.9478 17.8689 14.9478H18.3807C18.3807 14.9478 17.9172 14.9478 18.1193 14.9478Z" fill="white" stroke="#FAC800" stroke-width="0.280149" stroke-linecap="round" stroke-linejoin="round"/>
<path d="M16.1986 14.2205C16.1986 14.2205 16.1986 14.5525 16.1986 14.9478V14.2205Z" fill="white" stroke="#FAC800" stroke-width="0.196636" stroke-linecap="round" stroke-linejoin="round"/>
<path d="M17.6534 14.9478C17.4481 14.9478 17.0376 14.9478 16.926 14.9478H17.6534Z" fill="white" stroke="#FAC800" stroke-width="0.196636" stroke-linecap="round" stroke-linejoin="round"/>
<path d="M19.8355 14.2205C19.5931 14.2205 19.2399 14.5525 19.1082 14.9478L19.8355 14.2205Z" fill="white" stroke="#FAC800" stroke-width="0.196636" stroke-linecap="round" stroke-linejoin="round"/>
<path d="M18.3807 8.40137C18.323 8.40137 18.2195 8.40137 18.0785 8.40137C18.0051 8.40137 17.9298 8.40137 17.8465 8.40137C17.7574 8.40137 17.6847 8.40137 17.6533 8.40137C17.7424 8.40137 17.7624 8.40137 17.8082 8.40137C17.8966 8.40137 17.9411 8.40137 18.0302 8.40137C18.1192 8.40137 18.323 8.40137 18.3807 8.40137Z" fill="#FAC800" stroke="#FAC800" stroke-width="0.131135" stroke-linecap="round" stroke-linejoin="round"/>
<path d="M18.3807 10.7652V12.4804C18.2738 12.5886 18.1508 12.6821 18.017 12.7656C17.8832 12.6821 17.7602 12.5886 17.6533 12.4804V10.7605C17.7871 10.7164 17.9101 10.657 18.017 10.5835C18.1182 10.6623 18.2411 10.7211 18.3807 10.7652Z" fill="white"/>
</svg>
