<svg width="27" height="18" viewBox="0 0 27 18" fill="none" xmlns="http://www.w3.org/2000/svg">
<mask id="mask0_1_3748" style="mask-type:luminance" maskUnits="userSpaceOnUse" x="0" y="0" width="27" height="18">
<path d="M0 0H27V18H0V0Z" fill="white"/>
</mask>
<g mask="url(#mask0_1_3748)">
<path d="M31.4998 9C31.4998 8.60662 31.4929 8.21416 31.4785 7.82169C31.4641 7.43015 31.4421 7.0386 31.4133 6.64706C31.3845 6.25643 31.3481 5.86673 31.3049 5.47794C31.2617 5.09007 31.2116 4.70312 31.154 4.31801C31.0964 3.93199 31.0319 3.54963 30.9605 3.1682C30.8892 2.78676 30.8103 2.40901 30.7252 2.03309C30.6395 1.65717 30.5469 1.28401 30.4481 0.914522C30.3486 0.544118 30.2423 0.178308 30.1298 -0.184743C30.0173 -0.547794 29.8979 -0.90625 29.7717 -1.26195C29.6461 -1.61673 29.5137 -1.96783 29.3744 -2.31342C29.2359 -2.65993 29.0904 -3.00184 28.9388 -3.33915C28.7879 -3.67555 28.6301 -4.00735 28.4668 -4.33364C28.3029 -4.66085 28.1334 -4.98162 27.9578 -5.29688C27.7822 -5.61213 27.6011 -5.92188 27.4145 -6.2261C27.2272 -6.52941 27.0351 -6.82629 26.8368 -7.11765C26.6392 -7.40901 26.4362 -7.69301 26.2276 -7.97059C26.0198 -8.24816 25.8064 -8.5193 25.5883 -8.78309C25.3701 -9.04688 25.1471 -9.30331 24.9194 -9.55239C24.6916 -9.80147 24.4591 -10.0432 24.2224 -10.2776C23.9857 -10.511 23.7456 -10.7371 23.5 -10.9559C23.2551 -11.1737 23.0067 -11.3842 22.7536 -11.5855C22.5011 -11.7877 22.2452 -11.9816 21.9852 -12.1664C21.7252 -12.3511 21.4625 -12.5285 21.1963 -12.6958C20.9294 -12.864 20.6605 -13.023 20.3882 -13.1737C20.1165 -13.3235 19.8414 -13.4651 19.5642 -13.5974C19.2864 -13.7298 19.0072 -13.8529 18.7252 -13.9669C18.4433 -14.0809 18.1593 -14.1857 17.8739 -14.2813C17.5878 -14.3768 17.3004 -14.4623 17.0115 -14.5395C16.7227 -14.6158 16.4325 -14.6829 16.141 -14.7408C15.8501 -14.7978 15.5578 -14.8465 15.2642 -14.8851C14.9713 -14.9228 14.6777 -14.9522 14.3834 -14.9715C14.0891 -14.9908 13.7947 -15 13.4998 -15C13.2055 -15 12.9111 -14.9908 12.6168 -14.9715C12.3225 -14.9522 12.0289 -14.9228 11.736 -14.8851C11.4424 -14.8465 11.1501 -14.7978 10.8592 -14.7408C10.5677 -14.6829 10.2775 -14.6158 9.98867 -14.5395C9.69916 -14.4623 9.4124 -14.3768 9.12633 -14.2813C8.84094 -14.1857 8.55692 -14.0809 8.27497 -13.9669C7.99301 -13.8529 7.71311 -13.7298 7.43596 -13.5974C7.1588 -13.4651 6.8837 -13.3235 6.61204 -13.1737C6.33968 -13.023 6.07007 -12.864 5.80389 -12.6958C5.53772 -12.5285 5.27497 -12.3511 5.01496 -12.1664C4.75496 -11.9816 4.49907 -11.7877 4.24593 -11.5855C3.99347 -11.3842 3.74444 -11.1737 3.49953 -10.9559C3.25462 -10.7371 3.01382 -10.511 2.77714 -10.2776C2.54115 -10.0432 2.30858 -9.80147 2.08082 -9.55239C1.85306 -9.30331 1.6301 -9.04688 1.41194 -8.78309C1.19379 -8.5193 0.980433 -8.24816 0.771881 -7.97059C0.564014 -7.69301 0.36095 -7.40901 0.162688 -7.11765C-0.0348883 -6.82629 -0.226976 -6.52941 -0.414262 -6.2261C-0.600861 -5.92188 -0.781973 -5.61213 -0.957596 -5.29688C-1.13322 -4.98162 -1.30267 -4.66085 -1.46663 -4.33364C-1.6299 -4.00735 -1.78769 -3.67555 -1.9393 -3.33915C-2.09023 -3.00184 -2.23567 -2.65993 -2.37424 -2.31342C-2.51351 -1.96783 -2.64591 -1.61673 -2.77145 -1.26195C-2.89768 -0.90625 -3.01705 -0.547794 -3.12956 -0.184743C-3.24276 0.178308 -3.3484 0.544118 -3.44788 0.914522C-3.54667 1.28401 -3.63928 1.65717 -3.72503 2.03309C-3.8101 2.40901 -3.88899 2.78676 -3.96034 3.1682C-4.03237 3.54963 -4.09686 3.93199 -4.1538 4.31801C-4.21143 4.70312 -4.26219 5.09007 -4.30541 5.47794C-4.34863 5.86673 -4.38431 6.25643 -4.41312 6.64706C-4.44193 7.0386 -4.46388 7.43015 -4.47829 7.82169C-4.4927 8.21416 -4.50024 8.60662 -4.50024 9C-4.50024 9.39246 -4.4927 9.78493 -4.47829 10.1774C-4.46388 10.5699 -4.44193 10.9614 -4.41312 11.352C-4.38431 11.7426 -4.34863 12.1324 -4.30541 12.5211C-4.26219 12.9099 -4.21143 13.2969 -4.1538 13.682C-4.09686 14.0671 -4.03237 14.4504 -3.96034 14.8309C-3.88899 15.2123 -3.8101 15.591 -3.72503 15.9669C-3.63928 16.3428 -3.54667 16.7151 -3.44788 17.0855C-3.3484 17.455 -3.24276 17.8217 -3.12956 18.1838C-3.01705 18.5469 -2.89768 18.9062 -2.77145 19.261C-2.64591 19.6158 -2.51351 19.9669 -2.37424 20.3134C-2.23567 20.6599 -2.09023 21.0009 -1.9393 21.3382C-1.78769 21.6756 -1.6299 22.0064 -1.46663 22.3336C-1.30267 22.6599 -1.13322 22.9807 -0.957596 23.2969C-0.781973 23.6121 -0.600861 23.9219 -0.414262 24.2252C-0.226976 24.5285 -0.0348883 24.8263 0.162688 25.1167C0.36095 25.4081 0.564014 25.693 0.771881 25.9706C0.980433 26.2482 1.19379 26.5184 1.41194 26.7822C1.6301 27.046 1.85306 27.3024 2.08082 27.5524C2.30858 27.8015 2.54115 28.0432 2.77714 28.2767C3.01382 28.511 3.25462 28.7371 3.49953 28.955C3.74444 29.1728 3.99347 29.3833 4.24593 29.5855C4.49907 29.7868 4.75496 29.9807 5.01496 30.1654C5.27497 30.3511 5.53772 30.5276 5.80389 30.6958C6.07007 30.8631 6.33968 31.023 6.61204 31.1728C6.8837 31.3235 7.1588 31.4642 7.43596 31.5965C7.71311 31.7289 7.99301 31.852 8.27497 31.966C8.55692 32.08 8.84094 32.1847 9.12633 32.2803C9.4124 32.3759 9.69916 32.4623 9.98867 32.5386C10.2775 32.6149 10.5677 32.682 10.8592 32.7399C11.1501 32.7978 11.4424 32.8456 11.736 32.8842C12.0289 32.9228 12.3225 32.9513 12.6168 32.9706C12.9111 32.9899 13.2055 33 13.4998 33C13.7947 33 14.0891 32.9899 14.3834 32.9706C14.6777 32.9513 14.9713 32.9228 15.2642 32.8842C15.5578 32.8456 15.8501 32.7978 16.141 32.7399C16.4325 32.682 16.7227 32.6149 17.0115 32.5386C17.3004 32.4623 17.5878 32.3759 17.8739 32.2803C18.1593 32.1847 18.4433 32.08 18.7252 31.966C19.0072 31.852 19.2864 31.7289 19.5642 31.5965C19.8414 31.4642 20.1165 31.3235 20.3882 31.1728C20.6605 31.023 20.9294 30.8631 21.1963 30.6958C21.4625 30.5276 21.7252 30.3511 21.9852 30.1654C22.2452 29.9807 22.5011 29.7868 22.7536 29.5855C23.0067 29.3833 23.2551 29.1728 23.5 28.955C23.7456 28.7371 23.9857 28.511 24.2224 28.2767C24.4591 28.0432 24.6916 27.8015 24.9194 27.5524C25.1471 27.3024 25.3701 27.046 25.5883 26.7822C25.8064 26.5184 26.0198 26.2482 26.2276 25.9706C26.4362 25.693 26.6392 25.4081 26.8368 25.1167C27.0351 24.8263 27.2272 24.5285 27.4145 24.2252C27.6011 23.9219 27.7822 23.6121 27.9578 23.2969C28.1334 22.9807 28.3029 22.6599 28.4668 22.3336C28.6301 22.0064 28.7879 21.6756 28.9388 21.3382C29.0904 21.0009 29.2359 20.6599 29.3744 20.3134C29.5137 19.9669 29.6461 19.6158 29.7717 19.261C29.8979 18.9062 30.0173 18.5469 30.1298 18.1838C30.2423 17.8217 30.3486 17.455 30.4481 17.0855C30.5469 16.7151 30.6395 16.3428 30.7252 15.9669C30.8103 15.591 30.8892 15.2123 30.9605 14.8309C31.0319 14.4504 31.0964 14.0671 31.154 13.682C31.2116 13.2969 31.2617 12.9099 31.3049 12.5211C31.3481 12.1324 31.3845 11.7426 31.4133 11.352C31.4421 10.9614 31.4641 10.5699 31.4785 10.1774C31.4929 9.78493 31.4998 9.39246 31.4998 9Z" fill="#00247D"/>
<path d="M-4.50024 -3.00024L31.4998 20.9998L-4.50024 -3.00024ZM-4.50024 20.9998L31.4998 -3.00024L-4.50024 20.9998Z" fill="black"/>
<path d="M-4.50024 -3.00024L31.4998 20.9998M-4.50024 20.9998L31.4998 -3.00024" stroke="white" stroke-width="2.69351"/>
<path d="M-4.50024 -3.00024L31.4998 20.9998L-4.50024 -3.00024ZM-4.50024 20.9998L31.4998 -3.00024L-4.50024 20.9998Z" fill="black"/>
<path d="M-4.50024 -3.00024L31.4998 20.9998M-4.50024 20.9998L31.4998 -3.00024" stroke="#CF142B" stroke-width="1.79567"/>
<path d="M13.4997 8.99976L31.4997 20.9998H28.8002L10.8002 8.99976M13.4997 8.99976L31.4997 -3.00024H34.1999L16.1999 8.99976M13.4997 8.99976L-4.50031 20.9998H-7.19983L10.8002 8.99976M13.4997 8.99976L-4.50031 -3.00024H-1.8001L16.1999 8.99976" fill="white"/>
<path d="M-4.50024 8.99976H31.4998H-4.50024ZM13.4998 -3.00024V20.9998V-3.00024Z" fill="black"/>
<path d="M-4.50024 8.99976H31.4998M13.4998 -3.00024V20.9998" stroke="white" stroke-width="4.48918"/>
<path d="M-4.50024 8.99976H31.4998H-4.50024ZM13.4998 -3.00024V20.9998V-3.00024Z" fill="black"/>
<path d="M-4.50024 8.99976H31.4998M13.4998 -3.00024V20.9998" stroke="#CF142B" stroke-width="2.69351"/>
</g>
</svg>
