<svg version="1.2" xmlns="http://www.w3.org/2000/svg" viewBox="0 0 644 595" width="644" height="595">
	<title>LOGO-svg</title>
	<style>
		.s0 { fill: #5ba3d5 } 
		.s1 { fill: #001f5d } 
		.s2 { fill: #b36c1e } 
		.s3 { fill: #001f5a } 
	</style>
	<g id="Layer">
		<path id="Layer" class="s0" d="m555.3 405.2c-5.7 2.8-14.4 5.4-25.3 6.8-10.8 1.3-24 1.6-37.9-1.3q-5.2-1.1-10.2-3c-3.6-1.5-7.6-2.9-11.3-4.3-3.8-1.4-7.4-2.8-11.3-4.6-4.1-1.8-8.5-3.2-12.9-4.3-2.2-0.5-4.5-1-7-1.1-2.5-0.2-5.4 0.1-7.9 0.9-2.5 0.8-4.7 2-6.6 3-1.9 1-3.7 2.1-5.5 3.1-7.2 4.2-14.1 8.2-20.8 12-0.2 0.1-0.3 0.2-0.5 0.3-0.7 0.2-1.4 0.4-2.1 0.5-9.3 2-20.8 2.1-32.5-2.7-11.9-4.8-24.6-12.2-39-18.2-1.8-0.7-3.6-1.4-5.6-2-2-0.6-4.1-1-6.1-1.1-4.2-0.2-8.1 0.8-11.6 2-7.1 2.4-13.4 5.8-19.3 9.2-1.5 0.9-2.9 1.7-4.3 2.4-1.4 0.8-2.8 1.4-4.1 2.1-2.7 1.3-5.5 2.3-8.1 3.2-5.4 1.7-10.5 2.6-15.3 3-9.5 0.8-17.4-0.4-22.7-1.4-2.7-0.6-4.8-1-6.1-1.4q-2.1-0.6-2.1-0.6c0 0 0.7 0.3 2 0.9 1.3 0.6 3.4 1.4 6 2.4 5.3 1.8 13.1 4.1 23.1 4.5 5 0.1 10.5-0.2 16.3-1.5 2.9-0.7 5.9-1.5 8.9-2.6 1.5-0.6 3-1.2 4.6-1.9 1.6-0.7 3-1.4 4.5-2.2 5.9-2.9 12.1-5.8 18.6-7.8 3.2-1 6.4-1.6 9.5-1.4 1.5 0.1 3 0.4 4.6 0.9 1.6 0.5 3.3 1.2 5 1.8 13.7 5.7 26.8 12.7 39.5 17q7.2 2.4 14.1 2.7-0.4 0-0.9 0c-6 0-11.9-1-17.7-2.2-11.6-2.4-22.7-5.5-33.6-5.9-1.3-0.1-2.7-0.1-4 0-1.3 0-2.6 0-4.1 0.3-1.4 0.2-2.8 0.4-4 1-1.3 0.5-2.6 0.8-3.7 1.5-4.8 2.3-8.9 5.2-12.8 7.9-7.9 5.3-15.1 9.8-22.1 12.5-14 5.4-25.8 4.7-33.5 3.4-1-0.1-1.9-0.3-2.7-0.4q-1.2-0.3-2.4-0.6c-1.5-0.4-2.7-0.7-3.7-1-2-0.5-3-0.8-3-0.8 0 0 1 0.3 2.9 1 0.9 0.3 2.1 0.7 3.5 1.2 0.7 0.2 1.5 0.5 2.3 0.8q1.2 0.3 2.7 0.6c7.5 2 19.3 3.5 33.9-1 7.3-2.2 15-6.4 23-11.4 4-2.4 8.2-5.1 12.6-7l1.7-0.7c0.6-0.2 1.1-0.4 1.7-0.5l1.7-0.5c0.6-0.2 1.1-0.2 1.7-0.3l1.7-0.2c0.6-0.1 1.2 0 1.9 0 1.3 0.1 2.5 0 3.8 0.2 10.3 0.8 21.1 4.2 33 7.3 2.4 0.6 4.8 1.1 7.3 1.6-0.1 0-0.1 0-0.2 0-10.7 2-19.7 1.8-25.9 1.2-3.1-0.3-5.5-0.7-7.1-1-1.6-0.3-2.5-0.5-2.5-0.5 0 0 0.8 0.4 2.4 1 1.6 0.7 3.9 1.5 6.9 2.5 6.1 1.8 15.2 3.8 26.7 3.4 5.7-0.3 12-1.1 18.7-2.9 6.6-1.8 13.5-4.6 20.4-7.9 0.2-0.1 0.3-0.2 0.5-0.2 0.2 0 0.3-0.1 0.5-0.1 2.9-0.4 5.9-0.7 8.9-0.8 3-0.1 5.9-0.2 8.8-0.1 2.9 0.1 5.8 0.1 8.3 0.5 5.4 1 10.9 2.6 16.1 4.1 5.2 1.5 10.3 3 15.2 4.5 4.9 1.5 9.7 2.9 14.3 4.3 4.6 1.3 9.1 2.4 13.5 3.2q13.1 2.4 24 2.1c7.2-0.3 13.7-1.5 19.1-3.5 1.3-0.6 2.6-1.1 3.8-1.6 1.2-0.5 2.3-1.3 3.4-1.9 2.1-1.2 3.9-2.5 5.6-3.5 3.4-2.1 5.7-4.2 7.1-5.8 1.4-1.6 1.9-2.7 1.9-2.7 0 0-0.6 0.9-2 2.4-1.4 1.5-3.8 3.3-7.2 5.2-1.7 0.9-3.6 2-5.7 3.1-1.1 0.5-2.1 1.1-3.3 1.6-1.2 0.4-2.4 0.9-3.7 1.3-5.2 1.6-11.4 2.5-18.4 2.3-7-0.1-14.8-1.2-23.2-3.2-4.2-1-8.6-2.3-13.1-3.7-4.5-1.5-9.2-3.2-14.1-4.9-4.9-1.7-10-3.5-15.2-5.2-5.3-1.7-10.7-3.5-16.6-5-1.4-0.4-3.3-0.7-4.7-0.8q-2.3-0.2-4.5-0.3c-0.4 0-0.8 0-1.2-0.1 1.1-0.6 2.3-1.2 3.4-1.7 1.8-1 3.7-1.9 5.6-2.9 1.8-0.9 3.4-1.7 4.9-2.2 1.5-0.4 2.8-0.5 4.5-0.4 1.7 0.1 3.6 0.5 5.5 1q5.8 1.3 11.4 3.6c3.9 1.7 8.1 3.2 12 4.4 3.8 1.2 7.6 2.4 11.3 3.6 4.1 1.3 8 2.1 11.9 2.6 15.4 1.8 29-0.3 40.1-3.3 11.1-3.1 19.7-7.5 25.1-11.5 2.7-2.1 4.7-3.7 5.9-5.1 1.2-1.3 1.9-2 1.9-2 0 0-0.8 0.5-2.2 1.5-1.5 0.7-3.8 1.8-6.6 3.3z"/>
	</g>
	<path id="Layer" class="s0" d="m554.5 449.8c-2.2 1.1-5.6 2.4-10.2 3.4-4.6 1-10.4 1.9-17.3 2.3-3.4 0.2-7.2 0.3-11.1 0.1-4-0.2-8.1-0.5-12.5-1.7-8.7-2-18.1-5.9-28.6-10-5.2-2-10.8-4-16.8-5.5-6-1.5-12.4-2.5-19.2-2.2-1.7 0.1-3.4 0.2-5.1 0.5-1.7 0.3-3.3 0.5-5 0.9-3.4 0.6-6.8 1.4-10.2 2.3-3.4 0.9-6.9 1.9-10.4 2.9-1.7 0.6-3.5 1.1-5.2 1.7-1.7 0.6-3.4 1-5.2 1.5-7 1.8-14.4 3.2-22 4-5 0.5-10.1 0.8-15.1 0.6-2.7-1.2-5.6-2.4-8.5-3.4-5.9-2.1-12.2-3.8-18.5-4.8-12.7-2-25.4-1.7-37.3 0.7-5.9 1.2-11.7 2.9-17.2 5-3.6 1.4-6.9 2.9-10.2 4.5-1.1 0.1-2.1 0.2-3.2 0.3-3.8 0.5-7.5 0-11.3-0.8-3.8-0.8-7.6-1.9-11.3-3.2-14.9-5.1-28.9-11.3-42.6-15.3-13.6-4.1-27.1-6.3-39.4-4.7-6.1 0.8-11.9 2.5-17.1 5-5 2.5-9.7 4.8-14.4 6.7-18.4 7.7-33.7 10.6-44.1 10.2-1.3 0-2.5-0.2-3.7-0.2-1.1-0.1-2.2-0.1-3.2-0.4-1.9-0.4-3.6-0.6-4.9-1-2.6-0.8-3.9-1.3-3.9-1.3 0 0 1.3 0.5 3.7 1.4 2.5 0.9 6.3 1.8 11.5 2.3 10.3 0.9 25.7-0.9 44.5-7.8 4.7-1.7 9.6-3.7 14.7-6.1 4.9-2.3 10.3-3.8 16.1-4.4 11.6-1.2 24.4 1.1 37.7 5.5 13.3 4.3 27.1 10.9 42.4 16.7 3.8 1.4 7.8 2.8 12 3.8 0.1 0 0.2 0.1 0.3 0.1-1.4 0.2-2.7 0.3-4.1 0.4-5.6 0.4-11.1 0.1-16.5-0.5-10.8-1.3-20.9-3.7-30.4-6.1-9.5-2.6-18.8-4.3-27.3-5-8.5-0.7-16.4-0.2-23.3 1.2-6.9 1.4-12.9 3.6-17.9 5.6-5 2-9.3 3.6-12.8 4.6-1.8 0.4-3.3 0.8-4.7 1-1.4 0.2-2.5 0.4-3.5 0.3-1.9 0-2.8 0.1-2.8 0.1 0 0 0.9 0.1 2.8 0.2 0.9 0.1 2.1 0.1 3.4-0.1 0.7-0.1 1.4-0.1 2.2-0.2 0.8-0.1 1.6-0.3 2.5-0.4 3.6-0.7 7.9-1.9 13-3.6 5.1-1.6 10.9-3.4 17.6-4.4 13.4-2.1 30.1-0.1 48.8 6.1 9.5 3 19.8 6 31.2 7.9 1.2 0.2 2.5 0.4 3.7 0.5-8.1 2.4-15.9 3.8-23.1 4.4-15.6 1.4-28.3-1.2-36.7-4-2.2-0.6-4-1.5-5.6-2.1-1.6-0.6-2.9-1.3-4-1.8-2.1-1.1-3.3-1.6-3.3-1.6 0 0 1 0.7 3 2.2 1 0.7 2.2 1.6 3.8 2.5 1.5 0.9 3.3 2 5.4 2.9 8.2 4.1 21.1 8.5 37.6 8.7 8.2 0.1 17.2-0.6 26.7-2.7 9.5-2 19.5-5.7 29.3-10 4.9-2.1 9.9-4.2 14.9-5.9 5-1.7 10.3-3 15.6-3.9 10.8-1.8 22.2-2 33.6-0.1 5.7 0.9 11.3 2.3 16.6 4.1 5.4 1.8 10.7 4.2 16.1 6.4 5.4 2.3 10.9 4.5 16.4 6.2 5.5 1.7 10.9 3.1 16.3 4.2 20.9 4.3 40.4 6 56.7 4.9 8.1-0.6 15.4-1.8 21.7-3.4q4.6-1.3 8.7-2.7c2.6-1.1 5-2 7-3 2-1.1 3.8-2.1 5.4-2.9 1.5-0.9 2.7-1.8 3.8-2.5q3-2.1 3-2.1c0 0-1.1 0.6-3.3 1.6-1.1 0.5-2.4 1.3-4 1.9-1.6 0.6-3.5 1.3-5.6 2.1-2.1 0.7-4.5 1.2-7.1 2-2.6 0.5-5.5 1-8.6 1.5-6.2 0.7-13.3 1.1-21.2 0.9-10.5-0.4-22.2-2-34.9-4.6 4.3-2.1 8.2-4.5 11.8-6.3 5-2.6 10.1-4.2 14.8-5 2.4-0.4 4.6-0.6 6.8-0.5 2.2 0.1 4.2 0.4 6.3 0.7 8 1.5 14.4 2.9 18.7 3.3 4.3 0.5 6.6 0.6 6.6 0.6 0 0-2.2-0.3-6.3-1.4-4.2-1-10.1-3-18-5.4-3.9-1.2-8.7-2.2-13.9-1.8-5.2 0.4-10.7 1.5-16.4 3.9-5.7 2.3-11.2 5.4-17.2 7.1-2.8 0.8-5.7 1.2-8.6 1.2-1.4-0.3-2.8-0.7-4.2-1.1-5-1.3-10-2.9-15.1-4.7-2.4-0.9-4.9-1.9-7.3-2.9 7.5-1 14.8-2.6 21.7-4.6 3.6-1 7.2-2.4 10.5-3.5 3.3-1.2 6.7-2.2 9.9-3.2 3.3-1 6.5-1.9 9.7-2.6 3.2-0.8 6.4-1.4 9.4-1.7 12.3-1.2 24 2.2 34.5 5.7 10.5 3.6 20.3 7.2 29.4 9 4.5 1 9 1.3 13.1 1.3 4.1 0 7.9-0.3 11.4-0.6 7-0.8 13-1.9 17.7-3.2 4.7-1.3 8.2-2.8 10.4-4 1.1-0.6 1.9-1.2 2.4-1.6 0.5-0.4 0.8-0.6 0.8-0.6 0 0-0.3 0.2-0.8 0.5-0.5-0.1-1.2 0.5-2.4 1z"/>
	<path id="Layer" class="s0" d="m283 481.7c2.7-1.1 5.3-2.1 7.9-3.1 5.2-1.8 10.3-3.2 15.3-4.1 9.9-1.7 19.1-1.5 26.8-0.5 7.7 1 14 2.2 18.4 2.9 4.4 0.7 6.8 1 6.8 1 0 0-2.3-0.9-6.5-2.4-4.2-1.5-10.2-3.8-18-5.9-7.7-2.1-17.5-3.6-28.3-2.6-5.4 0.5-11 1.7-16.6 3.4-2.8 0.9-5.7 1.9-8.5 3-2.8 1.2-5.8 2.5-8.3 3.6-21.9 9.3-43.1 14.1-58.6 14.6-7.7 0.3-14-0.7-18.3-1.5-2.1-0.5-3.8-1.1-4.9-1.4-1.1-0.3-1.7-0.5-1.7-0.5 0 0 0.5 0.3 1.6 0.8 1.1 0.5 2.6 1.4 4.7 2.3 4.2 1.7 10.5 3.8 18.5 4.7 16 1.8 38.6-1 61.6-10.7 2.7-1.1 5.5-2.4 8.1-3.6z"/>
	<g id="Layer">
		<path id="Layer" class="s0" d="m511.2 479c-0.5 0.4-1.1 0.9-1.7 1.4-0.7 0.4-1.4 0.9-2.1 1.4-5.7 4.2-14.7 9.3-26.6 12.8-5.9 1.7-12.5 3.1-19.6 4-7.1 0.8-14.8 1.2-22.9 1.2-4.1 0-8.2-0.2-12.5-0.4-2.2-0.1-4.4-0.2-6.6-0.2-1.2 0-2 0-3.1-0.2-1-0.1-2.1-0.2-3.2-0.4-8.6-1.2-17.8-2.9-27.1-4.8-4.6-0.9-9.2-1.9-13.7-2.8-2.3-0.4-4.5-0.9-6.7-1.3-2.3-0.4-4.5-0.8-6.8-1.2-4.5-0.8-8.8-1.6-13.2-2.3-4.4-0.7-8.8-0.8-13-0.9-17 0.1-31.8 4-43.7 8.4-12 4.4-21.1 9.2-27.3 12.8-3.1 1.7-5.5 3.3-7.1 4.2q-2.4 1.5-2.4 1.5c0 0 0.9-0.4 2.6-1.2 1.7-0.7 4.2-2 7.4-3.3 6.5-2.8 15.9-6.6 27.9-9.8 11.9-3.2 26.5-5.8 42.5-5.2 4 0.3 8 0.6 12.1 1.4 4.2 0.9 8.4 1.8 12.8 2.6 8.8 1.9 18 3.8 27.3 5.7 9.4 1.8 18.5 3.4 27.6 4.4 1.2 0.1 2.3 0.2 3.5 0.3 1.1 0.1 2.6 0.1 3.5 0.1 2.2 0 4.3 0 6.4 0 4.3 0 8.6 0 12.8-0.2 8.3-0.4 16.3-1.3 23.6-2.6 7.3-1.5 14.1-3.5 20-5.8 12-4.7 20.7-10.9 26.1-15.9 0.7-0.6 1.4-1.2 2-1.7 0.6-0.6 1.1-1.1 1.6-1.7 1-1 1.8-1.9 2.5-2.6 1.3-1.4 2-2.1 2-2.1 0 0-0.8 0.6-2.2 1.9-0.7 0.9-1.6 1.6-2.7 2.5z"/>
	</g>
	<g id="Layer">
		<path id="Layer" class="s0" d="m97.3 436.4c4.9-0.4 10.5-1.3 16.8-2.3 1.6-0.3 3.1-0.4 4.9-0.9 0.9-0.2 1.7-0.4 2.6-0.6 0.9-0.2 1.7-0.6 2.6-0.9 3.5-1.3 6.9-3 10.5-4.8 7.2-3.7 14.8-7.8 23.3-10.8 8.5-3.1 17.9-5 27.9-4.6 6.9 0.2 14 1.7 21.1 4.2q1.8 1.1 3.6 2.1c3.4 1.9 6.8 3.7 10.1 5.4 3.3 1.7 6.5 3.2 9.7 4.6 0.8 0.3 1.6 0.7 2.4 1l1.2 0.5 0.6 0.3 0.8 0.3c2.1 0.8 3.6 1 5.3 1.3 6.6 0.9 12.6 0.8 18.1 0.1 11-1.4 19.5-5.4 24.7-9.2 2.6-2 4.5-3.6 5.6-5 1.2-1.3 1.8-1.9 1.8-1.9q0 0-2.1 1.5c-1.3 1.1-3.4 2.2-6.1 3.6-5.5 2.6-13.8 4.7-24.2 4.4-5.1-0.2-10.8-0.9-16.6-2.4-1.4-0.4-2.9-0.9-3.9-1.4l-0.4-0.2-0.5-0.3-1.1-0.6c-0.7-0.4-1.5-0.8-2.2-1.3-3-1.7-6-3.5-9.1-5.4-3.1-1.9-6.2-3.9-9.4-6-3.2-2.1-6.4-4.3-9.9-6.6-3.5-2.2-7.4-4.4-11.7-5.9-4.3-1.5-8.8-2.2-13.1-2.5-4.3-0.3-8.4-0.2-12.6 0-4.1 0.2-8.3 0.8-12.3 1.7-8.1 1.8-15.3 5-21.9 8.2-3.3 1.6-6.4 3.1-9.5 4.6-3.1 1.5-5.9 2.7-8.8 3.8-5.8 2.2-11.3 3.7-16.5 4.7-10.3 2-18.8 1.7-24.7 0.7-2.9-0.5-5.2-1-6.7-1.5-1.5-0.4-2.3-0.7-2.3-0.7 0 0 0.8 0.4 2.2 1.2 1.4 0.9 3.6 1.9 6.5 3 5.8 2.2 14.6 4.3 25.5 3.9 5.5-0.2 11.5-1 17.8-2.5 3.1-0.8 6.5-1.8 9.7-3 3.2-1.2 6.5-2.4 9.9-3.7 6.7-2.5 13.5-5 20.6-6.2 5.6-1 11.6-1.2 17.7-1.1-6.4 1-12.4 2.9-17.9 5.2-8.7 3.6-16.4 8.2-23.3 12.3-3.5 2-6.8 4-10 5.4-0.8 0.4-1.6 0.7-2.4 1.1-0.8 0.3-1.6 0.5-2.4 0.8-1.5 0.5-3.2 0.9-4.8 1.2-6.3 1.5-11.8 2.8-16.7 3.6-4.9 0.8-9 1.1-12.4 0.9-3.4-0.1-5.9-0.7-7.6-1-1.7-0.5-2.6-0.7-2.6-0.7q0 0 2.4 0.9c1.6 0.5 4.1 1.2 7.4 1.6 3.4 0.2 7.6 0.3 12.4-0.1z"/>
	</g>
	<path id="Layer" fill-rule="evenodd" class="s1" d="m427.3 407.3c-9.7 20.9-27.4 37.4-46.8 49.9-22.4 14.4-44.9 26.7-65.1 43.8-1.6 1.3-3.2 2.7-4.7 4.1-1.6-1.5-3.1-2.8-4.7-4.1-20.2-17-42.8-29.4-65.2-43.8-19.4-12.5-37.1-29.1-46.8-49.9l-16.7 5.8 4.8-60.6 8.9 9.7c0.1-0.2 0.2-0.4 0.3-0.5 0 0.2 0 0.5-0.1 0.7l32.1 34.7-15.1 5.2c21.6 25.9 55.1 35.5 83.6 51.3 1.7 1 3.3 1.8 4.9 2.7v-181.3c-21.7-12.7-58.1-17.5-58.1-17.5v-8.3h58.1v-20.1c-14.4-5.6-24.7-19.6-24.7-36 0-21.4 17.4-38.7 38.7-38.7 21.4 0 38.7 17.4 38.7 38.7 0 16.4-10.3 30.4-24.7 36v20.1h58.1v8.3c0 0-36.4 4.8-58.1 17.5v181.3c1.5-0.9 3.2-1.7 4.9-2.7 28.6-15.8 62-25.4 83.6-51.3l-15.1-5.3 32.2-34.7c0-0.2 0-0.5-0.1-0.7 0.1 0.2 0.2 0.3 0.3 0.5l8.9-9.7 4.8 60.6zm-131.5-214.1c0 8.3 6.7 15 15 15 8.3 0 15-6.7 15-15 0-8.3-6.7-15-15-15-8.3 0-15 6.7-15 15z"/>
	<path id="Layer" class="s2" d="m588.6 343.5c-0.6-2.3-1.5-4.4-2.6-6.3-3.2-5.2-8.4-8.7-14.4-9.7-7.8-1.3-15.6-2.4-23.5-3.5-2.5-0.3-5-0.7-7.5-1-0.5 2.8-0.4 5.5 0.3 8 0.2 0.7 0.4 1.3 0.6 1.9 0.2 0.6 0.5 1.2 0.8 1.8 0.5 1.2 1.2 2.4 2 3.5 3.1 4.4 8 8 14 9.5 7.5 1.8 15 3.8 22.5 5.9q3.9 1 7.8 2.1c0.4-1.7 0.7-3.3 0.8-4.9 0-1.6-0.1-3.3-0.3-4.8-0.2-0.9-0.3-1.7-0.5-2.5z"/>
	<path id="Layer" class="s2" d="m582.3 369.3c-1.3-2.7-3-5.2-5.2-7.1-2.3-1.9-4.9-3.4-7.9-4.3-7.6-2.2-15.3-4.3-22.9-6.3-2.4-0.6-4.9-1.3-7.3-1.9-0.8 2.7-0.9 5.4-0.5 8 0.1 0.7 0.2 1.3 0.3 2 0.4 1.9 1.1 3.8 2.1 5.5 2.7 4.8 6.9 8.9 12.7 11.1 7.3 2.7 14.5 5.6 21.7 8.5 2.5 1 5 2 7.5 3.1 1.2-3.2 1.7-6.5 1.7-9.7 0-0.8-0.1-1.6-0.2-2.4-0.4-2.3-1.1-4.5-2-6.5z"/>
	<path id="Layer" class="s2" d="m563.2 387.8c-7.2-3.1-14.6-6.1-22-9-2.3-0.9-4.7-1.9-7-2.8-1 2.6-1.6 5.2-1.6 7.9 0 0.7 0 1.4 0.1 2.1 0.2 2 0.8 3.9 1.5 5.7 1.9 5 5.8 9.7 11.3 12.5 6.9 3.6 13.7 7.3 20.5 11.1 2.3 1.3 4.7 2.6 7 3.9 1.7-3 2.5-6.2 2.8-9.4 0.1-0.8 0.1-1.6 0.1-2.4 0-2.3-0.3-4.6-1-6.8-2-5.7-6-10.4-11.7-12.8z"/>
	<path id="Layer" class="s2" d="m553.6 416.8c-6.9-4-13.8-7.8-20.7-11.6q-3.3-1.8-6.6-3.6c-1.4 2.4-2.2 5-2.5 7.6-0.1 0.7-0.1 1.3-0.2 2-0.1 2 0.2 3.9 0.7 5.9 1.5 5.3 4.6 10.3 9.7 13.8 6.4 4.4 12.7 8.9 19 13.5 2.2 1.6 4.3 3.2 6.5 4.8 1.9-2.8 3.3-5.9 4-9 0.2-0.8 0.3-1.6 0.4-2.4 0.2-2.3 0.1-4.6-0.3-6.8-1-5.9-4.7-11.1-10-14.2z"/>
	<path id="Layer" class="s2" d="m540.6 444.4c-6.3-4.8-12.7-9.4-19.2-14.1-2.1-1.5-4.1-2.9-6.2-4.4-1.6 2.3-2.8 4.7-3.4 7.3-0.2 0.7-0.3 1.3-0.4 2q-0.3 3 0 6c0.6 5.3 3.3 10.8 7.9 14.9 5.8 5.2 11.5 10.4 17.2 15.7 2 1.8 3.9 3.6 5.9 5.5 2.4-2.5 3.9-5.5 5-8.4 0.3-0.8 0.5-1.6 0.7-2.3 0.6-2.3 0.8-4.5 0.6-6.8-0.4-6.2-3.2-11.7-8.1-15.4z"/>
	<path id="Layer" class="s2" d="m507 453.9c-1.9-1.7-3.7-3.4-5.6-5.1-2 2-3.4 4.3-4.2 6.8-0.2 0.6-0.5 1.3-0.6 1.9-0.5 1.9-0.8 3.9-0.7 5.9 0.2 5.5 2 11.1 6.1 15.7 5.1 5.8 10.2 11.7 15.2 17.7 1.7 2.1 3.5 4.1 5.2 6.2 2.5-2.3 4.6-4.9 6-7.7 0.3-0.8 0.7-1.5 0.9-2.3 0.8-2.2 1.2-4.5 1.4-6.7 0.4-6-1.9-11.9-6.3-16.2q-8.7-8.1-17.4-16.2z"/>
	<path id="Layer" class="s2" d="m489.8 475.6c-1.6-1.9-3.3-3.8-4.9-5.7-2.1 1.8-3.8 3.9-5.1 6.2-0.3 0.6-0.6 1.2-0.9 1.9-0.7 1.8-1.1 3.8-1.4 5.8-0.6 5.3 0.6 11.3 4.1 16.3 4.4 6.4 8.7 12.9 13 19.3 1.5 2.3 2.9 4.5 4.4 6.7 2.9-1.8 5.1-4.4 6.8-7q0.6-1.1 1.2-2.1c1.1-2.1 1.9-4.2 2.2-6.5 1-6-0.4-12-4.3-16.8-4.8-6-9.9-12-15.1-18.1z"/>
	<path id="Layer" class="s2" d="m470.2 495.1q-2.1-3.2-4.2-6.3c-2.4 1.5-4.3 3.4-5.7 5.6-0.4 0.5-0.7 1.1-1.1 1.7-1 1.7-1.7 3.6-2.1 5.5-1.2 5.4-0.7 11.2 2.1 16.7 3.6 6.9 7.1 13.8 10.6 20.8q1.8 3.6 3.6 7.2c3-1.6 5.6-3.7 7.7-6.1 0.5-0.6 1-1.3 1.4-2 1.3-2 2.3-4 2.9-6.2 1.8-5.7 1-12-2.2-17.2-4.3-6.5-8.6-13.1-13-19.7z"/>
	<path id="Layer" class="s2" d="m448.3 512.1c-1.1-2.3-2.3-4.5-3.4-6.7-2.4 1.3-4.7 2.8-6.4 4.9-0.5 0.5-0.9 1.1-1.3 1.6-1.1 1.6-2 3.5-2.7 5.3-1.9 5-2.1 11.1 0.1 16.9 2.8 7.3 5.4 14.6 8 21.9 0.9 2.5 1.8 5 2.7 7.6 3.2-1.1 6-3 8.3-5.2 0.6-0.6 1.2-1.2 1.7-1.8 1.5-1.7 2.8-3.6 3.7-5.7 2.4-5.6 2.5-11.8-0.2-17.3-3.4-7.3-6.9-14.4-10.5-21.5z"/>
	<path id="Layer" class="s2" d="m424.6 526.3c-0.9-2.4-1.7-4.7-2.6-7.1-2.7 0.9-5 2.3-6.9 4.1-0.5 0.4-1 0.9-1.5 1.4-1.3 1.4-2.5 3.1-3.4 4.9-2.4 4.9-3.4 10.7-1.9 16.7 1.9 7.5 3.6 15.1 5.3 22.7 0.6 2.6 1.2 5.2 1.7 7.9 3.3-0.8 6.3-2.3 8.9-4.1 0.7-0.5 1.3-1 1.9-1.6 1.7-1.6 3.2-3.4 4.3-5.3 3.2-5.1 3.9-11.4 1.9-17.2-2.4-7.5-5-15-7.7-22.4z"/>
	<path id="Layer" class="s2" d="m399.3 537.6c-0.6-2.5-1.1-4.9-1.7-7.4-2.7 0.7-5.2 1.6-7.4 3.2-0.6 0.4-1.1 0.8-1.6 1.3-1.5 1.3-2.8 2.9-3.9 4.5-3 4.4-4.7 10.3-3.9 16.4 0.9 7.7 1.7 15.5 2.5 23.2 0.2 2.7 0.5 5.3 0.8 8 3.4-0.3 6.5-1.5 9.3-3 0.7-0.4 1.4-0.8 2.1-1.3 1.9-1.3 3.6-2.8 5-4.7 3.7-4.9 5.2-10.8 4-16.8-1.6-7.9-3.4-15.7-5.2-23.4z"/>
	<path id="Layer" class="s2" d="m372.9 545.6c-0.3-2.5-0.5-5-0.8-7.5-2.8 0.2-5.4 1-7.7 2.3-0.6 0.3-1.2 0.7-1.8 1q-2.4 1.6-4.5 3.9c-1.8 2-3.2 4.5-4.3 7.2-1 2.6-1.6 5.5-1.6 8.6 0 7.7-0.1 15.5-0.4 23.3-0.1 2.7-0.1 5.4-0.2 8.1 3.4 0 6.7-0.6 9.6-1.8 0.8-0.3 1.5-0.7 2.2-1.1 2-1.1 3.9-2.5 5.5-4.1 4.3-4.2 6.5-10.2 6-16.2-0.4-7.9-1.2-15.8-2-23.7z"/>
	<g id="Layer">
		<path id="Layer" class="s2" d="m337.9 544.3c-0.6 0.2-1.3 0.5-1.9 0.8-1.8 0.9-3.4 2-4.9 3.4-4 3.6-7 8.8-7.7 14.9-0.9 7.7-2 15.4-3.1 23.1-0.4 2.7-0.8 5.3-1.2 8 3.4 0.4 6.7 0.1 9.8-0.8 0.8-0.2 1.6-0.5 2.3-0.7 0.7-0.3 1.4-0.6 2-0.9 1.4-0.7 2.7-1.6 3.9-2.5 4.7-3.8 7.7-9.2 7.9-15.3 0.3-7.9 0.5-15.9 0.7-23.8 0-2.5 0.1-5 0.1-7.6-1.4 0-2.8 0.1-4.1 0.3-1.3 0.3-2.6 0.6-3.8 1.1z"/>
	</g>
	<path id="Layer" class="s2" d="m311 544.9c-0.7 0.2-1.3 0.4-1.9 0.6-0.6 0.2-1.2 0.5-1.8 0.8-1.2 0.5-2.4 1.2-3.5 2-4.4 3.1-8 8-9.5 14-1.8 7.5-3.8 15-5.9 22.5q-1 3.9-2.1 7.8c1.7 0.4 3.3 0.7 4.9 0.8 1.6 0 3.3-0.1 4.8-0.3 0.8-0.1 1.6-0.3 2.4-0.5 2.3-0.6 4.4-1.5 6.3-2.6 5.2-3.2 8.7-8.4 9.7-14.4 1.3-7.8 2.4-15.6 3.5-23.4 0.3-2.5 0.7-5 1-7.5-2.6-0.6-5.3-0.5-7.9 0.2z"/>
	<path id="Layer" class="s2" d="m292.3 542.9c-2.7-0.8-5.4-0.9-8-0.5-0.7 0.1-1.3 0.2-2 0.3-1.9 0.4-3.8 1.1-5.5 2.1-4.8 2.7-8.9 6.9-11.1 12.7-2.7 7.3-5.6 14.5-8.6 21.7-1 2.5-2 5-3.1 7.5 3.2 1.2 6.5 1.7 9.7 1.7 0.8 0 1.6-0.1 2.4-0.2 2.3-0.3 4.5-1 6.6-1.9 2.7-1.3 5.2-3 7.1-5.2 1.9-2.2 3.4-4.9 4.3-7.9 2.2-7.6 4.3-15.3 6.3-22.9 0.7-2.5 1.3-4.9 1.9-7.4z"/>
	<path id="Layer" class="s2" d="m263.2 545.2c0.9-2.3 1.9-4.7 2.8-7-2.6-1-5.2-1.6-7.9-1.6-0.7 0-1.4 0-2.1 0.1-2 0.2-3.9 0.8-5.7 1.5-5 1.9-9.7 5.8-12.5 11.3-3.6 6.9-7.3 13.7-11.1 20.5-1.3 2.3-2.6 4.7-3.9 7 3 1.7 6.2 2.5 9.4 2.8 0.8 0.1 1.6 0.1 2.4 0.1 2.3 0 4.6-0.3 6.8-1 5.8-1.9 10.5-6 12.9-11.6 3-7.4 6-14.7 8.9-22.1z"/>
	<path id="Layer" class="s2" d="m236.9 536.8q1.8-3.3 3.6-6.6c-2.4-1.4-5-2.2-7.6-2.4-0.7-0.1-1.3-0.1-2-0.2-2-0.1-3.9 0.2-5.9 0.7-5.3 1.5-10.3 4.6-13.8 9.7-4.4 6.4-8.9 12.7-13.5 19-1.6 2.2-3.2 4.4-4.8 6.5 2.8 1.9 5.9 3.3 9 4 0.8 0.2 1.6 0.3 2.4 0.4 2.3 0.2 4.6 0.1 6.8-0.3 5.9-1 11.1-4.7 14.2-10 4-6.9 7.8-13.8 11.6-20.8z"/>
	<path id="Layer" class="s2" d="m197.7 544.6c4.8-6.3 9.4-12.7 14-19.2 1.5-2.1 3-4.1 4.4-6.2-2.3-1.6-4.7-2.8-7.3-3.4-0.7-0.2-1.3-0.3-2-0.4q-3-0.3-6 0c-5.3 0.6-10.8 3.3-14.9 7.9-5.2 5.8-10.4 11.5-15.7 17.2-1.8 2-3.6 3.9-5.5 5.9 2.5 2.4 5.5 3.9 8.4 5 0.8 0.3 1.6 0.5 2.3 0.7 2.3 0.6 4.5 0.8 6.8 0.6 6.3-0.4 11.8-3.2 15.5-8.1z"/>
	<path id="Layer" class="s2" d="m188.1 510.9c1.7-1.9 3.4-3.7 5.1-5.6-2-2-4.3-3.3-6.8-4.2-0.6-0.2-1.3-0.5-1.9-0.6-1.9-0.5-3.9-0.8-5.9-0.7-5.5 0.2-11.1 2-15.7 6.1-5.8 5.1-11.7 10.2-17.7 15.2-2.1 1.7-4.1 3.5-6.2 5.2 2.3 2.5 4.9 4.6 7.7 6 0.8 0.3 1.5 0.7 2.3 0.9 2.2 0.8 4.5 1.2 6.7 1.4 6 0.4 11.9-1.9 16.2-6.3q8.2-8.7 16.2-17.4z"/>
	<path id="Layer" class="s2" d="m166.4 493.8c1.9-1.6 3.8-3.3 5.7-4.9-1.8-2.1-3.9-3.8-6.2-5-0.6-0.3-1.2-0.6-1.9-0.9-1.8-0.7-3.8-1.1-5.8-1.4-5.3-0.6-11.3 0.6-16.3 4.1-6.4 4.4-12.9 8.7-19.3 13-2.2 1.5-4.5 2.9-6.7 4.4 1.8 2.9 4.4 5.1 7 6.8q1 0.6 2.1 1.2c2.1 1.1 4.2 1.9 6.5 2.2 6 1 12-0.4 16.8-4.3 6-4.9 12.1-10.1 18.1-15.2z"/>
	<path id="Layer" class="s2" d="m127.1 487.1c6.7-4.2 13.3-8.6 19.9-13q3.2-2.1 6.3-4.2c-1.5-2.4-3.4-4.3-5.6-5.7-0.5-0.4-1.1-0.8-1.7-1.1-1.7-1-3.6-1.7-5.5-2.1-5.4-1.2-11.2-0.7-16.7 2.1-6.9 3.6-13.8 7.1-20.8 10.6q-3.6 1.8-7.2 3.6c1.6 3 3.7 5.6 6.1 7.7 0.6 0.5 1.3 1 2 1.4 2 1.3 4 2.3 6.2 2.9 5.5 1.8 11.8 1 17-2.2z"/>
	<path id="Layer" class="s2" d="m108.6 462.7q10.7-5.1 21.3-10.5c2.2-1.1 4.5-2.3 6.7-3.4-1.3-2.4-2.8-4.7-4.8-6.4-0.5-0.5-1.1-0.9-1.6-1.3-1.6-1.1-3.4-2-5.3-2.7-5-1.9-11.1-2.1-16.9 0.1-7.3 2.8-14.6 5.4-21.9 8-2.5 0.9-5 1.8-7.6 2.7 1.1 3.2 3 6 5.2 8.3 0.6 0.6 1.2 1.2 1.8 1.7 1.7 1.5 3.6 2.8 5.7 3.7 5.7 2.4 11.9 2.5 17.4-0.2z"/>
	<path id="Layer" class="s2" d="m93.3 436.4c7.5-2.5 15-5.1 22.4-7.8 2.4-0.9 4.7-1.7 7.1-2.6-0.9-2.7-2.3-4.9-4.1-6.9-0.4-0.5-0.9-1-1.4-1.5-1.4-1.3-3.1-2.5-4.9-3.4-4.9-2.4-10.7-3.4-16.7-1.9-7.5 1.9-15.1 3.6-22.7 5.3-2.6 0.6-5.2 1.2-7.9 1.7 0.8 3.3 2.3 6.3 4.1 8.9 0.5 0.7 1 1.3 1.6 1.9 1.6 1.7 3.4 3.2 5.3 4.3 5.1 3.2 11.4 3.9 17.2 2z"/>
	<path id="Layer" class="s2" d="m81.3 408.3c7.7-1.6 15.5-3.3 23.2-5.1 2.5-0.6 4.9-1.1 7.4-1.7-0.7-2.7-1.6-5.2-3.2-7.4-0.4-0.6-0.8-1.1-1.3-1.6-1.3-1.5-2.9-2.8-4.5-3.9-4.4-3-10.3-4.7-16.4-3.9-7.7 0.9-15.4 1.7-23.2 2.5-2.7 0.3-5.3 0.5-8 0.8 0.3 3.4 1.5 6.5 3 9.3 0.4 0.7 0.8 1.4 1.3 2.1 1.3 1.9 2.8 3.6 4.7 5 5 3.6 11 5.2 17 3.9z"/>
	<path id="Layer" class="s2" d="m72.8 379c7.9-0.6 15.8-1.4 23.7-2.2 2.5-0.3 5-0.5 7.5-0.8-0.2-2.8-1-5.4-2.3-7.7-0.3-0.6-0.7-1.2-1-1.8q-1.7-2.4-3.9-4.5c-2-1.8-4.5-3.2-7.2-4.3-2.6-1-5.5-1.6-8.6-1.6-7.7 0-15.5-0.2-23.3-0.4-2.7-0.1-5.4-0.1-8.1-0.2 0 3.4 0.6 6.7 1.8 9.6 0.3 0.8 0.7 1.5 1.1 2.2 1.1 2 2.5 3.9 4.1 5.5 4.1 4.5 10.1 6.7 16.2 6.2z"/>
	<path id="Layer" class="s2" d="m52.4 341c3.8 4.7 9.2 7.7 15.3 7.9 7.9 0.3 15.9 0.5 23.8 0.7 2.5 0 5 0.1 7.6 0.1 0-1.4-0.1-2.8-0.3-4.1-0.2-1.3-0.5-2.6-1-3.8-0.2-0.6-0.5-1.3-0.8-1.9-0.9-1.8-2-3.4-3.4-4.9-3.6-4-8.8-7-14.9-7.7-7.7-0.9-15.4-2-23.1-3.1-2.7-0.4-5.3-0.8-8-1.2-0.4 3.4-0.1 6.7 0.8 9.8 0.2 0.8 0.5 1.6 0.7 2.3q0.5 1 0.9 2.1c0.6 1.3 1.5 2.6 2.4 3.8z"/>
	<path id="Layer" class="s2" d="m49.6 302.5c0.6 2.3 1.5 4.4 2.6 6.3 3.2 5.2 8.4 8.7 14.4 9.7 7.8 1.3 15.6 2.4 23.4 3.5 2.5 0.3 5 0.7 7.5 1 0.5-2.8 0.4-5.5-0.3-8-0.2-0.7-0.4-1.3-0.6-1.9-0.2-0.6-0.5-1.2-0.8-1.8-0.5-1.2-1.2-2.4-2-3.5-3.1-4.4-8-8-14-9.5-7.5-1.8-15-3.8-22.5-5.9q-3.9-1-7.8-2.1c-0.4 1.6-0.7 3.3-0.8 4.9 0 1.6 0.1 3.3 0.3 4.8 0.2 0.9 0.4 1.7 0.6 2.5z"/>
	<path id="Layer" class="s2" d="m55.9 276.7c1.3 2.7 3 5.2 5.2 7.1 2.2 1.9 4.9 3.4 7.9 4.3 7.6 2.2 15.3 4.3 22.9 6.3 2.4 0.6 4.9 1.3 7.3 1.9 0.8-2.7 0.9-5.4 0.5-8-0.1-0.7-0.2-1.3-0.3-2-0.4-1.9-1.1-3.8-2.1-5.5-2.7-4.8-6.9-8.9-12.7-11.1-7.3-2.7-14.5-5.6-21.7-8.5-2.5-1-5-2-7.5-3.1-1.2 3.2-1.7 6.5-1.7 9.7 0 0.8 0.1 1.6 0.2 2.4 0.4 2.2 1 4.5 2 6.5z"/>
	<path id="Layer" class="s2" d="m74.9 258.1c7.3 3.1 14.6 6.1 22 9 2.3 0.9 4.7 1.9 7 2.8 1-2.6 1.6-5.2 1.6-7.9 0-0.7 0-1.4-0.1-2.1-0.2-2-0.8-3.9-1.5-5.7-1.9-5-5.8-9.7-11.3-12.5-6.9-3.6-13.7-7.3-20.5-11.1-2.3-1.3-4.7-2.6-7-3.9-1.7 3-2.5 6.2-2.8 9.4-0.1 0.8-0.1 1.6-0.1 2.4 0 2.3 0.3 4.6 1 6.8 2 5.8 6 10.4 11.7 12.8z"/>
	<path id="Layer" class="s2" d="m84.5 229.2c6.9 4 13.8 7.8 20.7 11.6q3.3 1.8 6.6 3.6c1.4-2.4 2.2-5 2.5-7.6 0.1-0.7 0.1-1.3 0.2-2 0.1-2-0.2-3.9-0.7-5.9-1.5-5.3-4.6-10.3-9.6-13.8-6.4-4.4-12.7-8.9-19-13.5-2.2-1.6-4.4-3.2-6.5-4.8-1.9 2.8-3.3 5.9-4 9-0.2 0.8-0.3 1.6-0.4 2.4-0.2 2.3-0.1 4.6 0.3 6.8 1 5.9 4.6 11.1 9.9 14.2z"/>
	<path id="Layer" class="s2" d="m97.5 201.6c6.3 4.8 12.7 9.4 19.2 14 2.1 1.5 4.1 3 6.2 4.4 1.6-2.3 2.8-4.7 3.4-7.3 0.2-0.7 0.3-1.3 0.4-2q0.3-3 0-6c-0.7-5.3-3.3-10.8-7.9-14.9-5.8-5.2-11.5-10.4-17.2-15.7-2-1.8-3.9-3.6-5.9-5.5-2.4 2.5-3.9 5.5-5 8.4-0.3 0.8-0.5 1.6-0.7 2.3-0.6 2.2-0.8 4.5-0.6 6.8 0.4 6.3 3.2 11.8 8.1 15.5z"/>
	<path id="Layer" class="s2" d="m131.1 192.1c1.9 1.7 3.7 3.4 5.6 5.1 2-2 3.3-4.3 4.2-6.8 0.2-0.6 0.5-1.3 0.6-1.9 0.5-1.9 0.8-3.9 0.7-5.9-0.1-5.5-2-11.1-6.1-15.7-5.1-5.8-10.2-11.7-15.2-17.7-1.7-2.1-3.5-4.1-5.2-6.2-2.5 2.3-4.6 4.9-6 7.7-0.3 0.8-0.7 1.5-0.9 2.3-0.8 2.2-1.2 4.5-1.4 6.7-0.4 6 1.9 11.9 6.3 16.2q8.7 8.1 17.4 16.2z"/>
	<path id="Layer" class="s2" d="m148.3 170.4c1.6 1.9 3.3 3.8 4.9 5.7 2.1-1.8 3.8-3.9 5.1-6.2 0.3-0.6 0.6-1.2 0.8-1.9 0.7-1.8 1.1-3.8 1.4-5.8 0.6-5.3-0.6-11.3-4.1-16.3-4.4-6.4-8.7-12.9-13-19.3-1.5-2.2-2.9-4.5-4.4-6.7-2.9 1.8-5.1 4.4-6.8 7q-0.6 1-1.2 2.1c-1.1 2.1-1.9 4.2-2.2 6.5-1 6 0.4 12 4.3 16.8 4.9 6 10 12 15.2 18.1z"/>
	<path id="Layer" class="s2" d="m168 150.9q2.1 3.1 4.2 6.3c2.4-1.5 4.3-3.4 5.7-5.6 0.4-0.5 0.8-1.1 1.1-1.7 1-1.7 1.7-3.6 2.1-5.5 1.2-5.4 0.7-11.2-2.1-16.7-3.6-6.9-7.1-13.8-10.6-20.8q-1.8-3.6-3.6-7.2c-3 1.6-5.6 3.7-7.7 6.1-0.5 0.6-1 1.3-1.4 2-1.3 2-2.3 4-2.9 6.2-1.8 5.7-1 12 2.2 17.2 4.2 6.5 8.6 13.1 13 19.7z"/>
	<path id="Layer" class="s2" d="m189.8 133.9c1.1 2.2 2.3 4.5 3.4 6.7 2.5-1.3 4.7-2.8 6.4-4.8 0.5-0.5 0.9-1.1 1.3-1.6 1.1-1.6 2-3.4 2.7-5.3 1.9-5 2.1-11.1-0.1-16.9-2.8-7.3-5.4-14.6-8-21.9-0.9-2.5-1.8-5-2.7-7.6-3.2 1.1-6 3-8.3 5.2-0.6 0.6-1.2 1.2-1.7 1.8-1.5 1.7-2.8 3.6-3.7 5.7-2.4 5.6-2.5 11.8 0.2 17.3 3.4 7.2 6.9 14.3 10.5 21.4z"/>
	<path id="Layer" class="s2" d="m213.5 119.7c0.9 2.4 1.7 4.7 2.6 7.1 2.7-0.9 4.9-2.3 6.9-4.1 0.5-0.4 1-0.9 1.5-1.4 1.3-1.4 2.5-3.1 3.4-4.9 2.4-4.9 3.4-10.7 1.9-16.7-1.9-7.5-3.6-15.1-5.3-22.7-0.6-2.6-1.2-5.2-1.7-7.9-3.3 0.8-6.3 2.3-8.9 4.1-0.7 0.5-1.3 1-1.9 1.6-1.7 1.6-3.2 3.4-4.3 5.3-3.1 5.1-3.9 11.4-1.9 17.2 2.4 7.5 5 15 7.7 22.4z"/>
	<path id="Layer" class="s2" d="m238.8 108.4c0.6 2.5 1.1 4.9 1.7 7.4 2.7-0.7 5.2-1.6 7.4-3.2 0.6-0.4 1.1-0.8 1.6-1.3 1.5-1.3 2.8-2.9 3.9-4.5 3-4.4 4.7-10.3 3.9-16.4-0.9-7.7-1.7-15.4-2.5-23.2-0.3-2.7-0.5-5.3-0.8-8-3.4 0.3-6.5 1.5-9.3 3-0.7 0.4-1.4 0.8-2.1 1.3-1.9 1.3-3.6 2.8-5 4.7-3.7 4.9-5.2 10.8-4 16.9 1.7 7.8 3.4 15.6 5.2 23.3z"/>
	<path id="Layer" class="s2" d="m265.2 100.3c0.3 2.5 0.5 5 0.8 7.5 2.8-0.2 5.4-1 7.7-2.3 0.6-0.3 1.2-0.7 1.8-1q2.4-1.7 4.5-3.9c1.8-2 3.2-4.5 4.3-7.2 1-2.6 1.6-5.5 1.6-8.6 0-7.7 0.2-15.5 0.4-23.3 0.1-2.7 0.1-5.4 0.2-8.1-3.4 0-6.7 0.6-9.6 1.8-0.8 0.3-1.5 0.7-2.2 1.1-2 1.1-3.9 2.5-5.5 4.1-4.3 4.2-6.5 10.2-6 16.3 0.4 7.9 1.2 15.8 2 23.6z"/>
	<path id="Layer" class="s2" d="m300.2 101.7c0.6-0.2 1.3-0.5 1.9-0.8 1.8-0.9 3.4-2 4.9-3.4 4-3.6 7-8.8 7.7-14.9 0.9-7.7 2-15.4 3.1-23.1 0.4-2.7 0.8-5.3 1.2-8-3.4-0.4-6.7-0.1-9.8 0.8-0.8 0.2-1.6 0.5-2.3 0.8q-1 0.5-2.1 0.9c-1.4 0.7-2.7 1.6-3.9 2.5-4.7 3.8-7.7 9.2-7.9 15.3-0.3 7.9-0.5 15.9-0.7 23.8 0 2.5-0.1 5-0.1 7.6 1.4 0 2.8-0.1 4.1-0.3 1.4-0.4 2.7-0.7 3.9-1.2z"/>
	<path id="Layer" class="s2" d="m327.1 101.1c0.7-0.2 1.3-0.4 1.9-0.6 0.6-0.2 1.2-0.5 1.8-0.8 1.2-0.5 2.4-1.2 3.5-2 4.4-3.1 8-8 9.5-14 1.8-7.5 3.8-15 5.9-22.5q1-3.9 2.1-7.8c-1.7-0.4-3.3-0.7-4.9-0.8-1.6 0-3.3 0.1-4.8 0.3-0.8 0.1-1.6 0.3-2.4 0.5-2.3 0.6-4.4 1.5-6.3 2.6-5.2 3.2-8.7 8.4-9.7 14.4-1.3 7.8-2.4 15.6-3.5 23.4-0.3 2.5-0.7 5-1 7.5 2.6 0.6 5.3 0.5 7.9-0.2z"/>
	<path id="Layer" class="s2" d="m345.8 103.1c2.7 0.8 5.4 0.9 8 0.5 0.7-0.1 1.3-0.2 2-0.3 1.9-0.4 3.8-1.1 5.5-2.1 4.8-2.7 8.9-6.9 11.1-12.7 2.7-7.3 5.6-14.5 8.5-21.7 1-2.5 2-5 3.1-7.5-3.2-1.2-6.5-1.7-9.7-1.7-0.8 0-1.6 0.1-2.4 0.2-2.3 0.3-4.5 1-6.6 1.9-2.7 1.3-5.2 3-7.1 5.2-1.9 2.2-3.4 4.9-4.3 7.9-2.2 7.6-4.3 15.3-6.3 22.9-0.5 2.5-1.2 4.9-1.8 7.4z"/>
	<path id="Layer" class="s2" d="m374.9 100.8c-0.9 2.3-1.9 4.7-2.8 7 2.6 1 5.2 1.6 7.9 1.6 0.7 0 1.4 0 2.1-0.1 2-0.2 3.9-0.8 5.7-1.5 5-1.9 9.7-5.8 12.5-11.3 3.6-6.9 7.3-13.7 11.1-20.5 1.3-2.3 2.6-4.7 3.9-7-3-1.7-6.2-2.5-9.4-2.8-0.8-0.1-1.6-0.1-2.4-0.1-2.3 0-4.6 0.3-6.7 1-5.8 1.9-10.5 6-12.9 11.6-3.1 7.4-6.1 14.7-9 22.1z"/>
	<path id="Layer" class="s2" d="m401.3 109.2q-1.8 3.3-3.6 6.6c2.4 1.4 5 2.2 7.6 2.4 0.7 0.1 1.3 0.1 2 0.2 2 0.1 3.9-0.2 5.9-0.7 5.3-1.5 10.3-4.6 13.8-9.7 4.4-6.4 8.9-12.7 13.5-19 1.6-2.2 3.2-4.4 4.8-6.5-2.8-1.9-5.9-3.3-9-4-0.8-0.2-1.6-0.3-2.4-0.4-2.3-0.2-4.6-0.1-6.8 0.3-5.9 1-11.1 4.7-14.2 10-4 6.9-7.9 13.8-11.6 20.8z"/>
	<path id="Layer" class="s2" d="m440.5 101.4c-4.8 6.3-9.4 12.7-14 19.2-1.5 2.1-3 4.1-4.4 6.2 2.3 1.6 4.7 2.8 7.3 3.4 0.7 0.2 1.3 0.3 2 0.4q3 0.3 6 0c5.3-0.6 10.8-3.3 14.9-7.9 5.2-5.8 10.4-11.5 15.7-17.2 1.8-2 3.6-3.9 5.5-5.9-2.5-2.4-5.5-3.9-8.4-5-0.8-0.3-1.6-0.5-2.4-0.7-2.2-0.6-4.5-0.8-6.8-0.6-6.2 0.4-11.7 3.2-15.4 8.1z"/>
	<path id="Layer" class="s2" d="m450 135.1c-1.7 1.9-3.4 3.7-5.1 5.6 2 2 4.3 3.3 6.8 4.2 0.6 0.3 1.3 0.5 1.9 0.6 1.9 0.5 3.9 0.8 5.9 0.7 5.5-0.2 11.1-2 15.7-6.1 5.8-5.1 11.7-10.2 17.7-15.2 2.1-1.7 4.1-3.5 6.2-5.2-2.3-2.5-4.9-4.6-7.7-6-0.8-0.3-1.5-0.7-2.3-0.9-2.2-0.8-4.5-1.2-6.7-1.4-6-0.4-11.9 1.9-16.2 6.3q-8.2 8.5-16.2 17.4z"/>
	<path id="Layer" class="s2" d="m471.7 152.2c-1.9 1.6-3.8 3.3-5.7 4.9 1.8 2.1 3.9 3.8 6.2 5.1 0.6 0.3 1.2 0.6 1.9 0.8 1.8 0.7 3.8 1.1 5.8 1.4 5.3 0.6 11.3-0.6 16.3-4.1 6.4-4.4 12.9-8.7 19.3-13 2.2-1.5 4.5-2.9 6.7-4.4-1.8-2.9-4.4-5.1-7-6.8q-1.1-0.6-2.1-1.2c-2.1-1.1-4.2-1.9-6.5-2.2-6-1-12 0.4-16.8 4.3-6 4.9-12.1 10.1-18.1 15.2z"/>
	<path id="Layer" class="s2" d="m511.1 158.9c-6.7 4.2-13.3 8.6-19.9 13q-3.2 2.1-6.3 4.2c1.5 2.4 3.4 4.3 5.6 5.7 0.5 0.4 1.1 0.8 1.7 1.1 1.7 1 3.6 1.7 5.5 2.1 5.4 1.2 11.2 0.7 16.7-2.1 6.9-3.6 13.8-7.1 20.8-10.6q3.6-1.8 7.2-3.6c-1.6-3-3.7-5.6-6.1-7.7-0.6-0.5-1.3-1-2-1.4-2-1.3-4-2.3-6.2-2.9-5.6-1.8-11.8-1.1-17 2.2z"/>
	<path id="Layer" class="s2" d="m529.5 183.2q-10.7 5.1-21.3 10.5c-2.3 1.1-4.5 2.3-6.7 3.4 1.3 2.4 2.8 4.7 4.8 6.4 0.5 0.5 1.1 0.9 1.6 1.3 1.6 1.1 3.4 2 5.3 2.7 5 1.9 11.1 2.1 16.9-0.1 7.3-2.8 14.6-5.4 21.9-8 2.5-0.9 5-1.8 7.6-2.7-1.1-3.2-3-6-5.2-8.3-0.6-0.6-1.2-1.2-1.8-1.7-1.7-1.5-3.6-2.8-5.7-3.7-5.7-2.3-11.9-2.4-17.4 0.2z"/>
	<path id="Layer" class="s2" d="m544.8 209.6c-7.5 2.5-15 5.1-22.4 7.8-2.4 0.9-4.7 1.7-7.1 2.6 0.9 2.7 2.3 4.9 4.1 6.9 0.4 0.5 0.9 1 1.4 1.5 1.4 1.3 3.1 2.5 4.9 3.4 4.9 2.4 10.7 3.4 16.7 1.9 7.5-1.9 15.1-3.6 22.7-5.3 2.6-0.6 5.2-1.2 7.9-1.7-0.8-3.3-2.3-6.3-4.1-8.9-0.5-0.7-1-1.3-1.6-1.9-1.6-1.7-3.4-3.2-5.3-4.3-5.1-3.2-11.4-3.9-17.2-2z"/>
	<path id="Layer" class="s2" d="m556.9 237.7c-7.7 1.6-15.5 3.3-23.2 5.1-2.5 0.6-4.9 1.1-7.4 1.7 0.7 2.7 1.6 5.2 3.2 7.4 0.4 0.6 0.8 1.1 1.3 1.6 1.3 1.5 2.9 2.8 4.5 3.9 4.4 3 10.3 4.7 16.4 3.9 7.7-0.9 15.5-1.7 23.2-2.5 2.7-0.2 5.3-0.5 8-0.8-0.3-3.4-1.5-6.5-3-9.3-0.4-0.7-0.8-1.4-1.3-2.1-1.3-1.9-2.8-3.6-4.7-5-5-3.6-11-5.2-17-3.9z"/>
	<path id="Layer" class="s2" d="m565.4 267c-7.9 0.6-15.8 1.4-23.7 2.2-2.5 0.3-5 0.5-7.5 0.8 0.2 2.8 1 5.4 2.3 7.7 0.3 0.6 0.7 1.2 1 1.8q1.6 2.4 3.9 4.5c2 1.8 4.5 3.2 7.2 4.3 2.6 1 5.5 1.6 8.6 1.6 7.7 0 15.5 0.1 23.3 0.4 2.7 0.1 5.4 0.1 8.1 0.2 0-3.4-0.6-6.7-1.8-9.6-0.3-0.8-0.7-1.5-1.1-2.2-1.1-2-2.5-3.9-4.1-5.5-4.1-4.5-10.1-6.7-16.2-6.2z"/>
	<g id="Layer">
		<path id="Layer" class="s2" d="m589.9 313.2c-0.2-0.8-0.5-1.6-0.8-2.3-0.3-0.7-0.5-1.4-0.9-2.1-0.7-1.4-1.6-2.7-2.5-3.9-3.8-4.7-9.2-7.7-15.3-7.9-7.9-0.3-15.9-0.5-23.8-0.7-2.5 0-5-0.1-7.6-0.1 0 1.4 0.1 2.8 0.3 4.1 0.2 1.3 0.5 2.6 1 3.8 0.2 0.6 0.5 1.3 0.8 1.9 0.9 1.8 2 3.4 3.4 4.9 3.6 4 8.8 7 14.9 7.7 7.7 0.9 15.4 2 23.1 3.1 2.7 0.4 5.3 0.8 8 1.2 0.5-3.3 0.2-6.6-0.6-9.7z"/>
	</g>
	<g id="Layer">
		<g id="Layer">
			<path id="Layer" fill-rule="evenodd" class="s3" d="m24.8 305.5c0.7 0.7 1.3 1.9 1.9 3.4 0.5 1.6 0.8 3 0.8 4.5-0.1 2.6-0.8 4.9-2.2 6.7-1.4 1.8-3.1 2.8-5.1 2.8-1.9 0-3.6-1.2-5.1-3.5-1.5-2.4-2.1-5-2.1-7.9 0-0.5 0-0.8 0-1.3 0-0.2 0.1-0.6 0.2-1.3 0-0.2 0.1-0.3 0.1-0.5 0-0.2 0.1-0.4 0.2-0.6 0.1-0.2 0.1-0.4 0.2-0.6 0.1-0.2 0.1-0.4 0.2-0.6-0.5 0-0.7 0-1.2-0.1q-0.9 0-1.5-1.2c-0.4-0.8-0.5-1.8-0.4-2.9 0.1-1 0.3-2 0.7-2.7 0.4-0.7 0.9-1.1 1.6-1.1 2.1-0.1 3.1-0.2 5.2-0.3 0.5 0 0.8-0.1 1-0.5 0.1-0.2 0.2-0.5 0.2-0.9 0.1-0.6 0.1-1 0.2-1.6 3.3 0.3 5 0.5 8.3 0.8-0.1 2-0.2 3-0.3 5-0.1 1-0.4 2-0.9 2.8-0.5 0.9-1.2 1.4-2 1.6zm-24 7.8c0-1.2 0.3-2.1 0.6-2.8 0.4-0.7 0.9-1 1.5-1 0.3 0 0.5 0.1 0.8 0.3 0.2 0.2 0.5 0.5 0.7 0.8 0.4 0.7 0.6 1.6 0.5 2.8q0 1.6-0.6 2.7c-0.4 0.7-0.9 1-1.5 1-0.6 0-1.1-0.4-1.4-1.1q-0.6-0.9-0.6-2.7zm18-7c-0.7 0.1-1 0.1-1.7 0.2-0.4 1-0.6 2.1-0.6 3.2 0 0.9 0.1 1.6 0.3 2.2 0.2 0.6 0.5 1 1 1.2 0.1 0 0.1 0 0.2 0 0.3 0 0.7-0.3 1-1 0.3-0.6 0.4-1.5 0.4-2.5-0.1-1-0.3-2.2-0.6-3.3zm-17.7-2.2c0-1.1 0.3-2 0.7-2.6q0.6-1.1 1.5-0.9c0.6 0 1.1 0.4 1.4 1.1 0.4 0.7 0.5 1.6 0.5 2.7-0.1 1.2-0.3 2.1-0.7 2.8-0.4 0.6-0.9 0.9-1.6 0.9-0.6 0-1.1-0.4-1.4-1.1-0.2-0.8-0.4-1.7-0.4-2.9z"/>
			<path id="Layer" class="s3" d="m19.4 301.5c0.4-7.2 0.7-10.7 1.4-17.6q0.1-0.9-0.3-1.8c-0.1-0.2-0.3-0.4-0.5-0.6-0.2-0.2-0.4-0.3-0.7-0.3-1.6 0.1-2.4 0.1-4 0.1-0.7-0.1-1.3-0.6-1.6-1.5-0.4-0.9-0.5-1.9-0.3-3.1 0.1-1.2 0.5-2.2 1-2.9 0.6-0.7 1.2-1 1.9-0.9 4.2 0.3 6.4 0.4 10.6 0.7 0.9 0.1 1.6 0.9 2.1 2.3 0.5 1.4 0.6 3 0.4 4.8-0.7 5.8-0.9 8.7-1.4 14.7 0 0.6-0.1 1-0.1 1.3 0 0.2-0.1 0.6-0.2 1-0.2 0.7-0.4 1.4-0.6 1.9-0.6 1.4-1.4 2.1-2.4 2-2.1 0.1-3.1 0-5.3-0.1zm11.3-14.7c0-0.5 0.1-0.9 0.2-1.1 0.1-0.3 0.1-0.5 0.2-0.7 0.1-0.2 0.2-0.3 0.3-0.5 0.4-0.5 0.9-0.8 1.4-0.7 0.5 0.1 0.9 0.4 1.3 1.1 0.2 0.3 0.3 0.7 0.3 1.1 0.1 0.4 0.1 0.8 0 1.3-0.1 1-0.3 1.8-0.8 2.3-0.4 0.5-0.9 0.8-1.4 0.7-0.5-0.1-0.9-0.4-1.2-1-0.3-0.7-0.4-1.5-0.3-2.5zm1.1-7.9c0.1-0.9 0.4-1.6 0.8-2.2 0.4-0.6 0.9-0.8 1.5-0.7 0.5 0.1 0.9 0.5 1.2 1.1q0.5 0.9 0.3 2.4c-0.1 0.9-0.4 1.7-0.8 2.3-0.4 0.5-0.9 0.8-1.4 0.7-0.5-0.1-1-0.4-1.2-1.1-0.4-0.7-0.5-1.5-0.4-2.5z"/>
			<path id="Layer" class="s3" d="m33.4 271.9c-0.1-0.4-0.2-0.9-0.3-1.3-0.2-0.5-0.2-0.7-0.4-1.2-0.5-1.1-1-1.7-1.6-1.8-5.8-0.3-8.7-0.4-14.5-0.6-0.1 0-0.2 0-0.3-0.1-0.7-0.1-1.2-0.7-1.6-1.7 0-0.1-0.1-0.2-0.1-0.3 0-0.2 0-0.2-0.1-0.4-0.1-0.3-0.1-0.5-0.2-0.8 0-0.3 0-0.5 0-0.8 0-0.4 0.1-0.5 0.1-0.9 0.2-1 0.6-2 1.3-2.7 0.6-0.6 1.4-0.8 2.2-0.7 6.7 0.6 10 0.9 16.7 1.6 1.3 0.3 2.4 1.5 3.2 3.4 0.8 1.7 1 3.5 0.8 5.2q0 0.2 0 0.3c-0.2 1.1-0.8 2.1-1.7 3-1 0.9-1.9 1.2-2.6 1.1q-0.5 0-0.6-0.3c-0.1-0.4-0.2-0.7-0.3-1z"/>
			<path id="Layer" class="s3" d="m23.5 263.8c1.3-8.2 2.1-12.2 3.9-20.1-1 0.1-1.7 0.3-2.2 0.6-0.4 0.2-0.9 0.6-1.2 1.3-0.2 0.4-0.4 0.9-0.6 1.7-0.2 0.8-0.3 1.6-0.3 2.5 0 0.9-0.1 1.9 0 3 0 0.2 0 0.2 0 0.4 0 0.2 0 0.3-0.1 0.4-0.1 0.6-0.5 1.3-1 2-0.4 0.4-1.1 1-1.7 1-0.7 0.1-1.7-1-2.1-2.5-0.3-1.2-0.4-2.9-0.3-4.9 0.1-0.4 0.1-0.6 0.2-1 0-0.1 0-0.2 0.1-0.3 0.3-1.5 0.7-2.8 1.3-4 0.5-1.2 1.2-2.3 2-3.3 1.6-2 3.3-3.1 4.9-3.4 0.8 0.1 1.6-0.4 2.4-1.2 0.3-0.3 0.5-0.7 0.7-1.2 0.2-0.4 0.4-0.9 0.5-1.4 0 0 0-0.1 0.1-0.3 0.1-0.2 0.1-0.2 0.1-0.3 0-0.1 0.1-0.2 0.1-0.3 2.1 0.6 3.1 1 5.2 1.6 0.2 0 0.3 0.1 0.5 0.1 0.8 0.2 1.3 0.8 1.5 1.7q0.3 1.4-0.3 3.6c-2 7.9-2.9 12-4.4 20.3-0.1 0.6-0.2 1-0.2 1.2q-0.2 0.3-0.3 0.9c-0.2 0.6-0.5 1.2-0.8 1.7-0.8 1.2-1.6 1.8-2.6 1.6-2.2-0.8-3.3-1-5.4-1.4z"/>
			<path id="Layer" class="s3" d="m29 237.2c1.6-6.2 2.4-9.3 4.3-15.3 0.2-0.6 0.2-1.1 0-1.7-0.1-0.2-0.2-0.4-0.4-0.6-0.2-0.2-0.4-0.3-0.6-0.4-1.6-0.3-2.4-0.5-3.9-0.7-0.7-0.2-1.1-0.8-1.3-1.7-0.2-0.9-0.1-1.8 0.2-2.9 0.3-1.1 0.8-1.8 1.5-2.4 0.7-0.5 1.3-0.6 2-0.4 4.1 1.2 6.2 1.8 10.3 3 0.8 0.3 1.4 1.2 1.7 2.5 0.2 1.3 0.1 2.8-0.4 4.4-1.6 5-2.4 7.6-3.8 12.8-0.1 0.5-0.3 0.9-0.3 1.1-0.1 0.2-0.2 0.5-0.4 0.8-0.3 0.6-0.6 1.1-0.9 1.6-0.8 1.1-1.7 1.5-2.7 1.3-2.2-0.5-3.2-0.8-5.3-1.4zm13.5-10.6c0.1-0.4 0.3-0.8 0.4-1 0.1-0.2 0.2-0.4 0.4-0.5 0.2-0.1 0.3-0.2 0.4-0.4q0.7-0.6 1.5-0.3c0.5 0.2 0.8 0.6 1 1.2 0.1 0.3 0.1 0.7 0.1 1 0 0.4-0.1 0.7-0.2 1.2-0.3 0.8-0.6 1.5-1.1 1.9q-0.8 0.6-1.5 0.3c-0.5-0.2-0.9-0.6-1.1-1.2-0.2-0.5-0.2-1.3 0.1-2.2z"/>
			<path id="Layer" class="s3" d="m34.5 217.7c1.3-4 2-5.9 3.3-9.8 0.3-0.8 0.4-1.6 0.3-2.3-0.1-0.8-0.5-1.4-1.1-1.7-6.1-2.1-9.2-3.2-15.3-5.3-0.5-0.2-0.8-0.8-0.9-1.7-0.1-0.8 0.1-1.8 0.5-2.7 0.3-0.8 0.8-1.4 1.4-1.8 0.6-0.5 1.2-0.7 1.6-0.5 8.7 3.1 13.1 4.7 21.7 8 0.9 0.4 1.6 1.2 1.9 2.3q0.4 1.7-0.3 3.6c-1.4 3.7-2.1 5.6-3.4 9.4-0.2 0.5-0.3 0.9-0.4 1.1-0.1 0.2-0.2 0.4-0.4 0.8-0.3 0.6-0.7 1.1-1 1.5-0.9 1-1.8 1.4-2.7 1-2.1-0.7-3.1-1.1-5.2-1.9z"/>
			<path id="Layer" class="s3" d="m26.9 181c0.1-0.2 0.1-0.3 0.2-0.5 0.1-0.2 0.2-0.4 0.4-0.6 0.3-0.4 0.5-0.6 0.8-0.9 0.7-0.7 1.3-0.9 1.9-0.6 9.2 3.5 13.7 5.3 22.8 9 0.5 0.3 0.8 0.7 1 1.3 0.2 0.8 0.2 1.7-0.3 2.7-0.3 0.7-0.8 1.5-1.5 2-0.6 0.5-1.2 0.6-1.7 0.4-9.2-3.6-13.8-5.4-23-8.9-0.4-0.2-0.7-0.7-0.9-1.4 0-0.2-0.1-0.3-0.1-0.6 0-0.2 0-0.3 0-0.6 0-0.2 0-0.2 0.1-0.4 0.1-0.4 0.2-0.6 0.3-0.9z"/>
			<path id="Layer" fill-rule="evenodd" class="s3" d="m56.1 167.6c4.8-8.8 7.4-13 12.9-21.1 0.3-0.4 0.4-0.9 0.3-1.4 0-0.2-0.1-0.5-0.2-0.7-0.1-0.2-0.3-0.4-0.5-0.5-1.4-0.7-2.2-1.1-3.6-1.8-0.6-0.4-0.9-1-0.9-1.9 0-0.8 0.3-1.6 0.8-2.4 0.6-0.9 1.3-1.4 2-1.7 0.4-0.1 0.7-0.2 1.1-0.1 0.2 0.1 0.3 0.1 0.4 0.1 0.2 0.1 0.3 0.1 0.5 0.2 3.7 2.3 5.5 3.5 9.2 5.8 0.7 0.5 1 1.5 1 2.7 0 1.2-0.6 2.6-1.5 3.9-5.7 8.1-8.3 12.4-13.3 21.2-0.3 0.5-0.6 1-1.1 1.5-0.3 0.3-0.4 0.4-0.7 0.7q-0.3 0.2-0.3 0.3c-0.1 0-0.2 0.1-0.4 0.3-1.2 0.8-2.1 1.1-2.7 0.7-2.2-1.3-3.3-1.9-5.5-3.1 0.5-0.4 0.8-0.6 1.3-1.1 0.3-0.3 0.4-0.5 0.7-0.8 0.3-0.3 0.4-0.4 0.5-0.8zm-4.3-16.1c0.5-0.8 1-1.3 1.6-1.6 0.1 0 0.2 0 0.3-0.1 0.2 0 0.3 0 0.4-0.1 0.3 0 0.5 0.1 0.7 0.2 0.5 0.3 0.7 0.8 0.7 1.5q0 1-0.6 2.1-0.6 1-1.5 1.5c-0.6 0.3-1.1 0.3-1.6 0-0.4-0.3-0.7-0.7-0.7-1.4 0-0.2 0-0.6 0.1-1 0.1-0.2 0.1-0.3 0.1-0.5 0.3-0.2 0.4-0.4 0.5-0.6zm4-6c0.4-0.7 1-1.1 1.6-1.4 0.6-0.3 1.2-0.3 1.6 0 0.4 0.3 0.6 0.8 0.7 1.5 0 0.2 0 0.3-0.1 0.4-0.1 0.2-0.1 0.4-0.1 0.6-0.1 0.2-0.1 0.3-0.2 0.5-0.1 0.2-0.2 0.3-0.3 0.5-0.4 0.6-1 1.2-1.6 1.5-0.6 0.3-1.2 0.2-1.6 0-0.4-0.3-0.6-0.8-0.7-1.5 0.1-0.8 0.3-1.5 0.7-2.1z"/>
			<path id="Layer" class="s3" d="m61.7 121.8c0-0.1 0.1-0.1 0.1-0.1 0.1-0.1 0.1-0.1 0.2-0.2 0.4-0.6 1-1 1.8-1.3 0.8-0.3 1.3-0.3 1.7 0 5.7 3.7 8.5 5.6 14.1 9.4 0.3 0.3 1 0.1 1.9-0.5 0.2-0.2 0.4-0.3 0.7-0.5 0.2-0.2 0.5-0.4 0.7-0.6 0.5-0.6 0.7-0.8 1.1-1.4 2.6 2.2 3.9 3.2 6.5 5.4-1.3 1.6-2 2.4-3.3 4.1-0.7 0.9-1.7 1.6-2.9 2.2q-1.8 0.7-3.3 0c-7.7-5.1-11.6-7.6-19.3-12.7-0.3-0.3-0.5-0.5-0.6-0.7-0.1-0.2-0.1-0.5-0.1-0.8 0-0.7 0.3-1.4 0.7-2.3z"/>
			<path id="Layer" class="s3" d="m80.5 130.9c3.5-4.5 5.3-6.6 9-10.9 0.3-0.4 0.5-0.9 0.5-1.4 0-0.2-0.1-0.4-0.1-0.6-0.1-0.2-0.2-0.4-0.4-0.6-1.3-0.9-2-1.3-3.4-2.2-0.6-0.5-0.8-1.1-0.7-2 0.1-0.8 0.5-1.6 1.1-2.3 0.7-0.7 1.4-1.2 2.2-1.3 0.8-0.2 1.4 0 2 0.5 3.4 2.7 5.1 4 8.5 6.7 0.7 0.6 0.9 1.6 0.7 2.8-0.2 1.2-0.9 2.4-1.9 3.5-3.2 3.5-4.7 5.3-7.8 9-0.3 0.4-0.5 0.6-0.7 0.8-0.1 0.1-0.3 0.3-0.6 0.5-0.5 0.4-0.9 0.7-1.4 0.9-1.1 0.6-2.1 0.5-2.9-0.1-1.5-1.2-2.4-1.9-4.1-3.3zm-3.5-18.4c0.5-0.6 1.1-1 1.7-1.2 0.6-0.2 1.2-0.1 1.6 0.3 0.4 0.3 0.6 0.8 0.5 1.5-0.1 0.6-0.4 1.3-0.9 1.9-0.6 0.6-1.1 1.1-1.8 1.2-0.7 0.1-1.1 0.1-1.6-0.3-0.4-0.3-0.6-0.8-0.5-1.5 0-0.3 0.1-0.7 0.3-1 0.2-0.3 0.4-0.6 0.7-0.9zm-0.9-5.4c0.6-0.7 1.2-1.1 1.9-1.3 0.7-0.2 1.2-0.1 1.6 0.2 0.4 0.3 0.5 0.8 0.4 1.5-0.1 0.7-0.4 1.3-1 2-0.6 0.7-1.2 1.1-1.8 1.3q-0.9 0.2-1.5-0.3c-0.4-0.3-0.5-0.8-0.5-1.5-0.1-0.6 0.3-1.3 0.9-1.9zm5.6 0.3q0.9-0.9 1.8-1.2c0.6-0.1 1.1-0.1 1.5 0.3 0.4 0.4 0.6 0.9 0.5 1.5-0.1 0.6-0.4 1.3-1 1.9q-0.9 1-1.8 1.2c-0.6 0.2-1.2 0-1.6-0.3-0.4-0.3-0.6-0.9-0.5-1.5 0.2-0.7 0.6-1.3 1.1-1.9z"/>
			<path id="Layer" class="s3" d="m85.8 94.1l0.1-0.1c0.1-0.1 0.1-0.1 0.2-0.2 0.5-0.5 1.1-0.9 1.9-1.1 0.8-0.2 1.3-0.1 1.7 0.2 5.2 4.4 7.8 6.6 13 11 0.3 0.3 1 0.2 1.9-0.3 0.2-0.1 0.5-0.3 0.7-0.4 0.3-0.2 0.5-0.3 0.8-0.5 0.5-0.5 0.8-0.7 1.3-1.2 2.4 2.4 3.5 3.6 5.9 6.1-1.5 1.4-2.2 2.1-3.7 3.6-0.8 0.8-1.9 1.4-3.1 1.7-1.2 0.4-2.3 0.2-3.3-0.4-7.1-6-10.6-8.9-17.8-14.8-0.3-0.3-0.5-0.5-0.6-0.7-0.1-0.2-0.1-0.5 0-0.8 0.1-0.7 0.5-1.4 1-2.1z"/>
			<path id="Layer" fill-rule="evenodd" class="s3" d="m103.4 105.3c4.1-4.1 6.3-6 10.6-9.8q0-0.2 0-0.3c0-0.1-0.1-0.2-0.1-0.3-0.1-0.1-0.4-0.2-0.8-0.2-0.3 0-0.5 0-0.8 0-0.6 0.2-0.9 0.3-1.5 0.5-0.6 0.2-0.8 0.3-1.4 0.5-0.4 0.1-0.6 0.1-1 0.3-0.8 0.2-1.4 0.2-1.7-0.1-0.2-0.3-0.4-0.4-0.6-0.6-0.2-0.2-0.3-0.3-0.5-0.5-0.4-0.5-0.6-1-0.7-1.5 0-0.3-0.1-0.6 0-0.9 0-0.3 0.1-0.7 0.3-1 0.2-0.4 0.3-0.6 0.6-1.1 0.2-0.3 0.3-0.4 0.4-0.7 0.4-0.6 0.8-1.3 1.4-1.9 0.1-0.2 0.4-0.5 0.7-0.8 0.3-0.4 0.7-0.8 1.2-1.3 0.4-0.5 1-1 1.7-1.6 0.3-0.3 0.5-0.4 0.8-0.6 0.4-0.3 0.6-0.4 0.9-0.7 0.3-0.2 0.5-0.3 0.8-0.6 0.1-0.1 0.2-0.2 0.3-0.2 0.3-0.2 0.4-0.3 0.7-0.4 1.4-0.8 2.7-1.4 3.9-1.7 0.7-0.3 1.4-0.3 2.1-0.1 0.5 0.2 1.1 0.5 1.5 1.1 0.1 0.2 0.2 0.2 0.3 0.4 0.1 0.1 0.1 0.2 0.2 0.3 0.2 0.4 0.3 0.6 0.5 1-0.1 0.3-0.1 0.4-0.2 0.7-0.1 0.2-0.1 0.3-0.2 0.6-0.1 0.2-0.3 0.5-0.5 0.7q-0.3 0.4-0.6 0.9c-0.4 0.4-0.6 1-0.6 1.7 0 0.7 0.2 1.3 0.5 1.6 0.2 0.2 0.4 0.2 0.8 0.1 1.8-1.5 2.7-2.2 4.5-3.6 2.1 2.6 3.2 3.9 5.4 6.5-0.9 0.7-1.3 1-2.1 1.7-0.5 0.4-1.1 0.6-1.8 0.7-0.4 0-0.6 0-1-0.1-0.2 0-0.3 0-0.5-0.1-0.1 0-0.2-0.1-0.6-0.2-0.1 0.4-0.1 0.5-0.2 0.9-0.1 0.3-0.1 0.4-0.2 0.7-0.2 0.5-0.5 1.1-0.8 1.7-0.2 0.3-0.3 0.5-0.5 0.8-0.2 0.2-0.4 0.5-0.7 0.7-4.2 3.6-6.3 5.5-10.4 9.3-0.4 0.3-0.6 0.6-0.8 0.7-0.1 0.1-0.4 0.3-0.7 0.4-0.5 0.3-1 0.5-1.5 0.7-1.2 0.4-2.1 0.3-2.8-0.4-1.9-1.6-2.7-2.3-4.3-3.9zm0.2-25.2c0.7-0.6 1.3-0.9 2-1 0.3 0 0.6 0 0.8 0.1 0.1 0.1 0.2 0.1 0.3 0.1q0.2 0.2 0.3 0.3c0.3 0.4 0.5 0.9 0.3 1.5-0.1 0.6-0.6 1.2-1.2 1.8-0.6 0.5-1.3 0.9-1.9 1-0.7 0.1-1.2-0.1-1.6-0.5-0.3-0.3-0.4-0.8-0.2-1.5 0.2-0.6 0.6-1.3 1.2-1.8zm9.2 7.2c-0.6 0.5-1.1 1-1.2 1.4-0.1 0.4-0.1 0.7 0.1 1 0.1 0.2 0.3 0.2 0.4 0.2 0.1 0 0.2 0 0.3-0.1 0.4-0.1 0.6-0.1 1-0.1 0.3-0.1 0.5-0.1 0.9-0.1 0.4 0 0.5 0 0.9-0.1 0.1-0.3 0.1-0.5 0.2-0.8 0.1-0.3 0.1-0.4 0.2-0.7 0.1-0.6 0.2-1 0.2-1.4l-0.1-0.1c-0.1-0.1-0.1-0.1-0.1-0.2-0.2-0.2-0.5-0.2-0.9-0.1-0.4 0.1-1.3 0.5-1.9 1.1z"/>
			<path id="Layer" class="s3" d="m123.1 87.8c4.3-3.5 6.5-5.2 10.9-8.4 0.4-0.3 0.7-0.7 0.8-1.2 0-0.2 0-0.4 0-0.7 0-0.2-0.1-0.5-0.3-0.7-1.1-1.1-1.7-1.7-2.9-2.9-0.4-0.6-0.5-1.3-0.3-2 0.2-0.7 0.8-1.4 1.6-2 0.8-0.6 1.6-0.8 2.4-0.8q1.2 0 1.8 0.9c2.8 3.3 4.2 4.9 7 8.3 0.5 0.7 0.6 1.7 0.2 2.9-0.4 1.1-1.3 2.1-2.5 3-3.8 2.7-5.7 4.1-9.4 7-0.4 0.3-0.6 0.5-0.8 0.6-0.2 0.1-0.4 0.2-0.7 0.4-0.5 0.3-1 0.4-1.5 0.6-1.2 0.3-2.2 0.1-2.8-0.7-1.4-1.8-2.1-2.6-3.5-4.3zm0.1-18.4c0.6-0.5 1.3-0.7 1.9-0.8 0.7 0 1.1 0.2 1.5 0.6 0.3 0.4 0.4 0.9 0.2 1.5-0.2 0.6-0.6 1.2-1.2 1.6-0.7 0.5-1.3 0.8-2 0.8q-0.9 0-1.5-0.6c-0.3-0.4-0.4-0.9-0.2-1.5 0.1-0.3 0.3-0.6 0.5-0.9 0.2-0.2 0.5-0.4 0.8-0.7zm5.7-3.8c0.7-0.5 1.4-0.7 2-0.7 0.6 0 1.1 0.2 1.4 0.6 0.3 0.4 0.4 1 0.2 1.5-0.2 0.6-0.6 1.1-1.4 1.6-0.7 0.5-1.4 0.8-2 0.8-0.7 0-1.2-0.2-1.5-0.7-0.3-0.4-0.4-1-0.2-1.6 0.3-0.5 0.8-1.1 1.5-1.5z"/>
			<path id="Layer" class="s3" d="m137 77.2c3.7-2.7 5.6-3.9 9.5-6.4 0.5-0.3 0.8-0.8 0.9-1.4 0.1-0.5 0.1-1-0.2-1.4-1.1-1.5-1.7-2.2-2.8-3.7-0.3-0.5-0.4-0.9-0.1-1.4 0.1-0.2 0.3-0.4 0.6-0.7 0.3-0.3 0.6-0.6 1-0.8 1-0.6 1.8-0.9 2.3-1 0.5 0 1.1 0.3 1.7 0.9 1.3 1.5 1.9 2.3 3.1 3.8 0.2 0.4 0.7 0.5 1.3 0.5 0.2 0 0.5-0.1 0.8-0.2 0.3-0.2 0.5-0.2 0.8-0.4 0.6-0.3 1-0.7 1.3-1.2q0.2-0.3 0.3-0.6c0-0.2 0-0.4-0.1-0.5-1.3-1.9-2-2.8-3.3-4.7-0.2-0.4-0.1-0.8 0.3-1.4 0.5-0.6 1-1.1 1.8-1.5q1-0.6 2.1-0.6c0.8 0 1.4 0.3 1.7 0.9 1.3 1.7 1.9 2.6 3.2 4.3 0.2 0.3 0.6 0.5 1.2 0.4 0.4-0.1 0.5-0.1 0.9-0.2 0.4-0.2 0.6-0.3 1-0.4q0.9-0.4 1.2-1.2c0.1-0.2 0.1-0.5 0.1-0.7 0-0.2-0.1-0.4-0.2-0.6-1.2-1.6-1.8-2.5-3.1-4.1-0.3-0.5-0.2-1 0.1-1.7 0.3-0.5 0.8-0.9 1.4-1.2 0.5-0.3 0.9-0.4 1.3-0.6 0.4-0.1 0.7-0.2 1.1-0.2 0.7-0.1 1.3 0.1 1.8 0.7 2.3 3.4 3.4 5.1 5.6 8.5 0.7 1.3 0.9 2.4 0.6 3.5-0.3 1.1-1 1.9-2.2 2.5-1.6 0.9-2.9 1.3-3.9 1.4-1 0.1-2.1-0.2-3.2-0.9 0.2 1 0 2-0.5 2.9-0.4 0.8-1.1 1.4-1.9 1.9-0.8 0.5-1.6 0.9-2.2 1.1-0.7 0.3-1.3 0.4-1.8 0.5-1.1 0.1-2.2-0.1-3.3-0.7 0.2 0.8 0.1 1.7-0.3 2.6-0.4 0.9-1.1 1.7-2 2.3-3.5 2.2-5.2 3.3-8.6 5.6-0.4 0.3-0.7 0.5-0.8 0.5-0.2 0.1-0.4 0.2-0.7 0.3-0.5 0.2-1.1 0.4-1.6 0.5-1.2 0.2-2.2-0.1-2.7-0.9-1.4-1.7-2.1-2.5-3.5-4.3z"/>
			<path id="Layer" class="s3" d="m170.8 37.4q-0.5-0.9 0-2.1c0.3-0.8 1-1.4 1.9-1.8 0.9-0.4 1.7-0.5 2.6-0.3 0.4 0.1 0.7 0.3 1.1 0.5 0.1 0.1 0.2 0.2 0.4 0.4 0.1 0.2 0.2 0.3 0.3 0.4 3.1 4.6 4.6 6.9 7.6 11.6q0.5 0.9 0 2.1c-0.3 0.8-0.9 1.3-1.7 1.7-0.8 0.4-1.6 0.5-2.5 0.3-0.4-0.1-0.8-0.3-1-0.5-0.3-0.2-0.5-0.5-0.7-0.9-3.2-4.6-4.8-6.8-8-11.4zm10.4-5q-0.5-1 0-2.1c0.3-0.7 0.9-1.3 1.8-1.7 0.9-0.4 1.8-0.5 2.6-0.2 0.9 0.2 1.4 0.7 1.7 1.3 4.3 7 6.5 10.5 10.7 17.6 0.6 1.4 0.4 2.9-0.6 4.4-1 1.5-2.6 2.8-4.8 3.7-2.1 0.9-4.1 1.1-6.1 0.6q-2.6-0.6-4.5-2.7c-0.7-0.7-1-1-1.6-1.7 0.4 0.1 0.7 0.2 1.2 0.1 0.2 0 0.3-0.1 0.5-0.1 0.2-0.1 0.4-0.1 0.6-0.2 0.2-0.1 0.5-0.2 0.7-0.4 0.2-0.1 0.4-0.3 0.5-0.4 0.7-0.5 1-0.7 1.7-1.2 0.2-0.1 0.3-0.1 0.4-0.1 0.1 0 0.1 0 0.2 0 0.1 0 0.1 0.1 0.2 0.1 0.5 0.4 1.2 0.4 1.9 0.1 0.6-0.3 1.1-0.8 1.4-1.5 0.3-0.7 0.2-1.6-0.3-2.6 0-0.1-0.1-0.1-0.1-0.2-0.1-0.2-0.2-0.3-0.3-0.5-3-4.8-4.6-7.3-7.8-12.3z"/>
			<path id="Layer" class="s3" d="m197.4 22.6c0.2-0.1 0.3-0.1 0.5-0.2 0.2-0.1 0.4-0.1 0.6-0.1 0.5 0 0.7 0 1.1-0.1q1.3 0 1.8 0.9c4.4 8.8 6.6 13.1 10.8 22 0.2 0.5 0.2 1-0.1 1.6-0.3 0.7-0.9 1.2-1.8 1.6-0.7 0.3-1.5 0.4-2.3 0.3-0.7-0.1-1.2-0.4-1.4-0.9-4.4-8.8-6.6-13.2-11-22-0.2-0.4-0.1-0.9 0.2-1.6 0.1-0.2 0.2-0.3 0.3-0.4 0.1-0.1 0.2-0.2 0.3-0.4 0.1-0.1 0.2-0.1 0.3-0.2 0.3-0.3 0.4-0.3 0.7-0.5z"/>
			<path id="Layer" fill-rule="evenodd" class="s3" d="m235.1 44.9c0.5-0.6 0.7-0.9 1.2-1.5 0.3-0.3 0.5-0.9 0.7-1.4 0.2-0.7 0.4-1.5 0.1-2.2-0.1-0.2-0.1-0.4-0.2-0.6-0.1-0.1-0.2-0.3-0.3-0.4-0.1-0.1-0.3-0.2-0.5-0.1-0.1 0-0.4 0.3-1 0.9-0.6 0.6-1 0.9-1.4 1q-3.3 0.9-6.6-0.6c-2.2-1-3.7-2.5-4.4-4.6-0.7-2.2-0.5-4.3 0.6-6.4 1.2-2.1 3-3.5 5.5-4.2 1.7-0.5 3.6-0.4 5.5 0.2 1.7 0.5 3.3 1.5 4.7 2.8q2.1 1.9 2.7 4.2c0.5 1.8 0.7 2.7 1.2 4.5 0.2 0.6 0.3 0.9 0.4 1.5 0.1 0.7 0.2 1.1 0.3 1.8 0 0.4 0.1 0.7 0.1 0.9 0 0.3 0 0.5 0 0.8 0 0.3 0 0.5 0 0.8 0 0.2 0 0.5-0.1 0.7-0.1 0.4-0.2 0.9-0.3 1.3-0.1 0.2-0.2 0.4-0.3 0.7-0.1 0.2-0.2 0.4-0.4 0.7-0.2 0.4-0.5 0.7-0.8 1q-0.3 0.3-0.6 0.6c0 0-0.2 0.1-0.5 0.4-0.2 0.1-0.2 0.1-0.4 0.2-0.2 0.1-0.3 0.1-0.5 0.2-0.5 0.1-0.9 0.2-1.4 0.1-0.5-0.1-1-0.2-1.7-0.5-1.2-0.5-1.8-1.1-2.1-1.8 0.2-0.3 0.2-0.7 0.5-1zm0-9.2c0-0.1 0.2-0.4 0.5-0.8 0.2-0.3 0.2-0.5 0.2-0.8 0-0.1 0-0.1-0.1-0.2 0-0.1 0-0.2-0.1-0.3-0.2-0.2-0.4-0.5-0.6-0.6 0-0.1-0.1-0.1-0.1-0.1-0.1-0.1-0.2-0.2-0.4-0.3-0.1-0.1-0.2-0.1-0.3-0.2-0.1-0.1-0.2-0.1-0.3-0.2-0.1-0.1-0.2-0.1-0.3-0.2-0.2-0.1-0.2-0.1-0.4-0.2-1.1-0.5-2.1-0.6-3.1-0.4-0.3 0.1-0.5 0.2-0.6 0.2-0.1 0-0.3 0.2-0.5 0.4-0.2 0.2-0.4 0.5-0.4 0.8 0 0.2 0 0.3 0 0.5 0 0.2 0 0.3 0.1 0.5 0.1 0.3 0.1 0.5 0.2 0.5 0.2 0.2 0.3 0.3 0.5 0.6 0.3 0.3 0.7 0.5 1.3 0.6 0.3 0 0.5 0 0.8 0 0.4-0.1 0.6-0.1 1-0.2 0.7-0.2 1.3-0.3 1.7-0.2q0.4 0.1 0.9 0.6z"/>
			<path id="Layer" fill-rule="evenodd" class="s3" d="m268.6 30.3c-0.4 0.8-1.1 1.6-2.2 2.4-1 0.8-2.1 1.3-3.2 1.5-2 0.4-3.8 0-5.4-1.1-1.6-1.1-2.7-2.6-3.2-4.6-0.4-1.9 0-3.7 1.5-5.5 1.4-1.8 3.2-2.9 5.4-3.2 0.4-0.1 0.6-0.1 1-0.2 0.2 0 0.5 0 1 0 0.1 0 0.3 0 0.4 0 0.1 0 0.3 0 0.5 0.1 0.2 0 0.3 0.1 0.5 0.1 0.1 0 0.3 0.1 0.5 0.1-0.1-0.5-0.1-0.7-0.2-1.2-0.1-0.6 0.1-1.1 0.6-1.6q0.7-0.7 2.1-0.9c0.8-0.1 1.6 0 2.2 0.3 0.7 0.3 1.1 0.7 1.2 1.3 0.6 2 0.8 3 1.4 5.1q0.1 0.8 0.6 0.9c0.2 0 0.4 0.1 0.8 0.1 0.5 0 0.8-0.1 1.3-0.1 0.5 3.3 0.8 4.9 1.3 8.2-1.6 0.2-2.3 0.3-3.9 0.6-0.8 0.1-1.6 0-2.4-0.4-0.9-0.6-1.5-1.2-1.8-1.9zm-11.1-22.2c0.9-0.2 1.6-0.1 2.2 0.2 0.6 0.3 1 0.7 1.1 1.3 0.1 0.3 0 0.5 0 0.8-0.1 0.3-0.2 0.5-0.5 0.8-0.4 0.5-1.1 0.8-1.9 1-0.8 0.2-1.5 0.1-2.1-0.2-0.6-0.3-0.9-0.7-1.1-1.4-0.1-0.6 0-1.1 0.5-1.6q0.4-0.8 1.8-0.9zm9.2 16.4c-0.2-0.7-0.3-1-0.6-1.6-0.9-0.2-1.7-0.2-2.5-0.1-0.6 0.1-1.2 0.3-1.6 0.6-0.4 0.3-0.6 0.6-0.7 1.1 0 0.1 0 0.1 0 0.2 0.1 0.3 0.4 0.6 0.9 0.8 0.5 0.2 1.2 0.2 1.9 0 1-0.1 1.8-0.5 2.6-1zm-2.3-17.6c0.8-0.1 1.6 0 2.1 0.2 0.6 0.3 0.9 0.7 1.1 1.3 0.1 0.6-0.1 1.1-0.5 1.6-0.4 0.5-1.1 0.8-2 0.9-0.9 0.1-1.7 0.1-2.2-0.2-0.6-0.3-0.9-0.8-1-1.4-0.1-0.6 0.1-1.1 0.5-1.6 0.5-0.4 1.1-0.7 2-0.8z"/>
			<path id="Layer" class="s3" d="m270.5 24.3c5.5-0.8 8.2-1.2 13.8-1.8 0.5-0.1 0.9-0.3 1.3-0.7 0.1-0.2 0.2-0.3 0.3-0.6 0.1-0.2 0.1-0.5 0.1-0.7-0.4-1.5-0.6-2.3-1-3.9-0.1-0.7 0.2-1.3 0.8-1.9 0.6-0.5 1.4-0.8 2.3-0.9 1-0.1 1.8 0.1 2.5 0.5 0.7 0.4 1 1 1.1 1.7 0.7 4.2 1.1 6.3 1.8 10.5 0.1 0.9-0.4 1.8-1.3 2.5-0.9 0.7-2.2 1.2-3.7 1.3-4.7 0.5-7 0.7-11.6 1.4-0.5 0.1-0.8 0.1-1 0.1-0.2 0-0.4 0-0.8 0-0.6 0-1.1-0.1-1.6-0.3-1.2-0.4-1.9-1-2-2-0.5-2-0.7-3.1-1-5.2zm13.7 8.4c0.4 0 0.7-0.1 0.9 0 0.2 0 0.4 0.1 0.6 0.1 0.2 0.1 0.3 0.1 0.5 0.2 0.5 0.3 0.8 0.7 0.9 1.3 0.1 0.5-0.1 1-0.5 1.4-0.2 0.2-0.5 0.4-0.8 0.5-0.3 0.1-0.6 0.2-1 0.3-0.8 0.1-1.4 0-2-0.3-0.5-0.3-0.8-0.7-0.9-1.3-0.1-0.5 0.1-1 0.5-1.4 0.4-0.4 1-0.7 1.8-0.8zm6.4-0.4c0.7-0.1 1.4 0.1 1.9 0.4 0.6 0.3 0.9 0.7 0.9 1.3 0 0.5-0.2 1-0.6 1.3-0.4 0.4-1 0.7-1.8 0.7-0.7 0.1-1.4 0-2-0.3q-0.8-0.5-0.9-1.2c-0.1-0.5 0.1-1 0.6-1.4 0.5-0.5 1.1-0.7 1.9-0.8z"/>
			<path id="Layer" class="s3" d="m287.6 22.1c6.4-0.6 9.6-0.9 16-1.2 0-0.1 0.1-0.1 0.1-0.2 0-0.1 0-0.1 0-0.2 0-0.5-0.8-1.3-2.2-2.3-0.5-0.4-1.1-0.7-1.8-1.1-1.1-0.6-1.7-0.9-2.8-1.5-1.9-0.9-2.8-1.3-4.7-2.2-0.3-0.1-0.5-0.4-0.9-0.8-0.1-0.3-0.2-0.4-0.3-0.7-0.1-0.3-0.1-0.5-0.2-0.8 0-0.5 0-1 0.2-1.3q0.3-0.6 0.9-0.9c1.3-0.6 1.9-0.9 3.2-1.4 1.4-0.6 2.2-0.9 3.6-1.4 1.8-0.7 2.6-1 4.4-1.6 1.1-0.4 1.7-0.5 2.8-0.9 1.3-0.4 2-0.6 3.3-1 1.6-0.4 2.4-0.6 4-1.1 0.3-0.1 0.4-0.1 0.7-0.2 0.3 0 0.4 0 0.6 0q1.5 0 2.4 0.6c0.7 0.4 1 1 1 1.6q0 1.1-1.8 1.8c-0.8 0.3-1.2 0.4-2 0.7-0.9 0.3-1.4 0.5-2.3 0.8-1.2 0.4-1.8 0.5-2.9 0.9-1.6 0.5-2.4 0.7-4 1.2-0.6 0.2-1 0.3-1.6 0.5-1.1 0.3-2 0.7-2.8 1-0.6 0.2-1.1 0.4-1.3 0.5-0.2 0.1-0.6 0.2-1 0.5 1.1 0.5 2.3 1 3.4 1.7 1 0.6 2.2 1.4 3.4 2.3q3.3 2.4 5.1 4.8c0.2 0.2 0.6 0.4 1.2 0.5 0.3 0 0.4 0 0.7 0 0.4 0 0.6 0 1.1 0 1.7 0 2.5-0.1 4.2-0.1 0 3.3 0.1 5 0.1 8.3-0.8 0-1.2 0-1.9 0-1.1 0-2 0-2.7-0.2-1-0.2-1.8-0.5-2.3-1-0.3 0.4-0.8 0.8-1.3 1.1-0.5 0.2-1.2 0.3-2 0.3-5.5 0.2-8.3 0.4-13.8 0.9-0.5 0-0.8 0.1-1 0.1-0.2 0-0.4 0-0.8-0.1-0.6-0.1-1.1-0.2-1.6-0.4-1.2-0.4-1.8-1.1-1.9-2.1-0.1-2.1-0.2-3.2-0.5-5.4z"/>
			<path id="Layer" class="s3" d="m309.5 20.7c3.7-0.1 5.5-0.2 9.2-0.2 0.8 0 1.5-0.2 2.1-0.5 0.7-0.4 1-0.9 1-1.6-0.3-6.4-0.5-9.6-0.9-16 0-0.5 0.4-1.1 1.1-1.4 0.7-0.3 1.5-0.5 2.4-0.5 0.7 0 1.4 0.2 2 0.6 0.6 0.4 1 0.9 1 1.3 0.4 9.2 0.6 13.7 0.9 22.9 0 1-0.5 1.9-1.3 2.5-0.8 0.7-1.9 1-3.2 1-3.6 0-5.4 0-9 0.1-0.5 0-0.8 0-1 0-0.2 0-0.4-0.1-0.8-0.1-0.6-0.1-1.1-0.3-1.6-0.5-1.1-0.5-1.7-1.2-1.8-2.2 0-2.2 0-3.3-0.1-5.4z"/>
			<path id="Layer" class="s3" d="m323.7 20.5c4.6 0 6.9 0.1 11.5 0.3 0.6 0 1.1-0.2 1.6-0.6 0.4-0.3 0.6-0.7 0.7-1.2 0-1.8 0-2.7 0-4.6 0-0.5 0.3-0.9 0.7-1.2 0.2-0.1 0.5-0.2 0.9-0.2 0.4-0.1 0.8-0.1 1.3-0.1 1.2 0.1 2 0.3 2.4 0.5 0.4 0.3 0.7 0.8 0.8 1.7 0.1 1.9 0.1 2.9 0.2 4.8 0 0.4 0.2 0.8 0.7 1.2 0.2 0.1 0.4 0.2 0.7 0.3 0.4 0.1 0.5 0.1 0.9 0.1 0.6 0 1.2 0 1.7-0.2q0.3-0.1 0.6-0.3c0.1-0.1 0.2-0.3 0.2-0.5 0.1-2.3 0.1-3.4 0.2-5.7 0-0.4 0.4-0.7 1.1-0.9 0.7-0.2 1.5-0.3 2.3-0.2 0.8 0.1 1.5 0.3 2.1 0.7 0.7 0.5 0.9 1 0.9 1.7 0 2.1 0 3.2 0 5.3 0 0.4 0.2 0.7 0.7 1 0.3 0.1 0.5 0.2 0.9 0.3 0.4 0.1 0.6 0.1 1.1 0.2 0.7 0.1 1.3 0 1.7-0.3 0.2-0.1 0.4-0.3 0.5-0.5 0.1-0.2 0.2-0.4 0.2-0.6 0-2 0-3 0.1-5 0.1-0.5 0.5-1 1.1-1.3 0.6-0.2 1.2-0.3 1.8-0.2 0.5 0.1 1 0.2 1.4 0.3 0.4 0.1 0.7 0.3 1 0.5 0.6 0.3 1 0.8 1.1 1.6-0.3 4-0.4 6-0.7 10-0.2 1.4-0.8 2.5-1.6 3.2-0.9 0.7-2 1-3.3 0.8-1.8-0.2-3.2-0.6-4-1.1-0.9-0.5-1.5-1.4-2-2.5-0.5 0.9-1.2 1.6-2.2 2-0.8 0.4-1.7 0.5-2.7 0.4-1-0.1-1.8-0.2-2.5-0.4-0.7-0.2-1.3-0.4-1.7-0.6-1-0.5-1.7-1.3-2.2-2.4-0.3 0.8-0.9 1.4-1.8 2-0.9 0.5-1.9 0.7-3 0.7-4.1-0.2-6.2-0.3-10.3-0.4-0.5 0-0.8 0-1-0.1-0.2 0-0.4-0.1-0.8-0.1-0.6-0.1-1.1-0.3-1.5-0.5-1.1-0.5-1.7-1.3-1.7-2.3-0.1-2.4-0.1-3.5-0.1-5.6z"/>
			<path id="Layer" class="s3" d="m375.1 7.6c0.1-0.7 0.5-1.3 1.3-1.7 0.7-0.4 1.6-0.6 2.7-0.4 1 0.2 1.7 0.6 2.3 1.2 0.2 0.3 0.4 0.6 0.6 1 0 0.2 0 0.3 0.1 0.5 0 0.2 0 0.3 0 0.5-0.3 5.5-0.5 8.2-0.9 13.6-0.1 0.7-0.6 1.3-1.3 1.7-0.7 0.4-1.5 0.6-2.4 0.4-0.9-0.1-1.6-0.5-2.2-1.2-0.3-0.3-0.5-0.7-0.5-1-0.1-0.3-0.1-0.7 0-1.1 0-5.3 0.1-8 0.3-13.5zm11.5 1.8c0.1-0.7 0.6-1.3 1.2-1.7 0.7-0.4 1.5-0.5 2.4-0.4 0.9 0.2 1.7 0.6 2.3 1.3 0.6 0.7 0.7 1.4 0.6 2.1-0.8 8.1-1.2 12.2-2.2 20.2-0.4 1.5-1.4 2.6-3.2 3.3-1.8 0.7-3.8 0.8-6.2 0.4-2.2-0.4-4-1.4-5.3-2.9-1.1-1.3-1.8-2.9-2-4.7-0.1-0.9-0.2-1.4-0.3-2.3 0.2 0.3 0.5 0.6 0.9 0.8 0.2 0.1 0.3 0.1 0.5 0.2 0.2 0.1 0.4 0.1 0.6 0.2 0.3 0 0.5 0.1 0.8 0.1 0.3 0 0.5 0 0.7 0 0.8 0 1.3 0 2.1 0 0.2 0 0.3 0.1 0.4 0.1 0.1 0.1 0.1 0.1 0.2 0.1 0 0.1 0.1 0.1 0.1 0.2q0.3 0.9 1.5 1.2c0.7 0.1 1.4 0 2.1-0.5 0.7-0.4 1.2-1.2 1.4-2.2 0-0.1 0-0.1 0-0.2 0-0.2 0-0.3 0.1-0.6 0.6-5.9 0.8-8.9 1.3-14.7z"/>
			<path id="Layer" class="s3" d="m386.8 26.9c3.6 0.7 5.4 1.1 9 1.9q1.2 0.3 2.1 0c0.7-0.2 1.2-0.7 1.4-1.3 1.3-6.3 2-9.4 3.2-15.7 0.1-0.5 0.6-0.9 1.4-1.1 0.7-0.2 1.6-0.1 2.4 0.1 0.7 0.2 1.3 0.6 1.8 1.1q0.7 0.9 0.6 1.5c-1.9 9-2.9 13.5-5 22.4-0.3 1-0.9 1.7-1.9 2.2-1 0.5-2.1 0.5-3.3 0.2-3.5-0.8-5.2-1.2-8.7-2-0.5-0.1-0.8-0.2-1-0.2-0.2-0.1-0.4-0.2-0.7-0.3-0.5-0.2-1-0.5-1.4-0.8-1-0.7-1.4-1.6-1.2-2.5 0.6-2.4 0.8-3.4 1.3-5.5z"/>
			<path id="Layer" class="s3" d="m419 14c0.2 0.1 0.3 0.1 0.5 0.1 0.2 0.1 0.4 0.1 0.5 0.3 0.4 0.2 0.6 0.4 0.9 0.6 0.7 0.6 1 1.2 0.8 1.7-2.2 9.5-3.4 14.2-5.7 23.6-0.2 0.5-0.5 0.9-1.1 1.2-0.7 0.4-1.5 0.4-2.5 0.1-0.7-0.2-1.4-0.6-2-1.1-0.5-0.5-0.7-1.1-0.5-1.6 2.3-9.5 3.4-14.3 5.6-23.8 0.1-0.4 0.5-0.8 1.2-1.1 0.2-0.1 0.3-0.1 0.5-0.2 0.2 0 0.3 0 0.5-0.1 0.1 0 0.2 0 0.4 0 0.4 0.2 0.6 0.2 0.9 0.3z"/>
			<path id="Layer" class="s3" d="m434.7 40.2c8.8 3.2 13.1 5 21.7 8.8 0.4 0.2 0.9 0.2 1.4 0.1q0.3-0.1 0.6-0.3c0.2-0.1 0.3-0.3 0.4-0.5 0.5-1.5 0.8-2.3 1.3-3.8 0.3-0.6 0.9-1 1.7-1.2 0.8-0.1 1.6 0 2.4 0.4 0.9 0.4 1.6 1 1.9 1.7 0.2 0.3 0.3 0.7 0.3 1 0 0.2 0 0.3-0.1 0.5-0.1 0.2-0.1 0.3-0.1 0.6-1.7 3.9-2.6 5.9-4.3 9.8-0.4 0.8-1.3 1.3-2.5 1.4-1.3 0.2-2.6-0.1-3.9-0.7-8.6-4-13-5.8-21.9-9.2-0.5-0.2-1-0.4-1.5-0.8-0.3-0.2-0.5-0.4-0.8-0.6q-0.3-0.2-0.3-0.3c0-0.1-0.2-0.2-0.3-0.4-0.9-1-1.3-1.8-1-2.5 0.9-2.3 1.4-3.5 2.3-5.8 0.5 0.4 0.7 0.6 1.2 1.1 0.3 0.2 0.5 0.3 0.9 0.5 0.1 0.1 0.3 0.1 0.6 0.2zm14.7-6.9c0.8 0.3 1.4 0.8 1.7 1.3 0 0.1 0.1 0.2 0.1 0.3 0.1 0.2 0.1 0.2 0.1 0.4 0 0.2 0 0.5-0.1 0.8-0.2 0.5-0.7 0.8-1.4 1q-1 0.2-2.1-0.3c-0.7-0.3-1.3-0.7-1.6-1.2-0.3-0.5-0.4-1-0.2-1.6q0.3-0.8 1.2-0.9 0.3-0.2 0.9 0c0.2 0 0.3 0 0.5 0.1 0.5 0 0.6 0 0.9 0.1zm6.2 2.8c0.7 0.3 1.2 0.8 1.6 1.3 0.4 0.6 0.4 1.1 0.2 1.6-0.2 0.4-0.6 0.7-1.3 0.9-0.2 0-0.2 0-0.4 0q-0.3 0-0.6 0c-0.2 0-0.3-0.1-0.5-0.1-0.2-0.1-0.3-0.1-0.6-0.2-0.7-0.3-1.3-0.7-1.6-1.3-0.3-0.5-0.4-1.1-0.2-1.5 0.2-0.5 0.6-0.8 1.3-0.9 0.7-0.2 1.4-0.1 2.1 0.2z"/>
			<path id="Layer" class="s3" d="m475.9 39.4q0.4-0.9 1.8-1.2c0.8-0.2 1.7 0 2.7 0.5 0.9 0.4 1.4 1.1 1.8 1.8 0.1 0.4 0.2 0.7 0.2 1.1 0 0.2-0.1 0.3-0.1 0.5-0.1 0.2-0.1 0.3-0.2 0.5-2.1 5.1-3.2 7.6-5.4 12.7q-0.6 0.9-1.8 1.2c-0.8 0.2-1.6 0.1-2.5-0.3-0.8-0.4-1.4-1-1.7-1.8-0.1-0.4-0.2-0.8-0.2-1.1 0-0.3 0.1-0.7 0.3-1 2-5.2 3-7.7 5.1-12.9zm10.3 5.3c0.4-0.6 1-1 1.7-1.2 0.8-0.2 1.6 0 2.4 0.4 0.8 0.4 1.4 1.1 1.7 1.9 0.3 0.8 0.3 1.5-0.1 2.1-3.4 7.5-5.2 11.2-8.7 18.6-0.8 1.3-2.2 2-4.1 2.1-1.9 0.1-3.9-0.4-6-1.6-2-1.1-3.3-2.6-4.1-4.5-0.6-1.6-0.8-3.3-0.4-5.1 0.2-0.9 0.3-1.4 0.5-2.3 0.1 0.4 0.3 0.7 0.6 1 0.2 0.1 0.3 0.2 0.4 0.4 0.2 0.1 0.3 0.2 0.5 0.3 0.2 0.1 0.5 0.2 0.7 0.3 0.3 0.1 0.5 0.2 0.6 0.2 0.8 0.3 1.2 0.4 2 0.7 0.1 0.1 0.3 0.2 0.3 0.2 0 0.1 0.1 0.1 0.1 0.2 0 0.1 0 0.1 0 0.2 0 0.6 0.3 1.2 1 1.6 0.6 0.3 1.3 0.4 2.1 0.2 0.8-0.2 1.5-0.8 2-1.7 0-0.1 0.1-0.1 0.1-0.2 0.1-0.2 0.2-0.3 0.3-0.5 2.8-5.2 4-7.9 6.4-13.3z"/>
			<path id="Layer" class="s3" d="m502.1 50.6c0.1 0 0.1 0.1 0.1 0.1 0.1 0.1 0.1 0.1 0.2 0.1 0.6 0.4 1.1 0.9 1.4 1.6 0.3 0.7 0.4 1.2 0.1 1.7-3.3 5.9-5 8.8-8.3 14.7q-0.3 0.6 0.6 1.8 0.3 0.3 0.6 0.6c0.2 0.2 0.4 0.4 0.7 0.6 0.6 0.4 0.9 0.6 1.4 1-2 2.7-2.9 4.1-4.9 6.9-1.7-1.1-2.5-1.7-4.3-2.8-1-0.6-1.7-1.5-2.3-2.6-0.6-1.1-0.7-2.2-0.2-3.2 4.5-8 6.8-12 11.2-20.1 0.2-0.3 0.4-0.6 0.6-0.7 0.2-0.1 0.5-0.2 0.8-0.2 0.7-0.1 1.5 0.1 2.3 0.5z"/>
			<path id="Layer" fill-rule="evenodd" class="s3" d="m494.3 69.7c3.5 2.2 5.2 3.4 8.6 5.7 1.4 1 2.6 1.3 3.6 1.1 0.8-0.1 1.4-0.6 1.9-1.3 0.7-0.9 1.1-1.4 1.8-2.4 0.2-0.3 0.8-0.5 1.6-0.5 0.8 0 1.6 0.2 2.2 0.7 0.6 0.5 1.2 1.1 1.5 1.8 0.3 0.7 0.3 1.3-0.1 1.8-1 1.3-1.5 1.9-2.5 3.1 1.9 0.1 3.7 0.2 5.2 0.5 1.5 0.2 3 0.6 4.4 1 2.7 0.9 4.9 2 6.7 3.5 0.4 0.3 0.5 0.5 0.9 0.8 0.3 0.3 0.4 0.4 0.7 0.7 0.7 0.8 1.3 1.6 1.7 2.6 0.4 0.9 0.6 2 0.6 3.2 0.1 2.3-0.5 4.5-1.9 6.4-1.3 1.5-2 2.3-3.3 3.9-0.6 0.6-1.4 0.8-2.5 0.6-1.1-0.2-2.1-0.7-2.9-1.4-6.4-5.7-9.8-8.4-16.6-13.5-0.6-0.5-1.2-1.3-1.6-2.4-0.4-1.1-0.6-2.1-0.5-2.8q-1.8 0.8-3.6 0.3c-1-0.2-2.1-0.8-3.4-1.6-1.2-0.8-1.8-1.2-3.1-2.1-0.4-0.3-0.7-0.5-0.8-0.6-0.1-0.1-0.3-0.3-0.6-0.5-0.4-0.4-0.7-0.8-1-1.3-0.6-1.1-0.7-2-0.1-2.8 1.3-1.8 1.9-2.7 3.1-4.5zm21 14.8c4.7 3.6 7 5.5 11.5 9.4 0.4-0.9 0.5-1.8 0.4-2.7-0.1-1.1-0.7-2.1-1.7-2.9-1.4-1.1-2.7-2-4.1-2.6-0.8-0.3-1.7-0.6-2.9-0.9-1.2-0.1-2.2-0.3-3.2-0.3z"/>
			<path id="Layer" class="s3" d="m528 95c4.2 3.7 6.2 5.5 10.2 9.4 0.4 0.4 0.8 0.6 1.3 0.6 0.2 0 0.4 0 0.7-0.1 0.2-0.1 0.4-0.2 0.6-0.4 1-1.3 1.5-1.9 2.4-3.2 0.5-0.5 1.2-0.7 2-0.6 0.8 0.1 1.6 0.6 2.2 1.2 0.7 0.7 1.1 1.5 1.2 2.2 0.1 0.7-0.1 1.4-0.6 1.9-2.9 3.2-4.3 4.8-7.2 8.1-0.7 0.6-1.7 0.8-2.9 0.6-1.2-0.3-2.4-1-3.4-2.1-3.3-3.3-5-5-8.5-8.1-0.4-0.3-0.6-0.6-0.7-0.7-0.1-0.1-0.3-0.3-0.5-0.6-0.3-0.5-0.6-0.9-0.8-1.4-0.5-1.1-0.4-2.1 0.3-2.8 1.5-1.5 2.2-2.3 3.7-4zm18.6-2.6c0.6 0.5 0.9 1.1 1.1 1.8 0.1 0.6 0 1.1-0.4 1.5-0.4 0.4-0.9 0.5-1.5 0.4-0.6-0.1-1.3-0.4-1.9-1-0.6-0.6-1-1.2-1.1-1.8-0.1-0.6 0-1.1 0.4-1.6 0.4-0.4 0.9-0.5 1.5-0.4 0.3 0.1 0.6 0.2 1 0.3 0.3 0.3 0.6 0.6 0.9 0.8zm4.8 5c0.6 0.6 0.9 1.2 1.1 1.9 0.1 0.6 0 1.1-0.4 1.5-0.4 0.4-0.9 0.5-1.5 0.4-0.6-0.1-1.3-0.5-1.9-1.1-0.6-0.6-1-1.2-1.1-1.8-0.1-0.6 0-1.2 0.4-1.6 0.4-0.4 0.9-0.5 1.5-0.4 0.6 0.2 1.3 0.6 1.9 1.1z"/>
			<path id="Layer" class="s3" d="m560.7 102.8q0.8-0.7 2.1-0.6c0.8 0.1 1.6 0.6 2.4 1.4 0.7 0.7 1 1.5 1.1 2.4 0 0.4 0 0.8-0.2 1.1-0.1 0.2-0.2 0.3-0.3 0.5-0.1 0.2-0.2 0.3-0.3 0.4-3.7 4.2-5.5 6.3-9.3 10.4q-0.7 0.7-2.1 0.6c-0.8-0.1-1.6-0.5-2.2-1.2-0.6-0.7-1-1.5-1-2.3 0-0.4 0.1-0.8 0.2-1.1q0.1-0.5 0.6-0.9c3.6-4.3 5.4-6.4 9-10.7zm8 8.8c0.6-0.5 1.2-0.7 2-0.6 0.8 0.1 1.5 0.5 2.2 1.3 0.6 0.8 1 1.6 1 2.5 0 0.9-0.3 1.6-0.8 2-5.7 6-8.6 9-14.4 15-1.2 1-2.7 1.2-4.6 0.6-1.8-0.6-3.5-1.8-5.1-3.7-1.5-1.8-2.3-3.7-2.4-5.8-0.1-1.8 0.4-3.4 1.3-5 0.5-0.8 0.7-1.2 1.2-2 0 0.4 0 0.8 0.2 1.2 0.1 0.2 0.2 0.3 0.3 0.5 0.2 0.2 0.2 0.3 0.4 0.5q0.3 0.3 0.6 0.6c0.2 0.2 0.4 0.3 0.5 0.4 0.7 0.5 1 0.8 1.6 1.3 0.1 0.1 0.2 0.2 0.2 0.3 0 0.1 0 0.1 0 0.2 0 0.1 0 0.1-0.1 0.2-0.3 0.6-0.1 1.2 0.4 1.9 0.5 0.5 1.1 0.9 1.9 0.9 0.8 0.1 1.7-0.2 2.5-0.9 0.1-0.1 0.1-0.1 0.2-0.1 0.2-0.2 0.2-0.2 0.4-0.4 4.4-4.4 6.4-6.5 10.5-10.9z"/>
			<path id="Layer" class="s3" d="m583 124.9c0.1 0.2 0.2 0.3 0.3 0.5q0.2 0.3 0.3 0.6c0.2 0.4 0.2 0.7 0.4 1.1 0.2 0.9 0.1 1.6-0.4 2-7.4 6.5-11.1 9.8-18.6 16.2-0.5 0.3-1 0.4-1.6 0.3-0.8-0.1-1.5-0.6-2.1-1.4-0.5-0.6-0.8-1.4-0.9-2.2-0.1-0.7 0.1-1.3 0.5-1.6 7.5-6.5 11.2-9.8 18.6-16.4 0.4-0.3 0.9-0.3 1.6-0.2 0.2 0.1 0.3 0.1 0.5 0.2 0.2 0.1 0.3 0.2 0.5 0.3 0.1 0.1 0.2 0.1 0.3 0.2 0.3 0 0.4 0.1 0.6 0.4z"/>
			<path id="Layer" fill-rule="evenodd" class="s3" d="m581.3 170.1c-0.9-0.1-1.9-0.6-3.1-1.3-1.1-0.8-2-1.6-2.6-2.6-1.1-1.8-1.4-3.7-1-5.7 0.4-2 1.5-3.6 3.2-4.7 1.6-1.1 3.6-1.2 5.8-0.5q3.3 1.2 5.1 4.2c0.2 0.4 0.3 0.5 0.5 0.9 0.1 0.2 0.2 0.5 0.4 1 0.1 0.1 0.1 0.3 0.1 0.4 0 0.1 0.1 0.3 0.1 0.5 0 0.2 0.1 0.3 0.1 0.5 0 0.2 0 0.3 0 0.6 0.4-0.3 0.6-0.4 1.1-0.6q0.8-0.5 1.8 0c0.6 0.3 1.2 1 1.7 1.8 0.4 0.8 0.6 1.5 0.6 2.3 0 0.7-0.3 1.3-0.9 1.6-1.7 1.3-2.6 1.9-4.3 3.1-0.4 0.2-0.7 0.6-0.7 0.9 0 0.2 0.1 0.5 0.2 0.8 0.2 0.5 0.3 0.7 0.6 1.2-3 1.6-4.4 2.4-7.4 4.1-0.8-1.5-1.2-2.2-2-3.7-0.4-0.8-0.6-1.6-0.5-2.5 0.2-1 0.6-1.7 1.2-2.3zm17-18.7c0.5 0.8 0.7 1.6 0.6 2.2 0 0.7-0.3 1.2-0.8 1.5-0.2 0.2-0.5 0.2-0.8 0.2-0.3 0-0.6-0.1-0.9-0.2-0.6-0.2-1.2-0.8-1.6-1.6-0.5-0.8-0.7-1.5-0.6-2.2q0-1.1 0.9-1.5c0.5-0.3 1.1-0.3 1.7-0.1 0.5 0.4 1.1 1 1.5 1.7zm-12.2 14.8c0.5-0.4 0.8-0.7 1.4-1.1-0.1-0.9-0.4-1.8-0.9-2.5-0.3-0.6-0.8-1.1-1.2-1.4-0.4-0.3-0.8-0.4-1.3-0.3-0.1 0-0.1 0.1-0.2 0.1-0.3 0.2-0.4 0.6-0.4 1.2 0 0.6 0.3 1.2 0.7 1.9 0.4 0.9 1.1 1.5 1.9 2.1zm15.9-8.3c0.4 0.8 0.6 1.5 0.6 2.2q0 1-0.9 1.5c-0.5 0.3-1.1 0.3-1.7 0-0.6-0.3-1.1-0.8-1.6-1.6-0.5-0.8-0.7-1.6-0.6-2.3q0.2-1.1 0.9-1.5c0.5-0.3 1.1-0.3 1.7 0 0.6 0.3 1.2 0.9 1.6 1.7z"/>
			<path id="Layer" class="s3" d="m587.6 169.9c2.8 5.2 4.2 7.9 6.7 13.3 0.2 0.5 0.6 0.9 1.1 1.1 0.2 0.1 0.4 0.1 0.7 0.1 0.2 0 0.5 0 0.7-0.1 1.3-0.9 2-1.4 3.3-2.3 0.7-0.3 1.3-0.3 2.1 0.2 0.7 0.5 1.3 1.1 1.7 2.1 0.4 1 0.6 1.9 0.5 2.7-0.1 0.8-0.5 1.4-1.2 1.7-3.7 2.2-5.6 3.3-9.3 5.4-0.8 0.4-1.8 0.2-2.9-0.5-1-0.7-1.9-1.9-2.6-3.4-2.1-4.6-3.2-6.9-5.5-11.4-0.2-0.5-0.4-0.8-0.5-1-0.1-0.2-0.2-0.5-0.3-0.8-0.2-0.6-0.3-1.2-0.3-1.7-0.1-1.3 0.3-2.2 1.1-2.7 1.9-1 2.9-1.6 4.7-2.7zm-3 16.8c0.2 0.4 0.3 0.7 0.4 0.9 0.1 0.2 0.1 0.4 0.1 0.6 0 0.2 0 0.3-0.1 0.5-0.1 0.6-0.4 1.1-0.9 1.3-0.4 0.2-1 0.2-1.6-0.1-0.3-0.2-0.5-0.4-0.7-0.6-0.2-0.2-0.4-0.6-0.6-1-0.4-0.7-0.5-1.5-0.4-2.1 0.1-0.6 0.4-1.1 0.9-1.3q0.8-0.3 1.5 0c0.6 0.5 1 1 1.4 1.8zm2.7 6.4q0.4 1 0.3 2.1c-0.1 0.7-0.4 1.1-0.9 1.4-0.5 0.2-1 0.1-1.5-0.2-0.5-0.3-1-0.8-1.3-1.6-0.3-0.7-0.5-1.5-0.4-2.2 0.1-0.6 0.4-1.1 0.9-1.3 0.5-0.2 1-0.2 1.5 0.1 0.6 0.3 1 0.9 1.4 1.7z"/>
			<path id="Layer" fill-rule="evenodd" class="s3" d="m600.1 220.6c-0.1-0.2-0.2-0.3-0.4-0.5-0.5-0.4-1-1-1.6-1.7-0.2-0.4-0.3-0.6-0.5-1q-0.3-0.6-0.6-1.5c-0.5-1.4-0.6-2.8-0.4-4.2 0.2-1.4 0.6-2.3 1.4-2.6 0.3-0.1 0.5-0.1 0.8-0.1 0.3 0 0.6 0.2 1 0.4 0.7 0.4 1.2 1.1 1.5 1.9 0.1 0.3 0.1 0.4 0.2 0.6 0.1 0.3 0.2 0.4 0.3 0.7 0.1 0.3 0.2 0.4 0.3 0.7 0.1 0.3 0.3 0.5 0.4 0.7 0.2 0.3 0.5 0.4 0.7 0.3 0.2 0 0.3-0.1 0.5-0.1 0.2-0.1 0.3-0.1 0.4-0.1 0.7-0.3 1.3-0.8 1.6-1.4 0.3-0.7 0.4-1.3 0.2-2-0.1-0.2-0.2-0.4-0.3-0.5-0.1-0.1-0.1-0.1-0.2-0.2q-0.2-0.2-0.3-0.3c-0.6-0.5-1.5-0.9-2.8-1.2-0.7-0.1-1-0.2-1.7-0.3-0.8 0-1.2-0.1-2.1-0.1q-1.2 0-2.4-1.2c-0.8-0.9-1.5-1.9-1.9-3.1-1.4-3.5-2.1-5.2-3.5-8.6-0.2-0.5-0.3-0.8-0.4-1-0.1-0.2-0.1-0.5-0.2-0.8-0.1-0.6-0.2-1.2-0.2-1.8 0-1.3 0.4-2.2 1.3-2.7 2-1 2.9-1.5 4.9-2.4 1.8 3.9 2.6 5.8 4.3 9.8 0.1 0.3 0.2 0.4 0.3 0.7 0.1 0.1 0.1 0.2 0.2 0.3 0.2 0.2 0.2 0.4 0.4 0.6 0.2 0.2 0.3 0.3 0.4 0.4q0.9 0.9 1.5 0.9c1.9 0 3.8 0.6 5.6 2 1.8 1.4 3.1 3.2 4 5.5 0.9 2.5 0.9 5.1 0.2 7.7-0.4 1.3-0.9 2.4-1.4 3.3-0.7 1.1-1.5 1.9-2.4 2.6 1 3.2 1.5 4.8 2.4 8q0.1 0.6 0.3 0.9c0.1 0.2 0.2 0.4 0.4 0.6 0.4 0.2 0.8 0.3 1.3 0.3 1.5-0.7 2.2-1.1 3.7-1.8 0.6-0.2 1.4 0 2 0.5 0.7 0.6 1.1 1.5 1.4 2.6 0.3 1 0.3 2 0 2.8-0.3 0.9-0.7 1.4-1.4 1.6-4 1.6-6 2.4-10.1 4-0.9 0.3-1.8-0.1-2.8-1.1-0.4-0.4-0.8-1-1-1.7-0.3-0.7-0.5-1.4-0.8-2.3-1.4-5.2-2.1-7.7-3.7-12.7-0.1-0.2-0.1-0.3-0.2-0.5-0.1-0.1-0.1-0.3-0.2-0.4-0.3-0.1-0.4-0.3-0.4-0.5zm-1.5 9.8c-0.3 0.1-0.5 0.1-0.7 0-0.2 0-0.5-0.2-0.8-0.4-0.5-0.4-0.9-1-1.1-1.8-0.3-0.9-0.3-1.6-0.1-2.3 0.2-0.6 0.5-1.1 1-1.2 0.5-0.2 1-0.1 1.5 0.4 0.5 0.4 0.9 1.1 1.2 1.9 0.2 0.7 0.2 1.5 0.1 2.1-0.1 0.6-0.6 1.2-1.1 1.3zm1.8 7.2c-0.5 0.1-1 0-1.5-0.4-0.5-0.4-0.9-1.1-1.1-1.9-0.2-0.9-0.2-1.6 0-2.3 0.2-0.6 0.5-1.1 1-1.2 0.5-0.2 1 0 1.5 0.4 0.5 0.4 0.9 1.1 1.1 2 0.2 0.8 0.3 1.6 0.1 2.3-0.2 0.5-0.6 0.9-1.1 1.1z"/>
			<path id="Layer" class="s3" d="m620.1 241c0.9-0.1 1.9 0.5 2.6 1.5 0.7 1 1.3 2.4 1.6 4 0.1 0.4 0.1 0.7 0.2 1.1 0.3 2.2-0.1 4.5-1 6.8-0.8 2.1-2 4-3.7 5.7-1.7 1.7-3.3 2.6-5 3-0.7 0.1-1.3 0.2-1.6 0.1-0.7-0.2-1.4-0.6-2-1.4-0.6-0.8-1.1-1.8-1.6-3.1-0.9-4.7-1.3-7-2.4-11.5-0.2-1.1-0.2-2.3 0.3-3.5 0.4-1.1 1.1-1.8 1.9-2 1.9-0.5 2.9-0.8 4.8-1.4 1.3 5.2 1.8 7.9 2.9 13.3 0.6-0.1 1.3-0.8 1.9-2.1 0.2-0.3 0.2-0.5 0.4-0.9 0.1-0.4 0.2-0.5 0.3-0.9 0.2-0.5 0.3-1 0.4-1.7 0-0.1 0-0.2-0.1-0.3-0.1-0.2-0.2-0.5-0.4-0.8-0.4-0.7-0.7-1.2-0.8-1.5-0.2-1-0.3-2-0.1-2.9 0.4-0.8 0.9-1.4 1.4-1.5z"/>
			<path id="Layer" class="s3" d="m639.8 266.4c0 0.1 0 0.1 0 0.2q0 0.2 0 0.3c0.1 0.9 0.1 1.7-0.2 2.6-0.3 0.9-0.7 1.4-1.2 1.4-6.5 1.8-9.7 2.7-16.2 4.4q-0.6 0.1-0.9 2.1c0 0.3 0 0.7-0.1 1 0 0.4 0 0.7 0 1.1 0.1 0.9 0.1 1.3 0.2 2.2-3.3 0.5-4.9 0.7-8.2 1.1-0.3-2.5-0.4-3.8-0.8-6.3-0.2-1.4-0.1-2.8 0.4-4.3 0.4-1.5 1.2-2.4 2.2-2.9 8.8-2.4 13.2-3.6 22.1-6.1q0.6-0.1 0.9 0c0.2 0.1 0.4 0.3 0.7 0.6 0.4 0.6 0.8 1.5 1.1 2.6z"/>
			<path id="Layer" class="s3" d="m620.7 275.2c1 7.9 1.4 11.9 2 20.1 0.1 0.8 0.2 1.1 0.5 1.1 0.4 0 1.1-1.1 2-3.1 0.5-1.1 0.7-1.7 1.1-2.8 0.6-1.5 0.8-2.3 1.4-3.8 0.8-2.4 1.2-3.6 2-5.9 0.1-0.3 0.4-0.7 0.8-1.1 0.3-0.1 0.4-0.2 0.7-0.4 0.3-0.1 0.4-0.1 0.7-0.2 0.5-0.1 1 0 1.4 0.2q0.6 0.3 0.9 1.2c0.5 1.3 0.7 1.9 1.2 3.2 0.5 1.5 0.8 2.3 1.3 3.8 0.9 2.8 1.4 4.2 2.3 7.1 0.8 2.7 1.1 4.1 1.9 6.8 0.1 0.3 0.1 0.5 0.2 0.8 0.1 0.3 0.1 0.4 0.1 0.6 0 0.1 0 0.3 0.1 0.6 0 0.5 0 1.1-0.1 1.5-0.1 0.5-0.3 0.9-0.5 1.4-0.5 0.9-1 1.3-1.5 1.3q-1.2 0-1.8-1.8c-0.3-1.2-0.5-1.8-0.9-3-0.5-1.8-0.7-2.7-1.2-4.6-0.5-1.8-0.8-2.7-1.3-4.4-0.3-1.1-0.5-1.6-0.9-2.7-0.4-1.2-0.6-1.8-1-2.9-0.2 0.8-0.4 1.5-0.6 1.9-0.1 0.4-0.2 0.5-0.3 0.9-0.2 0.4-0.2 0.6-0.4 1-0.1 0.3-0.3 0.6-0.4 1.1-0.1 0.3-0.2 0.5-0.4 0.8-0.3 0.7-0.6 1.4-1 2.1-1.3 2.4-2.6 4.6-4.1 6.5-1.4 1.7-2.6 2.7-3.6 3.1-0.3 0-0.4 0.1-0.7 0.1-0.3 0-0.4 0.1-0.7 0.1-1.5 0.1-2.7-0.4-3.6-1.4-0.9-1-1.4-2.4-1.6-4.3-0.4-7.1-0.7-10.5-1.5-17.4-0.2-1.7-0.1-3.1 0.2-4.3 0.3-1.4 1-2.2 2-2.4 2.1-0.3 3.2-0.5 5.3-0.8z"/>
			<path id="Layer" class="s3" d="m641.9 318.3c0-0.6-0.1-1-0.3-1.4-0.1-0.2-0.2-0.3-0.3-0.5-0.1-0.1-0.2-0.2-0.4-0.2-0.2 0-0.4 0.2-0.5 0.5-0.1 0.2-0.1 0.3-0.1 0.5 0 0.2-0.1 0.5-0.1 0.9 0 0.3 0 0.6 0.1 0.9 0.1 0.2 0.2 0.3 0.3 0.6 0.1 0.2 0.1 0.3 0.2 0.5 0 0.1-0.1 0.3-0.3 0.5-0.3 0.1-0.4 0.1-0.7 0.1-0.7 0-1 0-1.7 0-0.2 0-0.3-0.2-0.4-0.6 0-0.3 0-0.5-0.1-0.8 0-0.5 0-0.7 0-1.2 0-1.5 0-2.3-0.1-3.8 0-0.7 0.1-1.4 0.5-2.1 0.3-0.6 0.6-1 0.9-1.1 0.5 0 0.7 0 1.2 0 0.1 0 0.2 0.1 0.4 0.1 0.1 0.1 0.2 0.2 0.2 0.3 0 0.2 0 0.4-0.1 0.4-0.1 0.2-0.2 0.3-0.3 0.5-0.2 0.1-0.2 0.5-0.2 1q0 0.1 0 0.3c0 0.1 0.1 0.1 0.1 0.2 0.1-0.2 0.2-0.2 0.3-0.4q0.2-0.2 0.3-0.3 0.6-0.3 0.9-0.3c0.5 0 1.1 0.3 1.5 0.9 0.4 0.7 0.6 1.7 0.6 2.7 0 0.8-0.1 1.6-0.3 2.2-0.2 0.6-0.5 1.1-1 1.4-0.1 0.1-0.2 0.1-0.3 0.1-0.2 0-0.3-0.1-0.4-0.2-0.1-0.1-0.2-0.4-0.2-0.8 0.1-0.2 0.1-0.3 0.2-0.6 0 0 0.1-0.1 0.1-0.3zm-5.1-2.7c0 0.9-0.1 1.9-0.4 2.9-0.3 1.1-0.8 1.7-1.4 1.7-7.9 1.1-11.9 1.7-19.8 2.7q-0.7 0-1.5-0.9c-0.6-0.7-0.8-1.8-0.9-3 0-1 0.1-1.9 0.5-2.8 0.3-0.8 0.8-1.3 1.3-1.4 8-1.1 12-1.6 20-2.8h0.1c0.5 0 0.9 0.3 1.3 1.1 0.4 0.8 0.8 1.5 0.8 2.5z"/>
		</g>
	</g>
</svg>